IntelOneMono-Bold.ufo
<glyph name="exclam" format="2">
  <advance width="614"/>
  <unicode hex="0021"/>
  <outline>
    <contour>
      <point x="356" y="277" type="line"/>
      <point x="258" y="277" type="line"/>
      <point x="175" y="710" type="line"/>
      <point x="440" y="710" type="line"/>
    </contour>
    <contour>
      <point x="421" y="73" type="qcurve"/>
      <point x="421" y="27"/>
      <point x="363" y="-15"/>
      <point x="299" y="-15" type="qcurve"/>
      <point x="235" y="-15"/>
      <point x="179" y="26"/>
      <point x="179" y="73" type="qcurve"/>
      <point x="179" y="119"/>
      <point x="238" y="161"/>
      <point x="301" y="161" type="qcurve"/>
      <point x="365" y="161"/>
      <point x="421" y="121"/>
    </contour>
  </outline>
</glyph>
<glyph name="numbersign" format="2">
  <advance width="614"/>
  <unicode hex="0023"/>
  <outline>
    <contour>
      <point x="141" y="140" type="line"/>
      <point x="34" y="140" type="line"/>
      <point x="34" y="279" type="line"/>
      <point x="165" y="279" type="line"/>
      <point x="182" y="382" type="line"/>
      <point x="66" y="382" type="line"/>
      <point x="66" y="521" type="line"/>
      <point x="205" y="521" type="line"/>
      <point x="229" y="666" type="line"/>
      <point x="319" y="666" type="line"/>
      <point x="294" y="521" type="line"/>
      <point x="384" y="521" type="line"/>
      <point x="409" y="666" type="line"/>
      <point x="499" y="666" type="line"/>
      <point x="475" y="521" type="line"/>
      <point x="580" y="521" type="line"/>
      <point x="580" y="382" type="line"/>
      <point x="451" y="382" type="line"/>
      <point x="434" y="279" type="line"/>
      <point x="548" y="279" type="line"/>
      <point x="548" y="140" type="line"/>
      <point x="411" y="140" type="line"/>
      <point x="385" y="-12" type="line"/>
      <point x="295" y="-12" type="line"/>
      <point x="320" y="140" type="line"/>
      <point x="231" y="140" type="line"/>
      <point x="205" y="-12" type="line"/>
      <point x="116" y="-12" type="line"/>
    </contour>
    <contour>
      <point x="226" y="221" type="line"/>
      <point x="352" y="221" type="line"/>
      <point x="388" y="438" type="line"/>
      <point x="262" y="438" type="line"/>
    </contour>
  </outline>
</glyph>
<glyph name="dollar" format="2">
  <advance width="614"/>
  <unicode hex="0024"/>
  <outline>
    <contour>
      <point x="298" y="119" type="qcurve"/>
      <point x="351" y="119"/>
      <point x="402" y="150"/>
      <point x="402" y="183" type="qcurve"/>
      <point x="402" y="213"/>
      <point x="362" y="243"/>
      <point x="298" y="263" type="qcurve"/>
      <point x="236" y="283" type="line"/>
      <point x="151" y="309"/>
      <point x="75" y="398"/>
      <point x="75" y="470" type="qcurve"/>
      <point x="75" y="541"/>
      <point x="178" y="640"/>
      <point x="266" y="652" type="qcurve"/>
      <point x="266" y="796" type="line"/>
      <point x="357" y="796" type="line"/>
      <point x="357" y="654" type="line"/>
      <point x="391" y="652"/>
      <point x="464" y="642"/>
      <point x="521" y="630" type="qcurve"/>
      <point x="505" y="509" type="line"/>
      <point x="437" y="523"/>
      <point x="347" y="536"/>
      <point x="315" y="536" type="qcurve"/>
      <point x="266" y="536"/>
      <point x="219" y="509"/>
      <point x="219" y="482" type="qcurve"/>
      <point x="219" y="450"/>
      <point x="263" y="415"/>
      <point x="319" y="399" type="qcurve"/>
      <point x="385" y="380" type="line"/>
      <point x="474" y="354"/>
      <point x="547" y="270"/>
      <point x="547" y="193" type="qcurve"/>
      <point x="547" y="117"/>
      <point x="447" y="17"/>
      <point x="357" y="4" type="qcurve"/>
      <point x="357" y="-142" type="line"/>
      <point x="266" y="-142" type="line"/>
      <point x="266" y="1" type="line"/>
      <point x="220" y="3"/>
      <point x="117" y="22"/>
      <point x="54" y="41" type="qcurve"/>
      <point x="80" y="162" type="line"/>
      <point x="156" y="139"/>
      <point x="260" y="119"/>
    </contour>
  </outline>
</glyph>
<glyph name="percent" format="2">
  <advance width="614"/>
  <unicode hex="0025"/>
  <outline>
    <contour>
      <point x="188" y="317" type="qcurve"/>
      <point x="116" y="317"/>
      <point x="39" y="409"/>
      <point x="39" y="494" type="qcurve"/>
      <point x="39" y="579"/>
      <point x="117" y="670"/>
      <point x="189" y="670" type="qcurve"/>
      <point x="263" y="670"/>
      <point x="341" y="579"/>
      <point x="341" y="495" type="qcurve"/>
      <point x="341" y="410"/>
      <point x="262" y="317"/>
    </contour>
    <contour>
      <point x="600" y="654" type="line"/>
      <point x="412" y="378" type="line"/>
      <point x="360" y="378" type="line"/>
      <point x="470" y="660" type="line"/>
      <point x="600" y="660" type="line"/>
    </contour>
    <contour>
      <point x="256" y="494" type="qcurve"/>
      <point x="256" y="544"/>
      <point x="222" y="595"/>
      <point x="188" y="595" type="qcurve"/>
      <point x="155" y="595"/>
      <point x="123" y="545"/>
      <point x="123" y="495" type="qcurve"/>
      <point x="123" y="444"/>
      <point x="155" y="394"/>
      <point x="189" y="394" type="qcurve"/>
      <point x="223" y="394"/>
      <point x="256" y="443"/>
    </contour>
    <contour>
      <point x="425" y="-15" type="qcurve"/>
      <point x="351" y="-15"/>
      <point x="273" y="76"/>
      <point x="273" y="160" type="qcurve"/>
      <point x="273" y="245"/>
      <point x="352" y="338"/>
      <point x="426" y="338" type="qcurve"/>
      <point x="498" y="338"/>
      <point x="575" y="246"/>
      <point x="575" y="161" type="qcurve"/>
      <point x="575" y="76"/>
      <point x="497" y="-15"/>
    </contour>
    <contour>
      <point x="358" y="161" type="qcurve"/>
      <point x="358" y="111"/>
      <point x="392" y="60"/>
      <point x="426" y="60" type="qcurve"/>
      <point x="459" y="60"/>
      <point x="491" y="110"/>
      <point x="491" y="160" type="qcurve"/>
      <point x="491" y="211"/>
      <point x="459" y="261"/>
      <point x="425" y="261" type="qcurve"/>
      <point x="391" y="261"/>
      <point x="358" y="212"/>
    </contour>
    <contour>
      <point x="14" y="1" type="line"/>
      <point x="202" y="277" type="line"/>
      <point x="254" y="277" type="line"/>
      <point x="144" y="-5" type="line"/>
      <point x="14" y="-5" type="line"/>
    </contour>
  </outline>
</glyph>
<glyph name="quotesingle" format="2">
  <advance width="614"/>
  <unicode hex="0027"/>
  <outline>
    <contour>
      <point x="233" y="359" type="line"/>
      <point x="381" y="359" type="line"/>
      <point x="398" y="710" type="line"/>
      <point x="216" y="710" type="line"/>
    </contour>
  </outline>
</glyph>
<glyph name="comma" format="2">
  <advance width="614"/>
  <unicode hex="002C"/>
  <outline>
    <contour>
      <point x="210" y="-171" type="qcurve"/>
      <point x="79" y="-171" type="line"/>
      <point x="79" y="-169" type="line"/>
      <point x="156" y="-65"/>
      <point x="210" y="63"/>
      <point x="221" y="160" type="qcurve"/>
      <point x="437" y="160" type="line"/>
      <point x="415" y="54"/>
      <point x="313" y="-96"/>
    </contour>
  </outline>
</glyph>
<glyph name="period" format="2">
  <advance width="614"/>
  <unicode hex="002E"/>
  <outline>
    <contour>
      <point x="430" y="94" type="qcurve"/>
      <point x="430" y="41"/>
      <point x="366" y="-15"/>
      <point x="306" y="-15" type="qcurve"/>
      <point x="245" y="-15"/>
      <point x="184" y="39"/>
      <point x="184" y="93" type="qcurve"/>
      <point x="184" y="145"/>
      <point x="248" y="202"/>
      <point x="307" y="202" type="qcurve"/>
      <point x="370" y="202"/>
      <point x="430" y="149"/>
    </contour>
  </outline>
</glyph>
<glyph name="slash" format="2">
  <advance width="614"/>
  <unicode hex="002F"/>
  <outline>
    <contour>
      <point x="439" y="755" type="line"/>
      <point x="574" y="755" type="line"/>
      <point x="176" y="-100" type="line"/>
      <point x="40" y="-100" type="line"/>
    </contour>
  </outline>
</glyph>
<glyph name="one" format="2">
  <advance width="614"/>
  <unicode hex="0031"/>
  <outline>
    <contour>
      <point x="537" y="0" type="line"/>
      <point x="95" y="0" type="line"/>
      <point x="95" y="120" type="line"/>
      <point x="254" y="120" type="line"/>
      <point x="254" y="483" type="line"/>
      <point x="95" y="406" type="line"/>
      <point x="95" y="545" type="line"/>
      <point x="344" y="665" type="line"/>
      <point x="399" y="665" type="line"/>
      <point x="399" y="120" type="line"/>
      <point x="537" y="120" type="line"/>
    </contour>
  </outline>
</glyph>
<glyph name="two" format="2">
  <advance width="614"/>
  <unicode hex="0032"/>
  <outline>
    <contour>
      <point x="559" y="0" type="line"/>
      <point x="71" y="0" type="line"/>
      <point x="71" y="112" type="line"/>
      <point x="260" y="291" type="line"/>
      <point x="332" y="360"/>
      <point x="391" y="441"/>
      <point x="391" y="479" type="qcurve"/>
      <point x="391" y="511"/>
      <point x="353" y="545"/>
      <point x="318" y="545" type="qcurve"/>
      <point x="281" y="545"/>
      <point x="203" y="497"/>
      <point x="131" y="431" type="qcurve"/>
      <point x="54" y="528" type="line"/>
      <point x="141" y="607"/>
      <point x="262" y="670"/>
      <point x="328" y="670" type="qcurve"/>
      <point x="423" y="670"/>
      <point x="537" y="570"/>
      <point x="537" y="485" type="qcurve"/>
      <point x="537" y="424"/>
      <point x="473" y="325"/>
      <point x="391" y="250" type="qcurve"/>
      <point x="253" y="124" type="line"/>
      <point x="253" y="120" type="line"/>
      <point x="559" y="120" type="line"/>
    </contour>
  </outline>
</glyph>
<glyph name="four" format="2">
  <advance width="614"/>
  <unicode hex="0034"/>
  <outline>
    <contour>
      <point x="339" y="151" type="line"/>
      <point x="38" y="151" type="line"/>
      <point x="38" y="247" type="line"/>
      <point x="290" y="655" type="line"/>
      <point x="473" y="655" type="line"/>
      <point x="473" y="264" type="line"/>
      <point x="596" y="264" type="line"/>
      <point x="596" y="151" type="line"/>
      <point x="473" y="151" type="line"/>
      <point x="473" y="0" type="line"/>
      <point x="339" y="0" type="line"/>
    </contour>
    <contour>
      <point x="351" y="249" type="line"/>
      <point x="351" y="566" type="line"/>
      <point x="162" y="254" type="line"/>
      <point x="162" y="249" type="line"/>
    </contour>
  </outline>
</glyph>
<glyph name="five" format="2">
  <advance width="614"/>
  <unicode hex="0035"/>
  <outline>
    <contour>
      <point x="355" y="423" type="qcurve"/>
      <point x="438" y="423"/>
      <point x="542" y="320"/>
      <point x="542" y="235" type="qcurve"/>
      <point x="542" y="128"/>
      <point x="375" y="15"/>
      <point x="196" y="0" type="qcurve"/>
      <point x="80" y="-10" type="line"/>
      <point x="66" y="116" type="line"/>
      <point x="185" y="127" type="line"/>
      <point x="301" y="137"/>
      <point x="397" y="188"/>
      <point x="397" y="242" type="qcurve"/>
      <point x="397" y="276"/>
      <point x="354" y="314"/>
      <point x="315" y="314" type="qcurve"/>
      <point x="288" y="314"/>
      <point x="226" y="295"/>
      <point x="194" y="277" type="qcurve"/>
      <point x="91" y="297" type="line"/>
      <point x="88" y="302" type="line"/>
      <point x="109" y="655" type="line"/>
      <point x="502" y="655" type="line"/>
      <point x="502" y="535" type="line"/>
      <point x="228" y="535" type="line"/>
      <point x="217" y="386" type="line"/>
      <point x="247" y="405"/>
      <point x="316" y="423"/>
    </contour>
  </outline>
</glyph>
<glyph name="six" format="2">
  <advance width="614"/>
  <unicode hex="0036"/>
  <outline>
    <contour>
      <point x="341" y="436" type="qcurve"/>
      <point x="444" y="436"/>
      <point x="554" y="322"/>
      <point x="554" y="216" type="qcurve"/>
      <point x="554" y="113"/>
      <point x="413" y="-15"/>
      <point x="300" y="-15" type="qcurve"/>
      <point x="190" y="-15"/>
      <point x="61" y="116"/>
      <point x="61" y="223" type="qcurve"/>
      <point x="61" y="317"/>
      <point x="144" y="483"/>
      <point x="237" y="577" type="qcurve"/>
      <point x="314" y="655" type="line"/>
      <point x="499" y="655" type="line"/>
      <point x="500" y="653" type="line"/>
      <point x="362" y="525" type="line"/>
      <point x="337" y="502"/>
      <point x="295" y="454"/>
      <point x="277" y="429" type="qcurve"/>
      <point x="293" y="432"/>
      <point x="325" y="436"/>
    </contour>
    <contour>
      <point x="226" y="331" type="qcurve"/>
      <point x="216" y="305"/>
      <point x="206" y="253"/>
      <point x="206" y="227" type="qcurve"/>
      <point x="206" y="170"/>
      <point x="258" y="102"/>
      <point x="302" y="102" type="qcurve"/>
      <point x="352" y="102"/>
      <point x="407" y="163"/>
      <point x="407" y="218" type="qcurve"/>
      <point x="407" y="278"/>
      <point x="352" y="339"/>
      <point x="298" y="339" type="qcurve"/>
      <point x="277" y="339"/>
      <point x="242" y="335"/>
    </contour>
  </outline>
</glyph>
<glyph name="seven" format="2">
  <advance width="614"/>
  <unicode hex="0037"/>
  <outline>
    <contour>
      <point x="538" y="529" type="line"/>
      <point x="285" y="0" type="line"/>
      <point x="119" y="0" type="line"/>
      <point x="119" y="2" type="line"/>
      <point x="399" y="530" type="line"/>
      <point x="399" y="535" type="line"/>
      <point x="60" y="535" type="line"/>
      <point x="60" y="655" type="line"/>
      <point x="538" y="655" type="line"/>
    </contour>
  </outline>
</glyph>
<glyph name="colon" format="2">
  <advance width="614"/>
  <unicode hex="003A"/>
  <outline>
    <contour>
      <point x="430" y="392" type="qcurve"/>
      <point x="430" y="343"/>
      <point x="367" y="292"/>
      <point x="306" y="292" type="qcurve"/>
      <point x="245" y="292"/>
      <point x="184" y="342"/>
      <point x="184" y="391" type="qcurve"/>
      <point x="184" y="439"/>
      <point x="248" y="491"/>
      <point x="307" y="491" type="qcurve"/>
      <point x="370" y="491"/>
      <point x="430" y="443"/>
    </contour>
    <contour>
      <point x="430" y="85" type="qcurve"/>
      <point x="430" y="36"/>
      <point x="366" y="-15"/>
      <point x="306" y="-15" type="qcurve"/>
      <point x="246" y="-15"/>
      <point x="184" y="36"/>
      <point x="184" y="85" type="qcurve"/>
      <point x="184" y="132"/>
      <point x="248" y="185"/>
      <point x="307" y="185" type="qcurve"/>
      <point x="370" y="185"/>
      <point x="430" y="136"/>
    </contour>
  </outline>
</glyph>
<glyph name="less" format="2">
  <advance width="614"/>
  <unicode hex="003C"/>
  <outline>
    <contour>
      <point x="544" y="187" type="line"/>
      <point x="544" y="52" type="line"/>
      <point x="58" y="256" type="line"/>
      <point x="58" y="387" type="line"/>
      <point x="544" y="589" type="line"/>
      <point x="544" y="454" type="line"/>
      <point x="201" y="321" type="line"/>
    </contour>
  </outline>
</glyph>
<glyph name="at" format="2">
  <advance width="614"/>
  <unicode hex="0040"/>
  <outline>
    <contour>
      <point x="481" y="-8" type="qcurve"/>
      <point x="492" y="-60" type="line"/>
      <point x="444" y="-71"/>
      <point x="375" y="-79"/>
      <point x="341" y="-79" type="qcurve"/>
      <point x="192" y="-79"/>
      <point x="60" y="107"/>
      <point x="60" y="315" type="qcurve"/>
      <point x="60" y="526"/>
      <point x="191" y="725"/>
      <point x="334" y="725" type="qcurve"/>
      <point x="415" y="725"/>
      <point x="506" y="668"/>
      <point x="529" y="604" type="qcurve"/>
      <point x="545" y="562"/>
      <point x="560" y="440"/>
      <point x="560" y="358" type="qcurve"/>
      <point x="560" y="237"/>
      <point x="475" y="129"/>
      <point x="374" y="129" type="qcurve"/>
      <point x="286" y="129"/>
      <point x="204" y="223"/>
      <point x="204" y="323" type="qcurve"/>
      <point x="204" y="422"/>
      <point x="299" y="515"/>
      <point x="401" y="515" type="qcurve"/>
      <point x="492" y="515" type="line"/>
      <point x="480" y="601"/>
      <point x="413" y="670"/>
      <point x="328" y="670" type="qcurve"/>
      <point x="217" y="670"/>
      <point x="120" y="503"/>
      <point x="120" y="320" type="qcurve"/>
      <point x="120" y="137"/>
      <point x="224" y="-24"/>
      <point x="346" y="-24" type="qcurve"/>
      <point x="379" y="-24"/>
      <point x="445" y="-16"/>
    </contour>
    <contour>
      <point x="299" y="322" type="qcurve"/>
      <point x="299" y="267"/>
      <point x="337" y="215"/>
      <point x="378" y="215" type="qcurve"/>
      <point x="449" y="215"/>
      <point x="500" y="276"/>
      <point x="500" y="356" type="qcurve"/>
      <point x="500" y="388"/>
      <point x="500" y="417"/>
      <point x="499" y="429" type="qcurve"/>
      <point x="399" y="429" type="line"/>
      <point x="345" y="429"/>
      <point x="299" y="380"/>
    </contour>
  </outline>
</glyph>
<glyph name="A" format="2">
  <advance width="614"/>
  <unicode hex="0041"/>
  <outline>
    <contour>
      <point x="207" y="126" type="line"/>
      <point x="171" y="0" type="line"/>
      <point x="28" y="0" type="line"/>
      <point x="216" y="655" type="line"/>
      <point x="396" y="655" type="line"/>
      <point x="586" y="0" type="line"/>
      <point x="435" y="0" type="line"/>
      <point x="399" y="126" type="line"/>
    </contour>
    <contour>
      <point x="303" y="500" type="line"/>
      <point x="236" y="239" type="line"/>
      <point x="370" y="239" type="line"/>
    </contour>
  </outline>
</glyph>
<glyph name="D" format="2">
  <advance width="614"/>
  <unicode hex="0044"/>
  <outline>
    <contour>
      <point x="75" y="0" type="line"/>
      <point x="75" y="655" type="line"/>
      <point x="199" y="655" type="line"/>
      <point x="379" y="655"/>
      <point x="568" y="490"/>
      <point x="568" y="333" type="qcurve"/>
      <point x="568" y="171"/>
      <point x="369" y="0"/>
      <point x="179" y="0" type="qcurve"/>
    </contour>
    <contour>
      <point x="421" y="331" type="qcurve"/>
      <point x="421" y="427"/>
      <point x="335" y="527"/>
      <point x="247" y="533" type="qcurve"/>
      <point x="219" y="535" type="line"/>
      <point x="219" y="121" type="line"/>
      <point x="230" y="122" type="line"/>
      <point x="331" y="130"/>
      <point x="421" y="228"/>
    </contour>
  </outline>
</glyph>
<glyph name="E" format="2">
  <advance width="614"/>
  <unicode hex="0045"/>
  <outline>
    <contour>
      <point x="87" y="0" type="line"/>
      <point x="87" y="655" type="line"/>
      <point x="541" y="655" type="line"/>
      <point x="541" y="535" type="line"/>
      <point x="232" y="535" type="line"/>
      <point x="232" y="390" type="line"/>
      <point x="509" y="390" type="line"/>
      <point x="509" y="270" type="line"/>
      <point x="232" y="270" type="line"/>
      <point x="232" y="120" type="line"/>
      <point x="542" y="120" type="line"/>
      <point x="542" y="0" type="line"/>
    </contour>
  </outline>
</glyph>
<glyph name="H" format="2">
  <advance width="614"/>
  <unicode hex="0048"/>
  <outline>
    <contour>
      <point x="75" y="0" type="line"/>
      <point x="75" y="655" type="line"/>
      <point x="219" y="655" type="line"/>
      <point x="219" y="390" type="line"/>
      <point x="395" y="390" type="line"/>
      <point x="395" y="655" type="line"/>
      <point x="539" y="655" type="line"/>
      <point x="539" y="0" type="line"/>
      <point x="395" y="0" type="line"/>
      <point x="395" y="270" type="line"/>
      <point x="219" y="270" type="line"/>
      <point x="219" y="0" type="line"/>
    </contour>
  </outline>
</glyph>
<glyph name="N" format="2">
  <advance width="614"/>
  <unicode hex="004E"/>
  <outline>
    <contour>
      <point x="200" y="407" type="line"/>
      <point x="206" y="0" type="line"/>
      <point x="74" y="0" type="line"/>
      <point x="74" y="655" type="line"/>
      <point x="213" y="655" type="line"/>
      <point x="414" y="250" type="line"/>
      <point x="408" y="655" type="line"/>
      <point x="540" y="655" type="line"/>
      <point x="540" y="0" type="line"/>
      <point x="402" y="0" type="line"/>
    </contour>
  </outline>
</glyph>
<glyph name="O" format="2">
  <advance width="614"/>
  <unicode hex="004F"/>
  <outline>
    <contour>
      <point x="309" y="670" type="qcurve"/>
      <point x="434" y="670"/>
      <point x="564" y="496"/>
      <point x="564" y="328" type="qcurve"/>
      <point x="564" y="160"/>
      <point x="431" y="-15"/>
      <point x="305" y="-15" type="qcurve"/>
      <point x="180" y="-15"/>
      <point x="50" y="158"/>
      <point x="50" y="326" type="qcurve"/>
      <point x="50" y="494"/>
      <point x="183" y="670"/>
    </contour>
    <contour>
      <point x="307" y="550" type="qcurve"/>
      <point x="248" y="550"/>
      <point x="197" y="444"/>
      <point x="197" y="328" type="qcurve"/>
      <point x="197" y="212"/>
      <point x="249" y="105"/>
      <point x="307" y="105" type="qcurve"/>
      <point x="366" y="105"/>
      <point x="417" y="210"/>
      <point x="417" y="326" type="qcurve"/>
      <point x="417" y="443"/>
      <point x="365" y="550"/>
    </contour>
  </outline>
</glyph>
<glyph name="Q" format="2">
  <advance width="614"/>
  <unicode hex="0051"/>
  <outline>
    <contour>
      <point x="482" y="65" type="qcurve"/>
      <point x="627" y="-115" type="line"/>
      <point x="496" y="-195" type="line"/>
      <point x="389" y="3" type="line"/>
      <point x="369" y="-4"/>
      <point x="327" y="-11"/>
      <point x="305" y="-11" type="qcurve"/>
      <point x="179" y="-11"/>
      <point x="50" y="159"/>
      <point x="50" y="325" type="qcurve"/>
      <point x="50" y="494"/>
      <point x="182" y="670"/>
      <point x="309" y="670" type="qcurve"/>
      <point x="435" y="670"/>
      <point x="564" y="496"/>
      <point x="564" y="327" type="qcurve"/>
      <point x="564" y="243"/>
      <point x="522" y="109"/>
    </contour>
    <contour>
      <point x="307" y="550" type="qcurve"/>
      <point x="248" y="550"/>
      <point x="197" y="444"/>
      <point x="197" y="327" type="qcurve"/>
      <point x="197" y="211"/>
      <point x="249" y="104"/>
      <point x="307" y="104" type="qcurve"/>
      <point x="370" y="104"/>
      <point x="417" y="203"/>
      <point x="417" y="325" type="qcurve"/>
      <point x="417" y="442"/>
      <point x="366" y="550"/>
    </contour>
  </outline>
</glyph>
<glyph name="T" format="2">
  <advance width="614"/>
  <unicode hex="0054"/>
  <outline>
    <contour>
      <point x="235" y="535" type="line"/>
      <point x="39" y="535" type="line"/>
      <point x="39" y="655" type="line"/>
      <point x="575" y="655" type="line"/>
      <point x="575" y="535" type="line"/>
      <point x="379" y="535" type="line"/>
      <point x="379" y="0" type="line"/>
      <point x="235" y="0" type="line"/>
    </contour>
  </outline>
</glyph>
<glyph name="V" format="2">
  <advance width="614"/>
  <unicode hex="0056"/>
  <outline>
    <contour>
      <point x="219" y="0" type="line"/>
      <point x="28" y="655" type="line"/>
      <point x="179" y="655" type="line"/>
      <point x="311" y="168" type="line"/>
      <point x="444" y="655" type="line"/>
      <point x="586" y="655" type="line"/>
      <point x="397" y="0" type="line"/>
    </contour>
  </outline>
</glyph>
<glyph name="W" format="2">
  <advance width="614"/>
  <unicode hex="0057"/>
  <outline>
    <contour>
      <point x="578" y="655" type="line"/>
      <point x="498" y="0" type="line"/>
      <point x="376" y="0" type="line"/>
      <point x="305" y="301" type="line"/>
      <point x="233" y="0" type="line"/>
      <point x="115" y="0" type="line"/>
      <point x="36" y="655" type="line"/>
      <point x="171" y="655" type="line"/>
      <point x="211" y="232" type="line"/>
      <point x="296" y="531" type="line"/>
      <point x="320" y="531" type="line"/>
      <point x="404" y="238" type="line"/>
      <point x="443" y="655" type="line"/>
    </contour>
  </outline>
</glyph>
<glyph name="Z" format="2">
  <advance width="614"/>
  <unicode hex="005A"/>
  <outline>
    <contour>
      <point x="562" y="0" type="line"/>
      <point x="53" y="0" type="line"/>
      <point x="53" y="103" type="line"/>
      <point x="359" y="523" type="line"/>
      <point x="359" y="528" type="line"/>
      <point x="63" y="528" type="line"/>
      <point x="63" y="655" type="line"/>
      <point x="552" y="655" type="line"/>
      <point x="552" y="552" type="line"/>
      <point x="239" y="130" type="line"/>
      <point x="239" y="126" type="line"/>
      <point x="562" y="126" type="line"/>
    </contour>
  </outline>
</glyph>
<glyph name="grave" format="2">
  <advance width="614"/>
  <unicode hex="0060"/>
  <outline>
    <contour>
      <point x="467" y="359" type="line"/>
      <point x="334" y="359" type="line"/>
      <point x="117" y="710" type="line"/>
      <point x="323" y="710" type="line"/>
    </contour>
  </outline>
</glyph>
<glyph name="a" format="2">
  <advance width="614"/>
  <unicode hex="0061"/>
  <outline>
    <contour>
      <point x="519" y="327" type="qcurve"/>
      <point x="519" y="149" type="line"/>
      <point x="519" y="123"/>
      <point x="531" y="106"/>
      <point x="549" y="105" type="qcurve"/>
      <point x="594" y="101" type="line"/>
      <point x="582" y="-6" type="line"/>
      <point x="501" y="-1" type="line"/>
      <point x="455" y="2"/>
      <point x="402" y="27"/>
      <point x="390" y="51" type="qcurve"/>
      <point x="378" y="51" type="line"/>
      <point x="340" y="21"/>
      <point x="245" y="-11"/>
      <point x="191" y="-11" type="qcurve"/>
      <point x="123" y="-11"/>
      <point x="44" y="64"/>
      <point x="44" y="131" type="qcurve"/>
      <point x="44" y="206"/>
      <point x="123" y="275"/>
      <point x="217" y="285" type="qcurve"/>
      <point x="382" y="301" type="line"/>
      <point x="382" y="324" type="line"/>
      <point x="382" y="356"/>
      <point x="340" y="377"/>
      <point x="285" y="377" type="qcurve"/>
      <point x="259" y="377"/>
      <point x="167" y="369"/>
      <point x="107" y="361" type="qcurve"/>
      <point x="94" y="475" type="line"/>
      <point x="152" y="482"/>
      <point x="254" y="490"/>
      <point x="292" y="490" type="qcurve"/>
      <point x="413" y="490"/>
      <point x="519" y="415"/>
    </contour>
    <contour>
      <point x="184" y="141" type="qcurve"/>
      <point x="184" y="119"/>
      <point x="211" y="94"/>
      <point x="235" y="94" type="qcurve"/>
      <point x="268" y="94"/>
      <point x="340" y="123"/>
      <point x="382" y="153" type="qcurve"/>
      <point x="382" y="217" type="line"/>
      <point x="255" y="200" type="line"/>
      <point x="216" y="195"/>
      <point x="184" y="169"/>
    </contour>
  </outline>
</glyph>
<glyph name="e" format="2">
  <advance width="614"/>
  <unicode hex="0065"/>
  <outline>
    <contour>
      <point x="383" y="100" type="qcurve"/>
      <point x="461" y="97" type="line"/>
      <point x="456" y="-13" type="line"/>
      <point x="335" y="-11" type="line"/>
      <point x="192" y="-9"/>
      <point x="57" y="110"/>
      <point x="57" y="235" type="qcurve"/>
      <point x="57" y="346"/>
      <point x="201" y="492"/>
      <point x="315" y="492" type="qcurve"/>
      <point x="424" y="492"/>
      <point x="557" y="360"/>
      <point x="557" y="254" type="qcurve"/>
      <point x="557" y="238"/>
      <point x="554" y="206"/>
      <point x="551" y="192" type="qcurve"/>
      <point x="199" y="192" type="line"/>
      <point x="209" y="144"/>
      <point x="288" y="104"/>
    </contour>
    <contour>
      <point x="316" y="384" type="qcurve"/>
      <point x="270" y="384"/>
      <point x="209" y="335"/>
      <point x="199" y="289" type="qcurve"/>
      <point x="419" y="289" type="line"/>
      <point x="415" y="333"/>
      <point x="360" y="384"/>
    </contour>
  </outline>
</glyph>
<glyph name="j" format="2">
  <advance width="614"/>
  <unicode hex="006A"/>
  <outline>
    <contour>
      <point x="497" y="662" type="qcurve"/>
      <point x="497" y="622"/>
      <point x="441" y="578"/>
      <point x="392" y="578" type="qcurve"/>
      <point x="343" y="578"/>
      <point x="289" y="621"/>
      <point x="289" y="661" type="qcurve"/>
      <point x="289" y="700"/>
      <point x="346" y="746"/>
      <point x="393" y="746" type="qcurve"/>
      <point x="444" y="746"/>
      <point x="497" y="703"/>
    </contour>
    <contour>
      <point x="468" y="477" type="line"/>
      <point x="468" y="6" type="line"/>
      <point x="468" y="-122"/>
      <point x="372" y="-224"/>
      <point x="240" y="-230" type="qcurve"/>
      <point x="106" y="-236" type="line"/>
      <point x="101" y="-112" type="line"/>
      <point x="229" y="-104" type="line"/>
      <point x="282" y="-100"/>
      <point x="323" y="-58"/>
      <point x="323" y="-7" type="qcurve"/>
      <point x="323" y="355" type="line"/>
      <point x="106" y="355" type="line"/>
      <point x="106" y="477" type="line"/>
    </contour>
  </outline>
</glyph>
<glyph name="l" format="2">
  <advance width="614"/>
  <unicode hex="006C"/>
  <outline>
    <contour>
      <point x="215" y="204" type="qcurve"/>
      <point x="215" y="588" type="line"/>
      <point x="56" y="588" type="line"/>
      <point x="56" y="710" type="line"/>
      <point x="359" y="710" type="line"/>
      <point x="359" y="214" type="line"/>
      <point x="359" y="166"/>
      <point x="396" y="126"/>
      <point x="442" y="124" type="qcurve"/>
      <point x="551" y="118" type="line"/>
      <point x="546" y="-6" type="line"/>
      <point x="415" y="0" type="line"/>
      <point x="300" y="5"/>
      <point x="215" y="93"/>
    </contour>
  </outline>
</glyph>
<glyph name="p" format="2">
  <advance width="614"/>
  <unicode hex="0070"/>
  <outline>
    <contour>
      <point x="220" y="-230" type="line"/>
      <point x="75" y="-230" type="line"/>
      <point x="75" y="477" type="line"/>
      <point x="201" y="477" type="line"/>
      <point x="211" y="414" type="line"/>
      <point x="247" y="453"/>
      <point x="323" y="488"/>
      <point x="370" y="488" type="qcurve"/>
      <point x="457" y="488"/>
      <point x="570" y="357"/>
      <point x="570" y="250" type="qcurve"/>
      <point x="570" y="139"/>
      <point x="441" y="-5"/>
      <point x="344" y="-5" type="qcurve"/>
      <point x="305" y="-5"/>
      <point x="247" y="16"/>
      <point x="220" y="39" type="qcurve"/>
    </contour>
    <contour>
      <point x="420" y="239" type="qcurve"/>
      <point x="420" y="300"/>
      <point x="360" y="369"/>
      <point x="307" y="369" type="qcurve"/>
      <point x="285" y="369"/>
      <point x="244" y="354"/>
      <point x="220" y="338" type="qcurve"/>
      <point x="220" y="133" type="line"/>
      <point x="238" y="122"/>
      <point x="272" y="112"/>
      <point x="290" y="112" type="qcurve"/>
      <point x="349" y="112"/>
      <point x="420" y="182"/>
    </contour>
  </outline>
</glyph>
<glyph name="r" format="2">
  <advance width="614"/>
  <unicode hex="0072"/>
  <outline>
    <contour>
      <point x="56" y="0" type="line"/>
      <point x="56" y="122" type="line"/>
      <point x="158" y="122" type="line"/>
      <point x="158" y="355" type="line"/>
      <point x="76" y="355" type="line"/>
      <point x="76" y="477" type="line"/>
      <point x="285" y="477" type="line"/>
      <point x="293" y="345" type="line"/>
      <point x="346" y="413"/>
      <point x="421" y="471"/>
      <point x="472" y="475" type="qcurve"/>
      <point x="558" y="482" type="line"/>
      <point x="570" y="336" type="line"/>
      <point x="484" y="328" type="line"/>
      <point x="446" y="324"/>
      <point x="398" y="312"/>
      <point x="376" y="298" type="qcurve"/>
      <point x="360" y="288"/>
      <point x="325" y="257"/>
      <point x="302" y="235" type="qcurve"/>
      <point x="302" y="122" type="line"/>
      <point x="428" y="122" type="line"/>
      <point x="428" y="0" type="line"/>
    </contour>
  </outline>
</glyph>
<glyph name="w" format="2">
  <advance width="614"/>
  <unicode hex="0077"/>
  <outline>
    <contour>
      <point x="586" y="477" type="line"/>
      <point x="502" y="0" type="line"/>
      <point x="370" y="0" type="line"/>
      <point x="304" y="196" type="line"/>
      <point x="238" y="0" type="line"/>
      <point x="111" y="0" type="line"/>
      <point x="29" y="477" type="line"/>
      <point x="168" y="477" type="line"/>
      <point x="210" y="176" type="line"/>
      <point x="300" y="424" type="line"/>
      <point x="314" y="424" type="line"/>
      <point x="404" y="178" type="line"/>
      <point x="447" y="477" type="line"/>
    </contour>
  </outline>
</glyph>
<glyph name="z" format="2">
  <advance width="614"/>
  <unicode hex="007A"/>
  <outline>
    <contour>
      <point x="539" y="0" type="line"/>
      <point x="77" y="0" type="line"/>
      <point x="77" y="99" type="line"/>
      <point x="329" y="361" type="line"/>
      <point x="329" y="364" type="line"/>
      <point x="88" y="364" type="line"/>
      <point x="88" y="477" type="line"/>
      <point x="523" y="477" type="line"/>
      <point x="523" y="377" type="line"/>
      <point x="272" y="116" type="line"/>
      <point x="272" y="113" type="line"/>
      <point x="539" y="113" type="line"/>
    </contour>
  </outline>
</glyph>
<glyph name="braceleft" format="2">
  <advance width="614"/>
  <unicode hex="007B"/>
  <outline>
    <contour>
      <point x="173" y="-3" type="qcurve"/>
      <point x="173" y="22"/>
      <point x="198" y="71"/>
      <point x="226" y="99" type="qcurve"/>
      <point x="274" y="148" type="line"/>
      <point x="287" y="161"/>
      <point x="298" y="178"/>
      <point x="298" y="185" type="qcurve"/>
      <point x="298" y="200"/>
      <point x="249" y="223"/>
      <point x="188" y="239" type="qcurve"/>
      <point x="164" y="246"/>
      <point x="101" y="262"/>
      <point x="62" y="271" type="qcurve"/>
      <point x="62" y="391" type="line"/>
      <point x="101" y="400"/>
      <point x="164" y="416"/>
      <point x="188" y="422" type="qcurve"/>
      <point x="249" y="439"/>
      <point x="298" y="461"/>
      <point x="298" y="477" type="qcurve"/>
      <point x="298" y="484"/>
      <point x="287" y="500"/>
      <point x="274" y="514" type="qcurve"/>
      <point x="226" y="563" type="line"/>
      <point x="198" y="591"/>
      <point x="173" y="640"/>
      <point x="173" y="665" type="qcurve"/>
      <point x="173" y="711"/>
      <point x="240" y="760"/>
      <point x="317" y="772" type="qcurve"/>
      <point x="568" y="810" type="line"/>
      <point x="586" y="689" type="line"/>
      <point x="369" y="658" type="line"/>
      <point x="352" y="655"/>
      <point x="339" y="645"/>
      <point x="339" y="636" type="qcurve"/>
      <point x="339" y="631"/>
      <point x="350" y="614"/>
      <point x="363" y="601" type="qcurve"/>
      <point x="411" y="552" type="line"/>
      <point x="441" y="521"/>
      <point x="465" y="484"/>
      <point x="465" y="465" type="qcurve"/>
      <point x="465" y="433"/>
      <point x="408" y="394"/>
      <point x="343" y="376" type="qcurve"/>
      <point x="312" y="367"/>
      <point x="233" y="350"/>
      <point x="183" y="341" type="qcurve"/>
      <point x="183" y="321" type="line"/>
      <point x="233" y="312"/>
      <point x="312" y="294"/>
      <point x="343" y="286" type="qcurve"/>
      <point x="408" y="268"/>
      <point x="465" y="229"/>
      <point x="465" y="197" type="qcurve"/>
      <point x="465" y="178"/>
      <point x="441" y="141"/>
      <point x="411" y="110" type="qcurve"/>
      <point x="363" y="61" type="line"/>
      <point x="351" y="49"/>
      <point x="339" y="32"/>
      <point x="339" y="26" type="qcurve"/>
      <point x="339" y="17"/>
      <point x="352" y="7"/>
      <point x="369" y="4" type="qcurve"/>
      <point x="586" y="-27" type="line"/>
      <point x="568" y="-148" type="line"/>
      <point x="317" y="-110" type="line"/>
      <point x="240" y="-98"/>
      <point x="173" y="-49"/>
    </contour>
  </outline>
</glyph>
<glyph name="braceright" format="2">
  <advance width="614"/>
  <unicode hex="007D"/>
  <outline>
    <contour>
      <point x="441" y="-3" type="qcurve"/>
      <point x="441" y="-49"/>
      <point x="374" y="-98"/>
      <point x="297" y="-110" type="qcurve"/>
      <point x="46" y="-148" type="line"/>
      <point x="28" y="-27" type="line"/>
      <point x="245" y="4" type="line"/>
      <point x="262" y="7"/>
      <point x="275" y="17"/>
      <point x="275" y="26" type="qcurve"/>
      <point x="275" y="32"/>
      <point x="263" y="49"/>
      <point x="251" y="61" type="qcurve"/>
      <point x="203" y="110" type="line"/>
      <point x="173" y="141"/>
      <point x="149" y="178"/>
      <point x="149" y="197" type="qcurve"/>
      <point x="149" y="229"/>
      <point x="206" y="268"/>
      <point x="271" y="286" type="qcurve"/>
      <point x="302" y="294"/>
      <point x="381" y="312"/>
      <point x="431" y="321" type="qcurve"/>
      <point x="431" y="341" type="line"/>
      <point x="381" y="350"/>
      <point x="302" y="368"/>
      <point x="271" y="376" type="qcurve"/>
      <point x="206" y="394"/>
      <point x="149" y="433"/>
      <point x="149" y="465" type="qcurve"/>
      <point x="149" y="484"/>
      <point x="173" y="521"/>
      <point x="203" y="552" type="qcurve"/>
      <point x="251" y="601" type="line"/>
      <point x="263" y="613"/>
      <point x="275" y="630"/>
      <point x="275" y="636" type="qcurve"/>
      <point x="275" y="645"/>
      <point x="262" y="655"/>
      <point x="245" y="658" type="qcurve"/>
      <point x="28" y="689" type="line"/>
      <point x="46" y="810" type="line"/>
      <point x="297" y="772" type="line"/>
      <point x="374" y="760"/>
      <point x="441" y="711"/>
      <point x="441" y="665" type="qcurve"/>
      <point x="441" y="640"/>
      <point x="416" y="591"/>
      <point x="388" y="563" type="qcurve"/>
      <point x="340" y="514" type="line"/>
      <point x="327" y="501"/>
      <point x="316" y="484"/>
      <point x="316" y="477" type="qcurve"/>
      <point x="316" y="462"/>
      <point x="365" y="439"/>
      <point x="426" y="423" type="qcurve"/>
      <point x="450" y="416"/>
      <point x="513" y="400"/>
      <point x="552" y="391" type="qcurve"/>
      <point x="552" y="271" type="line"/>
      <point x="513" y="262"/>
      <point x="450" y="246"/>
      <point x="426" y="239" type="qcurve"/>
      <point x="365" y="223"/>
      <point x="316" y="200"/>
      <point x="316" y="185" type="qcurve"/>
      <point x="316" y="178"/>
      <point x="327" y="161"/>
      <point x="340" y="148" type="qcurve"/>
      <point x="388" y="99" type="line"/>
      <point x="416" y="71"/>
      <point x="441" y="22"/>
    </contour>
  </outline>
</glyph>
<glyph name="exclamdown" format="2">
  <advance width="614"/>
  <unicode hex="00A1"/>
  <outline>
    <contour>
      <point x="194" y="637" type="qcurve"/>
      <point x="194" y="683"/>
      <point x="252" y="725"/>
      <point x="316" y="725" type="qcurve"/>
      <point x="380" y="725"/>
      <point x="436" y="684"/>
      <point x="436" y="637" type="qcurve"/>
      <point x="436" y="591"/>
      <point x="377" y="549"/>
      <point x="314" y="549" type="qcurve"/>
      <point x="250" y="549"/>
      <point x="194" y="589"/>
    </contour>
    <contour>
      <point x="259" y="433" type="line"/>
      <point x="357" y="433" type="line"/>
      <point x="440" y="0" type="line"/>
      <point x="175" y="0" type="line"/>
    </contour>
  </outline>
</glyph>
<glyph name="cent" format="2">
  <advance width="614"/>
  <unicode hex="00A2"/>
  <outline>
    <contour>
      <point x="385" y="-142" type="line"/>
      <point x="294" y="-142" type="line"/>
      <point x="294" y="0" type="line"/>
      <point x="184" y="6"/>
      <point x="53" y="139"/>
      <point x="53" y="246" type="qcurve"/>
      <point x="53" y="340"/>
      <point x="190" y="478"/>
      <point x="294" y="488" type="qcurve"/>
      <point x="294" y="632" type="line"/>
      <point x="385" y="632" type="line"/>
      <point x="385" y="486" type="line"/>
      <point x="427" y="480"/>
      <point x="509" y="446"/>
      <point x="555" y="415" type="qcurve"/>
      <point x="488" y="312" type="line"/>
      <point x="443" y="342"/>
      <point x="376" y="368"/>
      <point x="335" y="368" type="qcurve"/>
      <point x="277" y="368"/>
      <point x="205" y="300"/>
      <point x="205" y="247" type="qcurve"/>
      <point x="205" y="190"/>
      <point x="272" y="122"/>
      <point x="327" y="122" type="qcurve"/>
      <point x="368" y="122"/>
      <point x="442" y="146"/>
      <point x="495" y="175" type="qcurve"/>
      <point x="560" y="77" type="line"/>
      <point x="511" y="46"/>
      <point x="427" y="12"/>
      <point x="385" y="5" type="qcurve"/>
    </contour>
  </outline>
</glyph>
<glyph name="section" format="2">
  <advance width="614"/>
  <unicode hex="00A7"/>
  <outline>
    <contour>
      <point x="46" y="181" type="qcurve"/>
      <point x="46" y="239"/>
      <point x="107" y="319"/>
      <point x="178" y="358" type="qcurve"/>
      <point x="136" y="384"/>
      <point x="97" y="452"/>
      <point x="97" y="501" type="qcurve"/>
      <point x="97" y="580"/>
      <point x="218" y="667"/>
      <point x="330" y="667" type="qcurve"/>
      <point x="380" y="667"/>
      <point x="475" y="656"/>
      <point x="543" y="641" type="qcurve"/>
      <point x="527" y="519" type="line"/>
      <point x="461" y="534"/>
      <point x="362" y="548"/>
      <point x="326" y="548" type="qcurve"/>
      <point x="282" y="548"/>
      <point x="241" y="530"/>
      <point x="241" y="509" type="qcurve"/>
      <point x="241" y="493"/>
      <point x="264" y="474"/>
      <point x="293" y="462" type="qcurve"/>
      <point x="416" y="412" type="line"/>
      <point x="495" y="380"/>
      <point x="569" y="301"/>
      <point x="569" y="246" type="qcurve"/>
      <point x="569" y="188"/>
      <point x="508" y="108"/>
      <point x="437" y="69" type="qcurve"/>
      <point x="479" y="43"/>
      <point x="518" y="-25"/>
      <point x="518" y="-74" type="qcurve"/>
      <point x="518" y="-153"/>
      <point x="397" y="-240"/>
      <point x="285" y="-240" type="qcurve"/>
      <point x="235" y="-240"/>
      <point x="140" y="-229"/>
      <point x="72" y="-214" type="qcurve"/>
      <point x="88" y="-92" type="line"/>
      <point x="154" y="-107"/>
      <point x="253" y="-121"/>
      <point x="289" y="-121" type="qcurve"/>
      <point x="333" y="-121"/>
      <point x="374" y="-103"/>
      <point x="374" y="-82" type="qcurve"/>
      <point x="374" y="-66"/>
      <point x="351" y="-47"/>
      <point x="322" y="-35" type="qcurve"/>
      <point x="199" y="15" type="line"/>
      <point x="120" y="47"/>
      <point x="46" y="126"/>
    </contour>
    <contour>
      <point x="191" y="214" type="qcurve"/>
      <point x="191" y="191"/>
      <point x="223" y="160"/>
      <point x="260" y="145" type="qcurve"/>
      <point x="343" y="111" type="line"/>
      <point x="385" y="139"/>
      <point x="424" y="185"/>
      <point x="424" y="213" type="qcurve"/>
      <point x="424" y="236"/>
      <point x="392" y="267"/>
      <point x="355" y="282" type="qcurve"/>
      <point x="272" y="316" type="line"/>
      <point x="230" y="288"/>
      <point x="191" y="242"/>
    </contour>
  </outline>
</glyph>
<glyph name="copyright" format="2">
  <advance width="614"/>
  <unicode hex="00A9"/>
  <outline>
    <contour>
      <point x="307" y="725" type="qcurve"/>
      <point x="438" y="725"/>
      <point x="557" y="533"/>
      <point x="557" y="328" type="qcurve"/>
      <point x="557" y="123"/>
      <point x="437" y="-70"/>
      <point x="307" y="-70" type="qcurve"/>
      <point x="177" y="-70"/>
      <point x="57" y="123"/>
      <point x="57" y="328" type="qcurve"/>
      <point x="57" y="532"/>
      <point x="177" y="725"/>
    </contour>
    <contour>
      <point x="307" y="680" type="qcurve"/>
      <point x="200" y="680"/>
      <point x="107" y="512"/>
      <point x="107" y="328" type="qcurve"/>
      <point x="107" y="144"/>
      <point x="200" y="-25"/>
      <point x="307" y="-25" type="qcurve"/>
      <point x="414" y="-25"/>
      <point x="507" y="143"/>
      <point x="507" y="328" type="qcurve"/>
      <point x="507" y="513"/>
      <point x="414" y="680"/>
    </contour>
    <contour>
      <point x="311" y="97" type="qcurve"/>
      <point x="247" y="97"/>
      <point x="176" y="218"/>
      <point x="176" y="326" type="qcurve"/>
      <point x="176" y="429"/>
      <point x="256" y="558"/>
      <point x="320" y="558" type="qcurve"/>
      <point x="364" y="558"/>
      <point x="419" y="509"/>
      <point x="448" y="448" type="qcurve"/>
      <point x="386" y="408" type="line"/>
      <point x="366" y="449"/>
      <point x="340" y="478"/>
      <point x="320" y="478" type="qcurve"/>
      <point x="293" y="478"/>
      <point x="259" y="396"/>
      <point x="259" y="328" type="qcurve"/>
      <point x="259" y="256"/>
      <point x="290" y="177"/>
      <point x="317" y="177" type="qcurve"/>
      <point x="341" y="177"/>
      <point x="372" y="201"/>
      <point x="388" y="228" type="qcurve"/>
      <point x="445" y="189" type="line"/>
      <point x="418" y="141"/>
      <point x="357" y="97"/>
    </contour>
  </outline>
</glyph>
<glyph name="ordfeminine" format="2">
  <advance width="614"/>
  <unicode hex="00AA"/>
  <outline>
    <contour>
      <point x="468" y="573" type="qcurve"/>
      <point x="468" y="442" type="line"/>
      <point x="468" y="424"/>
      <point x="477" y="411"/>
      <point x="490" y="410" type="qcurve"/>
      <point x="523" y="407" type="line"/>
      <point x="515" y="329" type="line"/>
      <point x="455" y="332" type="line"/>
      <point x="420" y="333"/>
      <point x="378" y="352"/>
      <point x="369" y="370" type="qcurve"/>
      <point x="360" y="370" type="line"/>
      <point x="332" y="348"/>
      <point x="257" y="325"/>
      <point x="213" y="325" type="qcurve"/>
      <point x="160" y="325"/>
      <point x="98" y="380"/>
      <point x="98" y="429" type="qcurve"/>
      <point x="98" y="486"/>
      <point x="160" y="539"/>
      <point x="232" y="545" type="qcurve"/>
      <point x="363" y="556" type="line"/>
      <point x="363" y="571" type="line"/>
      <point x="363" y="591"/>
      <point x="328" y="604"/>
      <point x="282" y="604" type="qcurve"/>
      <point x="260" y="604"/>
      <point x="188" y="598"/>
      <point x="144" y="593" type="qcurve"/>
      <point x="135" y="681" type="line"/>
      <point x="179" y="686"/>
      <point x="257" y="692"/>
      <point x="287" y="692" type="qcurve"/>
      <point x="384" y="692"/>
      <point x="468" y="637"/>
    </contour>
    <contour>
      <point x="206" y="436" type="qcurve"/>
      <point x="206" y="422"/>
      <point x="227" y="407"/>
      <point x="245" y="407" type="qcurve"/>
      <point x="274" y="407"/>
      <point x="332" y="429"/>
      <point x="363" y="451" type="qcurve"/>
      <point x="363" y="491" type="line"/>
      <point x="260" y="478" type="line"/>
      <point x="230" y="475"/>
      <point x="206" y="456"/>
    </contour>
    <contour>
      <point x="119" y="161" type="line"/>
      <point x="119" y="241" type="line"/>
      <point x="504" y="241" type="line"/>
      <point x="504" y="161" type="line"/>
    </contour>
  </outline>
</glyph>
<glyph name="guillemetleft" format="2">
  <advance width="614"/>
  <unicode hex="00AB"/>
  <outline>
    <contour>
      <point x="279" y="114" type="line"/>
      <point x="279" y="-15" type="line"/>
      <point x="50" y="181" type="line"/>
      <point x="50" y="297" type="line"/>
      <point x="279" y="492" type="line"/>
      <point x="279" y="366" type="line"/>
      <point x="172" y="241" type="line"/>
    </contour>
    <contour>
      <point x="554" y="114" type="line"/>
      <point x="554" y="-15" type="line"/>
      <point x="324" y="181" type="line"/>
      <point x="324" y="297" type="line"/>
      <point x="554" y="492" type="line"/>
      <point x="554" y="366" type="line"/>
      <point x="447" y="241" type="line"/>
    </contour>
  </outline>
</glyph>
<glyph name="registered" format="2">
  <advance width="614"/>
  <unicode hex="00AE"/>
  <outline>
    <contour>
      <point x="307" y="208" type="qcurve"/>
      <point x="198" y="208"/>
      <point x="68" y="348"/>
      <point x="68" y="465" type="qcurve"/>
      <point x="68" y="584"/>
      <point x="197" y="725"/>
      <point x="307" y="725" type="qcurve"/>
      <point x="417" y="725"/>
      <point x="546" y="586"/>
      <point x="546" y="467" type="qcurve"/>
      <point x="546" y="350"/>
      <point x="415" y="208"/>
    </contour>
    <contour>
      <point x="108" y="467" type="qcurve"/>
      <point x="108" y="364"/>
      <point x="216" y="243"/>
      <point x="307" y="243" type="qcurve"/>
      <point x="400" y="243"/>
      <point x="507" y="362"/>
      <point x="507" y="465" type="qcurve"/>
      <point x="507" y="569"/>
      <point x="400" y="689"/>
      <point x="307" y="689" type="qcurve"/>
      <point x="215" y="689"/>
      <point x="108" y="570"/>
    </contour>
    <contour>
      <point x="372" y="414" type="qcurve"/>
      <point x="426" y="345" type="line"/>
      <point x="426" y="343" type="line"/>
      <point x="350" y="343" type="line"/>
      <point x="310" y="405" type="line"/>
      <point x="301" y="420"/>
      <point x="288" y="433"/>
      <point x="279" y="436" type="qcurve"/>
      <point x="279" y="343" type="line"/>
      <point x="217" y="343" type="line"/>
      <point x="217" y="604" type="line"/>
      <point x="317" y="604" type="line"/>
      <point x="362" y="604"/>
      <point x="407" y="566"/>
      <point x="407" y="528" type="qcurve"/>
      <point x="407" y="496"/>
      <point x="369" y="459"/>
      <point x="330" y="452" type="qcurve"/>
      <point x="330" y="450" type="line"/>
      <point x="344" y="442"/>
      <point x="363" y="426"/>
    </contour>
    <contour>
      <point x="345" y="523" type="qcurve"/>
      <point x="345" y="539"/>
      <point x="327" y="555"/>
      <point x="308" y="555" type="qcurve"/>
      <point x="279" y="555" type="line"/>
      <point x="279" y="482" type="line"/>
      <point x="284" y="483" type="line"/>
      <point x="317" y="487"/>
      <point x="345" y="505"/>
    </contour>
  </outline>
</glyph>
<glyph name="mu" format="2">
  <advance width="614"/>
  <unicode hex="00B5"/>
  <outline>
    <contour>
      <point x="250" y="-11" type="qcurve"/>
      <point x="235" y="-11"/>
      <point x="206" y="-1"/>
      <point x="193" y="8" type="qcurve"/>
      <point x="227" y="-211" type="line"/>
      <point x="227" y="-230" type="line"/>
      <point x="73" y="-230" type="line"/>
      <point x="73" y="477" type="line"/>
      <point x="218" y="477" type="line"/>
      <point x="218" y="177" type="line"/>
      <point x="218" y="150"/>
      <point x="241" y="126"/>
      <point x="265" y="126" type="qcurve"/>
      <point x="286" y="126"/>
      <point x="346" y="160"/>
      <point x="391" y="197" type="qcurve"/>
      <point x="391" y="477" type="line"/>
      <point x="536" y="477" type="line"/>
      <point x="536" y="0" type="line"/>
      <point x="409" y="0" type="line"/>
      <point x="402" y="79" type="line"/>
      <point x="345" y="26"/>
      <point x="282" y="-11"/>
    </contour>
  </outline>
</glyph>
<glyph name="paragraph" format="2">
  <advance width="614"/>
  <unicode hex="00B6"/>
  <outline>
    <contour>
      <point x="297" y="593" type="line"/>
      <point x="297" y="257" type="line"/>
      <point x="293" y="257" type="line"/>
      <point x="181" y="257"/>
      <point x="52" y="377"/>
      <point x="52" y="481" type="qcurve"/>
      <point x="52" y="593"/>
      <point x="186" y="705"/>
      <point x="320" y="705" type="qcurve"/>
      <point x="539" y="705" type="line"/>
      <point x="539" y="0" type="line"/>
      <point x="394" y="0" type="line"/>
      <point x="394" y="593" type="line"/>
    </contour>
  </outline>
</glyph>
<glyph name="ordmasculine" format="2">
  <advance width="614"/>
  <unicode hex="00BA"/>
  <outline>
    <contour>
      <point x="501" y="509" type="qcurve"/>
      <point x="501" y="429"/>
      <point x="390" y="325"/>
      <point x="304" y="325" type="qcurve"/>
      <point x="217" y="325"/>
      <point x="109" y="427"/>
      <point x="109" y="508" type="qcurve"/>
      <point x="109" y="588"/>
      <point x="220" y="692"/>
      <point x="307" y="692" type="qcurve"/>
      <point x="393" y="692"/>
      <point x="501" y="590"/>
    </contour>
    <contour>
      <point x="223" y="509" type="qcurve"/>
      <point x="223" y="463"/>
      <point x="264" y="417"/>
      <point x="305" y="417" type="qcurve"/>
      <point x="346" y="417"/>
      <point x="388" y="463"/>
      <point x="388" y="508" type="qcurve"/>
      <point x="388" y="553"/>
      <point x="346" y="600"/>
      <point x="305" y="600" type="qcurve"/>
      <point x="265" y="600"/>
      <point x="223" y="554"/>
    </contour>
    <contour>
      <point x="120" y="161" type="line"/>
      <point x="120" y="241" type="line"/>
      <point x="505" y="241" type="line"/>
      <point x="505" y="161" type="line"/>
    </contour>
  </outline>
</glyph>
<glyph name="guillemetright" format="2">
  <advance width="614"/>
  <unicode hex="00BB"/>
  <outline>
    <contour>
      <point x="335" y="363" type="line"/>
      <point x="335" y="492" type="line"/>
      <point x="564" y="296" type="line"/>
      <point x="564" y="180" type="line"/>
      <point x="335" y="-15" type="line"/>
      <point x="335" y="111" type="line"/>
      <point x="442" y="236" type="line"/>
    </contour>
    <contour>
      <point x="60" y="363" type="line"/>
      <point x="60" y="492" type="line"/>
      <point x="290" y="296" type="line"/>
      <point x="290" y="180" type="line"/>
      <point x="60" y="-15" type="line"/>
      <point x="60" y="111" type="line"/>
      <point x="167" y="236" type="line"/>
    </contour>
  </outline>
</glyph>
<glyph name="AE" format="2">
  <advance width="614"/>
  <unicode hex="00C6"/>
  <outline>
    <contour>
      <point x="161" y="142" type="line"/>
      <point x="123" y="0" type="line"/>
      <point x="-1" y="0" type="line"/>
      <point x="190" y="655" type="line"/>
      <point x="574" y="655" type="line"/>
      <point x="574" y="543" type="line"/>
      <point x="424" y="543" type="line"/>
      <point x="424" y="384" type="line"/>
      <point x="560" y="384" type="line"/>
      <point x="560" y="276" type="line"/>
      <point x="424" y="276" type="line"/>
      <point x="424" y="112" type="line"/>
      <point x="574" y="112" type="line"/>
      <point x="574" y="0" type="line"/>
      <point x="289" y="0" type="line"/>
      <point x="289" y="142" type="line"/>
    </contour>
    <contour>
      <point x="270" y="543" type="line"/>
      <point x="189" y="245" type="line"/>
      <point x="289" y="245" type="line"/>
      <point x="289" y="543" type="line"/>
    </contour>
  </outline>
</glyph>
<glyph name="Ccedilla" format="2">
  <advance width="614"/>
  <unicode hex="00C7"/>
  <outline>
    <contour>
      <point x="500" y="-150" type="qcurve"/>
      <point x="500" y="-192"/>
      <point x="454" y="-235"/>
      <point x="400" y="-248" type="qcurve"/>
      <point x="372" y="-255"/>
      <point x="296" y="-266"/>
      <point x="246" y="-270" type="qcurve"/>
      <point x="227" y="-201" type="line"/>
      <point x="336" y="-192"/>
      <point x="409" y="-172"/>
      <point x="409" y="-152" type="qcurve"/>
      <point x="409" y="-136"/>
      <point x="352" y="-120"/>
      <point x="282" y="-117" type="qcurve"/>
      <point x="276" y="-107" type="line"/>
      <point x="307" y="-14" type="line"/>
      <point x="184" y="-5"/>
      <point x="50" y="172"/>
      <point x="50" y="326" type="qcurve"/>
      <point x="50" y="477"/>
      <point x="222" y="670"/>
      <point x="359" y="670" type="qcurve"/>
      <point x="414" y="670"/>
      <point x="513" y="633"/>
      <point x="573" y="590" type="qcurve"/>
      <point x="510" y="489" type="line"/>
      <point x="463" y="522"/>
      <point x="397" y="550"/>
      <point x="362" y="550" type="qcurve"/>
      <point x="289" y="550"/>
      <point x="197" y="430"/>
      <point x="197" y="328" type="qcurve"/>
      <point x="197" y="221"/>
      <point x="281" y="105"/>
      <point x="355" y="105" type="qcurve"/>
      <point x="387" y="105"/>
      <point x="468" y="137"/>
      <point x="517" y="169" type="qcurve"/>
      <point x="581" y="69" type="line"/>
      <point x="528" y="33"/>
      <point x="422" y="-8"/>
      <point x="370" y="-13" type="qcurve"/>
      <point x="355" y="-62" type="line"/>
      <point x="431" y="-71"/>
      <point x="500" y="-111"/>
    </contour>
  </outline>
</glyph>
<glyph name="Eth" format="2">
  <advance width="614"/>
  <unicode hex="00D0"/>
  <outline>
    <contour>
      <point x="98" y="292" type="line"/>
      <point x="21" y="292" type="line"/>
      <point x="21" y="368" type="line"/>
      <point x="98" y="368" type="line"/>
      <point x="98" y="655" type="line"/>
      <point x="199" y="655" type="line"/>
      <point x="379" y="655"/>
      <point x="568" y="490"/>
      <point x="568" y="333" type="qcurve"/>
      <point x="568" y="171"/>
      <point x="369" y="0"/>
      <point x="179" y="0" type="qcurve"/>
      <point x="98" y="0" type="line"/>
    </contour>
    <contour>
      <point x="325" y="368" type="line"/>
      <point x="325" y="292" type="line"/>
      <point x="237" y="292" type="line"/>
      <point x="237" y="118" type="line"/>
      <point x="335" y="128"/>
      <point x="426" y="231"/>
      <point x="426" y="331" type="qcurve"/>
      <point x="426" y="428"/>
      <point x="330" y="533"/>
      <point x="237" y="539" type="qcurve"/>
      <point x="237" y="368" type="line"/>
    </contour>
  </outline>
</glyph>
<glyph name="Oslash" format="2">
  <advance width="614"/>
  <unicode hex="00D8"/>
  <outline>
    <contour>
      <point x="564" y="328" type="qcurve"/>
      <point x="564" y="160"/>
      <point x="431" y="-15"/>
      <point x="305" y="-15" type="qcurve"/>
      <point x="272" y="-15"/>
      <point x="212" y="1"/>
      <point x="186" y="16" type="qcurve"/>
      <point x="141" y="-71" type="line"/>
      <point x="33" y="-71" type="line"/>
      <point x="119" y="77" type="line"/>
      <point x="85" y="122"/>
      <point x="50" y="248"/>
      <point x="50" y="326" type="qcurve"/>
      <point x="50" y="494"/>
      <point x="183" y="670"/>
      <point x="309" y="670" type="qcurve"/>
      <point x="340" y="670"/>
      <point x="400" y="654"/>
      <point x="427" y="638" type="qcurve"/>
      <point x="471" y="726" type="line"/>
      <point x="581" y="726" type="line"/>
      <point x="493" y="578" type="line"/>
      <point x="528" y="533"/>
      <point x="564" y="406"/>
    </contour>
    <contour>
      <point x="307" y="550" type="qcurve"/>
      <point x="248" y="550"/>
      <point x="197" y="444"/>
      <point x="197" y="328" type="qcurve"/>
      <point x="197" y="205"/>
      <point x="244" y="105"/>
      <point x="307" y="105" type="qcurve"/>
      <point x="366" y="105"/>
      <point x="417" y="210"/>
      <point x="417" y="326" type="qcurve"/>
      <point x="417" y="448"/>
      <point x="369" y="550"/>
    </contour>
  </outline>
</glyph>
<glyph name="Thorn" format="2">
  <advance width="614"/>
  <unicode hex="00DE"/>
  <outline>
    <contour>
      <point x="78" y="0" type="line"/>
      <point x="78" y="655" type="line"/>
      <point x="223" y="655" type="line"/>
      <point x="223" y="528" type="line"/>
      <point x="329" y="528" type="line"/>
      <point x="445" y="528"/>
      <point x="576" y="422"/>
      <point x="576" y="329" type="qcurve"/>
      <point x="576" y="235"/>
      <point x="440" y="126"/>
      <point x="324" y="126" type="qcurve"/>
      <point x="223" y="126" type="line"/>
      <point x="223" y="0" type="line"/>
    </contour>
    <contour>
      <point x="429" y="327" type="qcurve"/>
      <point x="429" y="367"/>
      <point x="384" y="408"/>
      <point x="339" y="408" type="qcurve"/>
      <point x="223" y="408" type="line"/>
      <point x="223" y="243" type="line"/>
      <point x="334" y="243" type="line"/>
      <point x="381" y="243"/>
      <point x="429" y="286"/>
    </contour>
  </outline>
</glyph>
<glyph name="oslash" format="2">
  <advance width="614"/>
  <unicode hex="00F8"/>
  <outline>
    <contour>
      <point x="567" y="239" type="qcurve"/>
      <point x="567" y="128"/>
      <point x="419" y="-15"/>
      <point x="305" y="-15" type="qcurve"/>
      <point x="279" y="-15"/>
      <point x="226" y="-3"/>
      <point x="201" y="9" type="qcurve"/>
      <point x="152" y="-71" type="line"/>
      <point x="21" y="-71" type="line"/>
      <point x="124" y="64" type="line"/>
      <point x="87" y="100"/>
      <point x="47" y="191"/>
      <point x="47" y="238" type="qcurve"/>
      <point x="47" y="349"/>
      <point x="195" y="492"/>
      <point x="309" y="492" type="qcurve"/>
      <point x="335" y="492"/>
      <point x="387" y="480"/>
      <point x="413" y="468" type="qcurve"/>
      <point x="461" y="548" type="line"/>
      <point x="593" y="548" type="line"/>
      <point x="491" y="412" type="line"/>
      <point x="528" y="375"/>
      <point x="567" y="286"/>
    </contour>
    <contour>
      <point x="307" y="372" type="qcurve"/>
      <point x="253" y="372"/>
      <point x="197" y="304"/>
      <point x="197" y="239" type="qcurve"/>
      <point x="197" y="170"/>
      <point x="250" y="105"/>
      <point x="307" y="105" type="qcurve"/>
      <point x="361" y="105"/>
      <point x="417" y="173"/>
      <point x="417" y="238" type="qcurve"/>
      <point x="417" y="307"/>
      <point x="364" y="372"/>
    </contour>
  </outline>
</glyph>
<glyph name="thorn" format="2">
  <advance width="614"/>
  <unicode hex="00FE"/>
  <outline>
    <contour>
      <point x="220" y="-230" type="line"/>
      <point x="75" y="-230" type="line"/>
      <point x="75" y="710" type="line"/>
      <point x="220" y="710" type="line"/>
      <point x="220" y="423" type="line"/>
      <point x="254" y="457"/>
      <point x="326" y="488"/>
      <point x="370" y="488" type="qcurve"/>
      <point x="457" y="488"/>
      <point x="570" y="357"/>
      <point x="570" y="250" type="qcurve"/>
      <point x="570" y="139"/>
      <point x="441" y="-5"/>
      <point x="344" y="-5" type="qcurve"/>
      <point x="305" y="-5"/>
      <point x="247" y="16"/>
      <point x="220" y="39" type="qcurve"/>
    </contour>
    <contour>
      <point x="420" y="239" type="qcurve"/>
      <point x="420" y="300"/>
      <point x="360" y="369"/>
      <point x="307" y="369" type="qcurve"/>
      <point x="285" y="369"/>
      <point x="244" y="354"/>
      <point x="220" y="338" type="qcurve"/>
      <point x="220" y="133" type="line"/>
      <point x="238" y="122"/>
      <point x="272" y="112"/>
      <point x="290" y="112" type="qcurve"/>
      <point x="349" y="112"/>
      <point x="420" y="182"/>
    </contour>
  </outline>
</glyph>
<glyph name="aogonek" format="2">
  <advance width="614"/>
  <unicode hex="0105"/>
  <outline>
    <contour>
      <point x="341" y="-158" type="qcurve"/>
      <point x="341" y="-131"/>
      <point x="389" y="-52"/>
      <point x="443" y="9" type="qcurve"/>
      <point x="424" y="15"/>
      <point x="398" y="36"/>
      <point x="390" y="51" type="qcurve"/>
      <point x="378" y="51" type="line"/>
      <point x="340" y="21"/>
      <point x="245" y="-11"/>
      <point x="191" y="-11" type="qcurve"/>
      <point x="123" y="-11"/>
      <point x="44" y="64"/>
      <point x="44" y="131" type="qcurve"/>
      <point x="44" y="206"/>
      <point x="123" y="275"/>
      <point x="217" y="285" type="qcurve"/>
      <point x="382" y="301" type="line"/>
      <point x="382" y="324" type="line"/>
      <point x="382" y="356"/>
      <point x="340" y="377"/>
      <point x="285" y="377" type="qcurve"/>
      <point x="259" y="377"/>
      <point x="167" y="369"/>
      <point x="107" y="361" type="qcurve"/>
      <point x="94" y="475" type="line"/>
      <point x="152" y="482"/>
      <point x="254" y="490"/>
      <point x="292" y="490" type="qcurve"/>
      <point x="413" y="490"/>
      <point x="519" y="415"/>
      <point x="519" y="327" type="qcurve"/>
      <point x="519" y="149" type="line"/>
      <point x="519" y="123"/>
      <point x="531" y="106"/>
      <point x="549" y="105" type="qcurve"/>
      <point x="594" y="101" type="line"/>
      <point x="582" y="-6" type="line"/>
      <point x="555" y="-5"/>
      <point x="521" y="-3"/>
      <point x="501" y="-1" type="qcurve"/>
      <point x="472" y="-43"/>
      <point x="445" y="-92"/>
      <point x="445" y="-106" type="qcurve"/>
      <point x="445" y="-122"/>
      <point x="463" y="-136"/>
      <point x="486" y="-137" type="qcurve"/>
      <point x="541" y="-141" type="line"/>
      <point x="531" y="-234" type="line"/>
      <point x="434" y="-230" type="line"/>
      <point x="387" y="-228"/>
      <point x="341" y="-192"/>
    </contour>
    <contour>
      <point x="184" y="141" type="qcurve"/>
      <point x="184" y="119"/>
      <point x="211" y="94"/>
      <point x="235" y="94" type="qcurve"/>
      <point x="268" y="94"/>
      <point x="340" y="123"/>
      <point x="382" y="153" type="qcurve"/>
      <point x="382" y="217" type="line"/>
      <point x="255" y="200" type="line"/>
      <point x="216" y="195"/>
      <point x="184" y="169"/>
    </contour>
  </outline>
</glyph>
<glyph name="Eogonek" format="2">
  <advance width="614"/>
  <unicode hex="0118"/>
  <outline>
    <contour>
      <point x="346" y="-158" type="qcurve"/>
      <point x="346" y="-132"/>
      <point x="391" y="-57"/>
      <point x="441" y="0" type="qcurve"/>
      <point x="87" y="0" type="line"/>
      <point x="87" y="655" type="line"/>
      <point x="541" y="655" type="line"/>
      <point x="541" y="535" type="line"/>
      <point x="232" y="535" type="line"/>
      <point x="232" y="390" type="line"/>
      <point x="509" y="390" type="line"/>
      <point x="509" y="270" type="line"/>
      <point x="232" y="270" type="line"/>
      <point x="232" y="120" type="line"/>
      <point x="542" y="120" type="line"/>
      <point x="542" y="0" type="line"/>
      <point x="507" y="0" type="line"/>
      <point x="477" y="-42"/>
      <point x="450" y="-92"/>
      <point x="450" y="-106" type="qcurve"/>
      <point x="450" y="-122"/>
      <point x="468" y="-136"/>
      <point x="491" y="-137" type="qcurve"/>
      <point x="546" y="-141" type="line"/>
      <point x="536" y="-234" type="line"/>
      <point x="439" y="-230" type="line"/>
      <point x="392" y="-228"/>
      <point x="346" y="-192"/>
    </contour>
  </outline>
</glyph>
<glyph name="hbar" format="2">
  <advance width="614"/>
  <unicode hex="0127"/>
  <outline>
    <contour>
      <point x="362" y="592" type="line"/>
      <point x="362" y="516" type="line"/>
      <point x="234" y="516" type="line"/>
      <point x="234" y="345" type="line"/>
      <point x="288" y="390"/>
      <point x="365" y="428"/>
      <point x="404" y="428" type="qcurve"/>
      <point x="474" y="428"/>
      <point x="541" y="349"/>
      <point x="541" y="267" type="qcurve"/>
      <point x="541" y="0" type="line"/>
      <point x="396" y="0" type="line"/>
      <point x="396" y="240" type="line"/>
      <point x="396" y="267"/>
      <point x="373" y="291"/>
      <point x="349" y="291" type="qcurve"/>
      <point x="332" y="291"/>
      <point x="283" y="261"/>
      <point x="234" y="220" type="qcurve"/>
      <point x="234" y="0" type="line"/>
      <point x="89" y="0" type="line"/>
      <point x="89" y="516" type="line"/>
      <point x="12" y="516" type="line"/>
      <point x="12" y="592" type="line"/>
      <point x="89" y="592" type="line"/>
      <point x="89" y="710" type="line"/>
      <point x="234" y="710" type="line"/>
      <point x="234" y="592" type="line"/>
    </contour>
  </outline>
</glyph>
<glyph name="Iogonek" format="2">
  <advance width="614"/>
  <unicode hex="012E"/>
  <outline>
    <contour>
      <point x="113" y="0" type="line"/>
      <point x="113" y="80" type="line"/>
      <point x="236" y="105" type="line"/>
      <point x="236" y="550" type="line"/>
      <point x="113" y="575" type="line"/>
      <point x="113" y="655" type="line"/>
      <point x="501" y="655" type="line"/>
      <point x="501" y="575" type="line"/>
      <point x="380" y="550" type="line"/>
      <point x="380" y="105" type="line"/>
      <point x="501" y="80" type="line"/>
      <point x="501" y="0" type="line"/>
      <point x="347" y="0" type="line"/>
      <point x="317" y="-42"/>
      <point x="290" y="-92"/>
      <point x="290" y="-106" type="qcurve"/>
      <point x="290" y="-122"/>
      <point x="308" y="-136"/>
      <point x="331" y="-137" type="qcurve"/>
      <point x="386" y="-141" type="line"/>
      <point x="376" y="-234" type="line"/>
      <point x="279" y="-230" type="line"/>
      <point x="232" y="-228"/>
      <point x="186" y="-192"/>
      <point x="186" y="-158" type="qcurve"/>
      <point x="186" y="-132"/>
      <point x="231" y="-57"/>
      <point x="281" y="0" type="qcurve"/>
    </contour>
  </outline>
</glyph>
<glyph name="iogonek" format="2">
  <advance width="614"/>
  <unicode hex="012F"/>
  <outline>
    <contour>
      <point x="424" y="664" type="qcurve"/>
      <point x="424" y="624"/>
      <point x="368" y="578"/>
      <point x="319" y="578" type="qcurve"/>
      <point x="270" y="578"/>
      <point x="216" y="623"/>
      <point x="216" y="664" type="qcurve"/>
      <point x="216" y="703"/>
      <point x="273" y="751"/>
      <point x="320" y="751" type="qcurve"/>
      <point x="371" y="751"/>
      <point x="424" y="706"/>
    </contour>
    <contour>
      <point x="93" y="0" type="line"/>
      <point x="93" y="122" type="line"/>
      <point x="249" y="122" type="line"/>
      <point x="249" y="355" type="line"/>
      <point x="113" y="355" type="line"/>
      <point x="113" y="477" type="line"/>
      <point x="394" y="477" type="line"/>
      <point x="394" y="122" type="line"/>
      <point x="552" y="122" type="line"/>
      <point x="552" y="0" type="line"/>
      <point x="362" y="0" type="line"/>
      <point x="332" y="-42"/>
      <point x="305" y="-92"/>
      <point x="305" y="-106" type="qcurve"/>
      <point x="305" y="-122"/>
      <point x="323" y="-136"/>
      <point x="346" y="-137" type="qcurve"/>
      <point x="401" y="-141" type="line"/>
      <point x="391" y="-234" type="line"/>
      <point x="294" y="-230" type="line"/>
      <point x="247" y="-228"/>
      <point x="201" y="-192"/>
      <point x="201" y="-158" type="qcurve"/>
      <point x="201" y="-132"/>
      <point x="246" y="-57"/>
      <point x="296" y="0" type="qcurve"/>
    </contour>
  </outline>
</glyph>
<glyph name="dotlessi" format="2">
  <advance width="614"/>
  <unicode hex="0131"/>
  <outline>
    <contour>
      <point x="93" y="0" type="line"/>
      <point x="93" y="122" type="line"/>
      <point x="249" y="122" type="line"/>
      <point x="249" y="355" type="line"/>
      <point x="113" y="355" type="line"/>
      <point x="113" y="477" type="line"/>
      <point x="394" y="477" type="line"/>
      <point x="394" y="122" type="line"/>
      <point x="552" y="122" type="line"/>
      <point x="552" y="0" type="line"/>
    </contour>
  </outline>
</glyph>
<glyph name="lslash" format="2">
  <advance width="614"/>
  <unicode hex="0142"/>
  <outline>
    <contour>
      <point x="215" y="277" type="line"/>
      <point x="78" y="189" type="line"/>
      <point x="78" y="292" type="line"/>
      <point x="215" y="380" type="line"/>
      <point x="215" y="588" type="line"/>
      <point x="56" y="588" type="line"/>
      <point x="56" y="710" type="line"/>
      <point x="359" y="710" type="line"/>
      <point x="359" y="453" type="line"/>
      <point x="529" y="562" type="line"/>
      <point x="529" y="459" type="line"/>
      <point x="359" y="350" type="line"/>
      <point x="359" y="214" type="line"/>
      <point x="359" y="166"/>
      <point x="396" y="126"/>
      <point x="442" y="124" type="qcurve"/>
      <point x="551" y="118" type="line"/>
      <point x="546" y="-6" type="line"/>
      <point x="415" y="0" type="line"/>
      <point x="300" y="5"/>
      <point x="215" y="93"/>
      <point x="215" y="204" type="qcurve"/>
    </contour>
  </outline>
</glyph>
<glyph name="Eng" format="2">
  <advance width="614"/>
  <unicode hex="014A"/>
  <outline>
    <contour>
      <point x="200" y="407" type="line"/>
      <point x="206" y="0" type="line"/>
      <point x="74" y="0" type="line"/>
      <point x="74" y="655" type="line"/>
      <point x="213" y="655" type="line"/>
      <point x="413" y="252" type="line"/>
      <point x="408" y="655" type="line"/>
      <point x="540" y="655" type="line"/>
      <point x="540" y="6" type="line"/>
      <point x="540" y="-120"/>
      <point x="441" y="-223"/>
      <point x="312" y="-230" type="qcurve"/>
      <point x="198" y="-236" type="line"/>
      <point x="193" y="-127" type="line"/>
      <point x="301" y="-119" type="line"/>
      <point x="356" y="-115"/>
      <point x="410" y="-70"/>
      <point x="415" y="-26" type="qcurve"/>
    </contour>
  </outline>
</glyph>
<glyph name="OE" format="2">
  <advance width="614"/>
  <unicode hex="0152"/>
  <outline>
    <contour>
      <point x="574" y="0" type="line"/>
      <point x="306" y="0" type="line"/>
      <point x="170" y="0"/>
      <point x="27" y="165"/>
      <point x="27" y="322" type="qcurve"/>
      <point x="27" y="484"/>
      <point x="180" y="655"/>
      <point x="326" y="655" type="qcurve"/>
      <point x="574" y="655" type="line"/>
      <point x="574" y="543" type="line"/>
      <point x="424" y="543" type="line"/>
      <point x="424" y="384" type="line"/>
      <point x="560" y="384" type="line"/>
      <point x="560" y="276" type="line"/>
      <point x="424" y="276" type="line"/>
      <point x="424" y="112" type="line"/>
      <point x="574" y="112" type="line"/>
    </contour>
    <contour>
      <point x="164" y="324" type="qcurve"/>
      <point x="164" y="222"/>
      <point x="211" y="115"/>
      <point x="258" y="112" type="qcurve"/>
      <point x="289" y="110" type="line"/>
      <point x="289" y="544" type="line"/>
      <point x="275" y="543" type="line"/>
      <point x="217" y="538"/>
      <point x="164" y="433"/>
    </contour>
  </outline>
</glyph>
<glyph name="oe" format="2">
  <advance width="614"/>
  <unicode hex="0153"/>
  <outline>
    <contour>
      <point x="301" y="57" type="qcurve"/>
      <point x="280" y="23"/>
      <point x="225" y="-13"/>
      <point x="193" y="-13" type="qcurve"/>
      <point x="114" y="-13"/>
      <point x="14" y="126"/>
      <point x="14" y="238" type="qcurve"/>
      <point x="14" y="348"/>
      <point x="117" y="490"/>
      <point x="197" y="490" type="qcurve"/>
      <point x="232" y="490"/>
      <point x="290" y="446"/>
      <point x="310" y="406" type="qcurve"/>
      <point x="334" y="446"/>
      <point x="400" y="490"/>
      <point x="437" y="490" type="qcurve"/>
      <point x="512" y="490"/>
      <point x="602" y="360"/>
      <point x="602" y="254" type="qcurve"/>
      <point x="602" y="238"/>
      <point x="599" y="206"/>
      <point x="596" y="192" type="qcurve"/>
      <point x="363" y="192" type="line"/>
      <point x="369" y="142"/>
      <point x="416" y="100"/>
      <point x="474" y="96" type="qcurve"/>
      <point x="520" y="93" type="line"/>
      <point x="515" y="-13" type="line"/>
      <point x="440" y="-11" type="line"/>
      <point x="390" y="-9"/>
      <point x="321" y="24"/>
    </contour>
    <contour>
      <point x="157" y="239" type="qcurve"/>
      <point x="157" y="168"/>
      <point x="181" y="98"/>
      <point x="204" y="98" type="qcurve"/>
      <point x="224" y="98"/>
      <point x="244" y="168"/>
      <point x="244" y="238" type="qcurve"/>
      <point x="244" y="308"/>
      <point x="224" y="379"/>
      <point x="204" y="379" type="qcurve"/>
      <point x="181" y="379"/>
      <point x="157" y="307"/>
    </contour>
    <contour>
      <point x="426" y="386" type="qcurve"/>
      <point x="402" y="386"/>
      <point x="368" y="335"/>
      <point x="362" y="289" type="qcurve"/>
      <point x="475" y="289" type="line"/>
      <point x="473" y="335"/>
      <point x="448" y="386"/>
    </contour>
  </outline>
</glyph>
<glyph name="Schwa" format="2">
  <advance width="614"/>
  <unicode hex="018F"/>
  <outline>
    <contour>
      <point x="253" y="665" type="qcurve"/>
      <point x="412" y="665"/>
      <point x="564" y="503"/>
      <point x="564" y="330" type="qcurve"/>
      <point x="564" y="158"/>
      <point x="431" y="-15"/>
      <point x="299" y="-15" type="qcurve"/>
      <point x="173" y="-15"/>
      <point x="50" y="146"/>
      <point x="50" y="311" type="qcurve"/>
      <point x="50" y="325"/>
      <point x="53" y="364"/>
      <point x="56" y="389" type="qcurve"/>
      <point x="416" y="389" type="line"/>
      <point x="407" y="473"/>
      <point x="330" y="545"/>
      <point x="244" y="545" type="qcurve"/>
      <point x="214" y="545"/>
      <point x="169" y="541"/>
      <point x="146" y="536" type="qcurve"/>
      <point x="134" y="655" type="line"/>
      <point x="165" y="660"/>
      <point x="220" y="665"/>
    </contour>
    <contour>
      <point x="298" y="105" type="qcurve"/>
      <point x="360" y="105"/>
      <point x="413" y="185"/>
      <point x="418" y="278" type="qcurve"/>
      <point x="195" y="278" type="line"/>
      <point x="198" y="190"/>
      <point x="248" y="105"/>
    </contour>
  </outline>
</glyph>
<glyph name="Ohorn" format="2">
  <advance width="614"/>
  <unicode hex="01A0"/>
  <outline>
    <contour>
      <point x="50" y="318" type="qcurve"/>
      <point x="50" y="483"/>
      <point x="183" y="655"/>
      <point x="309" y="655" type="qcurve"/>
      <point x="410" y="655" type="line"/>
      <point x="461" y="655"/>
      <point x="503" y="703"/>
      <point x="506" y="768" type="qcurve"/>
      <point x="634" y="768" type="line"/>
      <point x="632" y="670"/>
      <point x="578" y="574"/>
      <point x="525" y="574" type="qcurve"/>
      <point x="511" y="574"/>
      <point x="477" y="580"/>
      <point x="456" y="586" type="qcurve"/>
      <point x="452" y="579" type="line"/>
      <point x="512" y="534"/>
      <point x="564" y="412"/>
      <point x="564" y="320" type="qcurve"/>
      <point x="564" y="156"/>
      <point x="431" y="-15"/>
      <point x="305" y="-15" type="qcurve"/>
      <point x="180" y="-15"/>
      <point x="50" y="154"/>
    </contour>
    <contour>
      <point x="307" y="535" type="qcurve"/>
      <point x="248" y="535"/>
      <point x="197" y="433"/>
      <point x="197" y="320" type="qcurve"/>
      <point x="197" y="208"/>
      <point x="249" y="105"/>
      <point x="307" y="105" type="qcurve"/>
      <point x="366" y="105"/>
      <point x="417" y="206"/>
      <point x="417" y="318" type="qcurve"/>
      <point x="417" y="431"/>
      <point x="365" y="535"/>
    </contour>
  </outline>
</glyph>
<glyph name="ohorn" format="2">
  <advance width="614"/>
  <unicode hex="01A1"/>
  <outline>
    <contour>
      <point x="517" y="399" type="qcurve"/>
      <point x="505" y="399"/>
      <point x="476" y="402"/>
      <point x="454" y="406" type="qcurve"/>
      <point x="452" y="399" type="line"/>
      <point x="512" y="361"/>
      <point x="567" y="279"/>
      <point x="567" y="229" type="qcurve"/>
      <point x="567" y="122"/>
      <point x="420" y="-15"/>
      <point x="305" y="-15" type="qcurve"/>
      <point x="191" y="-15"/>
      <point x="47" y="126"/>
      <point x="47" y="238" type="qcurve"/>
      <point x="47" y="342"/>
      <point x="195" y="477"/>
      <point x="309" y="477" type="qcurve"/>
      <point x="432" y="477" type="line"/>
      <point x="470" y="477"/>
      <point x="502" y="524"/>
      <point x="505" y="589" type="qcurve"/>
      <point x="637" y="589" type="line"/>
      <point x="634" y="492"/>
      <point x="575" y="399"/>
    </contour>
    <contour>
      <point x="197" y="239" type="qcurve"/>
      <point x="197" y="173"/>
      <point x="253" y="105"/>
      <point x="307" y="105" type="qcurve"/>
      <point x="361" y="105"/>
      <point x="417" y="173"/>
      <point x="417" y="238" type="qcurve"/>
      <point x="417" y="303"/>
      <point x="361" y="372"/>
      <point x="307" y="372" type="qcurve"/>
      <point x="253" y="372"/>
      <point x="197" y="304"/>
    </contour>
  </outline>
</glyph>
<glyph name="Uhorn" format="2">
  <advance width="614"/>
  <unicode hex="01AF"/>
  <outline>
    <contour>
      <point x="307" y="118" type="qcurve"/>
      <point x="356" y="118"/>
      <point x="403" y="171"/>
      <point x="403" y="226" type="qcurve"/>
      <point x="403" y="655" type="line"/>
      <point x="455" y="655" type="line"/>
      <point x="506" y="655"/>
      <point x="548" y="703"/>
      <point x="551" y="768" type="qcurve"/>
      <point x="679" y="768" type="line"/>
      <point x="677" y="671"/>
      <point x="611" y="574"/>
      <point x="547" y="574" type="qcurve"/>
      <point x="547" y="228" type="line"/>
      <point x="547" y="103"/>
      <point x="428" y="-15"/>
      <point x="303" y="-15" type="qcurve"/>
      <point x="182" y="-15"/>
      <point x="67" y="104"/>
      <point x="67" y="228" type="qcurve"/>
      <point x="67" y="655" type="line"/>
      <point x="212" y="655" type="line"/>
      <point x="212" y="226" type="line"/>
      <point x="212" y="171"/>
      <point x="259" y="118"/>
    </contour>
  </outline>
</glyph>
<glyph name="uhorn" format="2">
  <advance width="614"/>
  <unicode hex="01B0"/>
  <outline>
    <contour>
      <point x="536" y="396" type="qcurve"/>
      <point x="536" y="0" type="line"/>
      <point x="409" y="0" type="line"/>
      <point x="402" y="81" type="line"/>
      <point x="344" y="32"/>
      <point x="255" y="-11"/>
      <point x="210" y="-11" type="qcurve"/>
      <point x="140" y="-11"/>
      <point x="73" y="68"/>
      <point x="73" y="150" type="qcurve"/>
      <point x="73" y="477" type="line"/>
      <point x="218" y="477" type="line"/>
      <point x="218" y="177" type="line"/>
      <point x="218" y="150"/>
      <point x="241" y="126"/>
      <point x="265" y="126" type="qcurve"/>
      <point x="286" y="126"/>
      <point x="346" y="160"/>
      <point x="391" y="197" type="qcurve"/>
      <point x="391" y="477" type="line"/>
      <point x="443" y="477" type="line"/>
      <point x="494" y="477"/>
      <point x="536" y="525"/>
      <point x="539" y="589" type="qcurve"/>
      <point x="667" y="589" type="line"/>
      <point x="665" y="492"/>
      <point x="599" y="396"/>
    </contour>
  </outline>
</glyph>
<glyph name="oogonek" format="2">
  <advance width="614"/>
  <unicode hex="01EB"/>
  <outline>
    <contour>
      <point x="191" y="-163" type="qcurve"/>
      <point x="191" y="-138"/>
      <point x="233" y="-67"/>
      <point x="278" y="-14" type="qcurve"/>
      <point x="174" y="-5"/>
      <point x="47" y="133"/>
      <point x="47" y="238" type="qcurve"/>
      <point x="47" y="349"/>
      <point x="195" y="492"/>
      <point x="309" y="492" type="qcurve"/>
      <point x="423" y="492"/>
      <point x="567" y="351"/>
      <point x="567" y="239" type="qcurve"/>
      <point x="567" y="139"/>
      <point x="445" y="1"/>
      <point x="347" y="-12" type="qcurve"/>
      <point x="320" y="-51"/>
      <point x="295" y="-98"/>
      <point x="295" y="-111" type="qcurve"/>
      <point x="295" y="-127"/>
      <point x="313" y="-141"/>
      <point x="336" y="-142" type="qcurve"/>
      <point x="391" y="-146" type="line"/>
      <point x="381" y="-239" type="line"/>
      <point x="284" y="-235" type="line"/>
      <point x="237" y="-233"/>
      <point x="191" y="-197"/>
    </contour>
    <contour>
      <point x="197" y="239" type="qcurve"/>
      <point x="197" y="173"/>
      <point x="253" y="105"/>
      <point x="307" y="105" type="qcurve"/>
      <point x="361" y="105"/>
      <point x="417" y="173"/>
      <point x="417" y="238" type="qcurve"/>
      <point x="417" y="303"/>
      <point x="361" y="372"/>
      <point x="307" y="372" type="qcurve"/>
      <point x="253" y="372"/>
      <point x="197" y="304"/>
    </contour>
  </outline>
</glyph>
<glyph name="schwa" format="2">
  <advance width="614"/>
  <unicode hex="0259"/>
  <outline>
    <contour>
      <point x="231" y="379" type="qcurve"/>
      <point x="153" y="382" type="line"/>
      <point x="158" y="492" type="line"/>
      <point x="279" y="490" type="line"/>
      <point x="422" y="488"/>
      <point x="557" y="369"/>
      <point x="557" y="244" type="qcurve"/>
      <point x="557" y="133"/>
      <point x="413" y="-13"/>
      <point x="299" y="-13" type="qcurve"/>
      <point x="190" y="-13"/>
      <point x="57" y="119"/>
      <point x="57" y="225" type="qcurve"/>
      <point x="57" y="241"/>
      <point x="60" y="273"/>
      <point x="63" y="287" type="qcurve"/>
      <point x="415" y="287" type="line"/>
      <point x="405" y="335"/>
      <point x="326" y="375"/>
    </contour>
    <contour>
      <point x="298" y="95" type="qcurve"/>
      <point x="344" y="95"/>
      <point x="405" y="144"/>
      <point x="415" y="190" type="qcurve"/>
      <point x="195" y="190" type="line"/>
      <point x="199" y="146"/>
      <point x="254" y="95"/>
    </contour>
  </outline>
</glyph>
<glyph name="ringhalfright" format="2">
  <advance width="614"/>
  <unicode hex="02BE"/>
  <outline>
    <contour>
      <point x="460" y="525" type="qcurve"/>
      <point x="460" y="426"/>
      <point x="322" y="315"/>
      <point x="196" y="315" type="qcurve"/>
      <point x="196" y="415" type="line"/>
      <point x="272" y="415"/>
      <point x="344" y="468"/>
      <point x="344" y="525" type="qcurve"/>
      <point x="344" y="577"/>
      <point x="272" y="625"/>
      <point x="196" y="625" type="qcurve"/>
      <point x="196" y="725" type="line"/>
      <point x="322" y="725"/>
      <point x="460" y="619"/>
    </contour>
  </outline>
</glyph>
<glyph name="circumflexcmb" format="2">
  <unicode hex="0302"/>
  <outline>
    <contour>
      <point x="-141" y="553" type="line"/>
      <point x="-188" y="609" type="line"/>
      <point x="-31" y="758" type="line"/>
      <point x="31" y="758" type="line"/>
      <point x="188" y="609" type="line"/>
      <point x="141" y="553" type="line"/>
      <point x="0" y="656" type="line"/>
    </contour>
  </outline>
</glyph>
<glyph name="tildecmb" format="2">
  <unicode hex="0303"/>
  <outline>
    <contour>
      <point x="77" y="553" type="qcurve"/>
      <point x="58" y="553"/>
      <point x="15" y="577"/>
      <point x="-20" y="608" type="qcurve"/>
      <point x="-48" y="633"/>
      <point x="-70" y="649"/>
      <point x="-78" y="649" type="qcurve"/>
      <point x="-88" y="649"/>
      <point x="-108" y="606"/>
      <point x="-127" y="547" type="qcurve"/>
      <point x="-211" y="576" type="line"/>
      <point x="-179" y="671"/>
      <point x="-121" y="753"/>
      <point x="-78" y="753" type="qcurve"/>
      <point x="-59" y="753"/>
      <point x="-18" y="730"/>
      <point x="19" y="698" type="qcurve"/>
      <point x="51" y="671"/>
      <point x="70" y="657"/>
      <point x="77" y="657" type="qcurve"/>
      <point x="87" y="657"/>
      <point x="110" y="703"/>
      <point x="128" y="759" type="qcurve"/>
      <point x="210" y="730" type="line"/>
      <point x="178" y="635"/>
      <point x="120" y="553"/>
    </contour>
  </outline>
</glyph>
<glyph name="brevecmb" format="2">
  <unicode hex="0306"/>
  <outline>
    <contour>
      <point x="0" y="648" type="qcurve"/>
      <point x="39" y="648"/>
      <point x="96" y="701"/>
      <point x="114" y="755" type="qcurve"/>
      <point x="198" y="725" type="line"/>
      <point x="176" y="641"/>
      <point x="73" y="553"/>
      <point x="0" y="553" type="qcurve"/>
      <point x="-73" y="553"/>
      <point x="-176" y="641"/>
      <point x="-198" y="725" type="qcurve"/>
      <point x="-114" y="755" type="line"/>
      <point x="-95" y="701"/>
      <point x="-39" y="648"/>
    </contour>
  </outline>
</glyph>
<glyph name="dieresiscmb" format="2">
  <unicode hex="0308"/>
  <outline>
    <contour>
      <point x="-41" y="644" type="qcurve"/>
      <point x="-41" y="610"/>
      <point x="-81" y="573"/>
      <point x="-116" y="573" type="qcurve"/>
      <point x="-151" y="573"/>
      <point x="-189" y="610"/>
      <point x="-189" y="644" type="qcurve"/>
      <point x="-189" y="676"/>
      <point x="-149" y="716"/>
      <point x="-115" y="716" type="qcurve"/>
      <point x="-79" y="716"/>
      <point x="-41" y="679"/>
    </contour>
    <contour>
      <point x="189" y="644" type="qcurve"/>
      <point x="189" y="610"/>
      <point x="149" y="573"/>
      <point x="114" y="573" type="qcurve"/>
      <point x="79" y="573"/>
      <point x="41" y="610"/>
      <point x="41" y="644" type="qcurve"/>
      <point x="41" y="676"/>
      <point x="81" y="716"/>
      <point x="115" y="716" type="qcurve"/>
      <point x="151" y="716"/>
      <point x="189" y="679"/>
    </contour>
  </outline>
</glyph>
<glyph name="ringcmb" format="2">
  <unicode hex="030A"/>
  <outline>
    <contour>
      <point x="157" y="692" type="qcurve"/>
      <point x="157" y="629"/>
      <point x="70" y="553"/>
      <point x="-1" y="553" type="qcurve"/>
      <point x="-71" y="553"/>
      <point x="-157" y="628"/>
      <point x="-157" y="691" type="qcurve"/>
      <point x="-157" y="753"/>
      <point x="-69" y="829"/>
      <point x="1" y="829" type="qcurve"/>
      <point x="70" y="829"/>
      <point x="157" y="753"/>
    </contour>
    <contour>
      <point x="-70" y="690" type="qcurve"/>
      <point x="-70" y="660"/>
      <point x="-37" y="632"/>
      <point x="0" y="632" type="qcurve"/>
      <point x="35" y="632"/>
      <point x="70" y="663"/>
      <point x="70" y="693" type="qcurve"/>
      <point x="70" y="722"/>
      <point x="35" y="750"/>
      <point x="-1" y="750" type="qcurve"/>
      <point x="-35" y="750"/>
      <point x="-70" y="720"/>
    </contour>
  </outline>
</glyph>
<glyph name="cedillacmb" format="2">
  <unicode hex="0327"/>
  <outline>
    <contour>
      <point x="-67" y="-102" type="line"/>
      <point x="-26" y="21" type="line"/>
      <point x="36" y="21" type="line"/>
      <point x="12" y="-57" type="line"/>
      <point x="88" y="-66"/>
      <point x="157" y="-106"/>
      <point x="157" y="-145" type="qcurve"/>
      <point x="157" y="-187"/>
      <point x="111" y="-230"/>
      <point x="57" y="-243" type="qcurve"/>
      <point x="29" y="-250"/>
      <point x="-47" y="-261"/>
      <point x="-97" y="-265" type="qcurve"/>
      <point x="-116" y="-196" type="line"/>
      <point x="-7" y="-187"/>
      <point x="66" y="-167"/>
      <point x="66" y="-147" type="qcurve"/>
      <point x="66" y="-131"/>
      <point x="9" y="-115"/>
      <point x="-61" y="-112" type="qcurve"/>
    </contour>
  </outline>
</glyph>
<glyph name="circumflexbelowcmb" format="2">
  <unicode hex="032D"/>
  <outline>
    <contour>
      <point x="-141" y="-281" type="line"/>
      <point x="-188" y="-225" type="line"/>
      <point x="-31" y="-76" type="line"/>
      <point x="31" y="-76" type="line"/>
      <point x="188" y="-225" type="line"/>
      <point x="141" y="-281" type="line"/>
      <point x="0" y="-178" type="line"/>
    </contour>
  </outline>
</glyph>
<glyph name="macronbelowcmb" format="2">
  <unicode hex="0331"/>
  <outline>
    <contour>
      <point x="171" y="-214" type="line"/>
      <point x="-171" y="-214" type="line"/>
      <point x="-171" y="-116" type="line"/>
      <point x="171" y="-116" type="line"/>
    </contour>
  </outline>
</glyph>
<glyph name="bahtthai" format="2">
  <advance width="614"/>
  <unicode hex="0E3F"/>
  <outline>
    <contour>
      <point x="357" y="0" type="qcurve"/>
      <point x="357" y="-142" type="line"/>
      <point x="266" y="-142" type="line"/>
      <point x="266" y="0" type="line"/>
      <point x="78" y="0" type="line"/>
      <point x="78" y="655" type="line"/>
      <point x="266" y="655" type="line"/>
      <point x="266" y="796" type="line"/>
      <point x="357" y="796" type="line"/>
      <point x="357" y="655" type="line"/>
      <point x="453" y="652"/>
      <point x="551" y="575"/>
      <point x="551" y="502" type="qcurve"/>
      <point x="551" y="442"/>
      <point x="476" y="358"/>
      <point x="406" y="340" type="qcurve"/>
      <point x="406" y="336" type="line"/>
      <point x="487" y="324"/>
      <point x="574" y="236"/>
      <point x="574" y="166" type="qcurve"/>
      <point x="574" y="83"/>
      <point x="468" y="3"/>
    </contour>
    <contour>
      <point x="406" y="471" type="qcurve"/>
      <point x="406" y="510"/>
      <point x="364" y="545"/>
      <point x="317" y="545" type="qcurve"/>
      <point x="221" y="545" type="line"/>
      <point x="221" y="379" type="line"/>
      <point x="297" y="384" type="line"/>
      <point x="352" y="387"/>
      <point x="406" y="430"/>
    </contour>
    <contour>
      <point x="430" y="186" type="qcurve"/>
      <point x="430" y="229"/>
      <point x="369" y="269"/>
      <point x="299" y="274" type="qcurve"/>
      <point x="221" y="280" type="line"/>
      <point x="221" y="109" type="line"/>
      <point x="325" y="109" type="line"/>
      <point x="379" y="109"/>
      <point x="430" y="146"/>
    </contour>
  </outline>
</glyph>
<glyph name="quoteleft" format="2">
  <advance width="614"/>
  <unicode hex="2018"/>
  <outline>
    <contour>
      <point x="369" y="710" type="qcurve"/>
      <point x="500" y="710" type="line"/>
      <point x="500" y="708" type="line"/>
      <point x="425" y="608"/>
      <point x="367" y="475"/>
      <point x="357" y="381" type="qcurve"/>
      <point x="142" y="381" type="line"/>
      <point x="163" y="486"/>
      <point x="268" y="638"/>
    </contour>
  </outline>
</glyph>
<glyph name="quoteright" format="2">
  <advance width="614"/>
  <unicode hex="2019"/>
  <outline>
    <contour>
      <point x="245" y="381" type="qcurve"/>
      <point x="114" y="381" type="line"/>
      <point x="114" y="383" type="line"/>
      <point x="190" y="484"/>
      <point x="247" y="616"/>
      <point x="257" y="710" type="qcurve"/>
      <point x="472" y="710" type="line"/>
      <point x="450" y="605"/>
      <point x="346" y="452"/>
    </contour>
  </outline>
</glyph>
<glyph name="quotedblleft" format="2">
  <advance width="614"/>
  <unicode hex="201C"/>
  <outline>
    <contour>
      <point x="227" y="710" type="qcurve"/>
      <point x="335" y="710" type="line"/>
      <point x="335" y="708" type="line"/>
      <point x="266" y="603"/>
      <point x="211" y="475"/>
      <point x="193" y="379" type="qcurve"/>
      <point x="19" y="379" type="line"/>
      <point x="52" y="497"/>
      <point x="147" y="647"/>
    </contour>
    <contour>
      <point x="490" y="710" type="qcurve"/>
      <point x="598" y="710" type="line"/>
      <point x="598" y="708" type="line"/>
      <point x="530" y="605"/>
      <point x="475" y="476"/>
      <point x="457" y="379" type="qcurve"/>
      <point x="283" y="379" type="line"/>
      <point x="316" y="498"/>
      <point x="410" y="647"/>
    </contour>
  </outline>
</glyph>
<glyph name="daggerdbl" format="2">
  <advance width="614"/>
  <unicode hex="2021"/>
  <outline>
    <contour>
      <point x="524" y="293" type="qcurve"/>
      <point x="524" y="179" type="line"/>
      <point x="505" y="179"/>
      <point x="461" y="187"/>
      <point x="416" y="199" type="qcurve"/>
      <point x="382" y="209"/>
      <point x="347" y="216"/>
      <point x="332" y="218" type="qcurve"/>
      <point x="333" y="201"/>
      <point x="340" y="160"/>
      <point x="349" y="120" type="qcurve"/>
      <point x="359" y="70"/>
      <point x="366" y="21"/>
      <point x="366" y="0" type="qcurve"/>
      <point x="248" y="0" type="line"/>
      <point x="248" y="21"/>
      <point x="255" y="69"/>
      <point x="266" y="117" type="qcurve"/>
      <point x="275" y="159"/>
      <point x="282" y="201"/>
      <point x="283" y="219" type="qcurve"/>
      <point x="269" y="217"/>
      <point x="235" y="210"/>
      <point x="201" y="200" type="qcurve"/>
      <point x="156" y="187"/>
      <point x="111" y="179"/>
      <point x="91" y="179" type="qcurve"/>
      <point x="91" y="293" type="line"/>
      <point x="111" y="293"/>
      <point x="157" y="286"/>
      <point x="202" y="274" type="qcurve"/>
      <point x="236" y="265"/>
      <point x="269" y="258"/>
      <point x="284" y="256" type="qcurve"/>
      <point x="284" y="459" type="line"/>
      <point x="268" y="457"/>
      <point x="229" y="450"/>
      <point x="191" y="440" type="qcurve"/>
      <point x="143" y="427"/>
      <point x="95" y="419"/>
      <point x="75" y="419" type="qcurve"/>
      <point x="75" y="533" type="line"/>
      <point x="96" y="533"/>
      <point x="144" y="526"/>
      <point x="192" y="514" type="qcurve"/>
      <point x="229" y="504"/>
      <point x="267" y="497"/>
      <point x="283" y="496" type="qcurve"/>
      <point x="282" y="513"/>
      <point x="274" y="554"/>
      <point x="264" y="594" type="qcurve"/>
      <point x="252" y="642"/>
      <point x="245" y="690"/>
      <point x="245" y="710" type="qcurve"/>
      <point x="369" y="710" type="line"/>
      <point x="369" y="690"/>
      <point x="362" y="642"/>
      <point x="351" y="594" type="qcurve"/>
      <point x="341" y="554"/>
      <point x="334" y="513"/>
      <point x="333" y="496" type="qcurve"/>
      <point x="349" y="498"/>
      <point x="386" y="505"/>
      <point x="424" y="514" type="qcurve"/>
      <point x="472" y="526"/>
      <point x="519" y="533"/>
      <point x="539" y="533" type="qcurve"/>
      <point x="539" y="419" type="line"/>
      <point x="520" y="419"/>
      <point x="474" y="427"/>
      <point x="427" y="439" type="qcurve"/>
      <point x="388" y="449"/>
      <point x="349" y="457"/>
      <point x="332" y="459" type="qcurve"/>
      <point x="332" y="256" type="line"/>
      <point x="347" y="258"/>
      <point x="381" y="265"/>
      <point x="415" y="274" type="qcurve"/>
      <point x="460" y="286"/>
      <point x="505" y="293"/>
    </contour>
  </outline>
</glyph>
<glyph name="twodotleader" format="2">
  <advance width="614"/>
  <unicode hex="2025"/>
  <outline>
    <contour>
      <point x="249" y="94" type="qcurve"/>
      <point x="249" y="41"/>
      <point x="199" y="-15"/>
      <point x="152" y="-15" type="qcurve"/>
      <point x="105" y="-15"/>
      <point x="58" y="39"/>
      <point x="58" y="93" type="qcurve"/>
      <point x="58" y="145"/>
      <point x="108" y="202"/>
      <point x="154" y="202" type="qcurve"/>
      <point x="203" y="202"/>
      <point x="249" y="149"/>
    </contour>
    <contour>
      <point x="556" y="94" type="qcurve"/>
      <point x="556" y="41"/>
      <point x="507" y="-15"/>
      <point x="460" y="-15" type="qcurve"/>
      <point x="412" y="-15"/>
      <point x="365" y="39"/>
      <point x="365" y="93" type="qcurve"/>
      <point x="365" y="145"/>
      <point x="414" y="202"/>
      <point x="460" y="202" type="qcurve"/>
      <point x="509" y="202"/>
      <point x="556" y="150"/>
    </contour>
  </outline>
</glyph>
<glyph name="ellipsis" format="2">
  <advance width="614"/>
  <unicode hex="2026"/>
  <outline>
    <contour>
      <point x="375" y="75" type="qcurve"/>
      <point x="375" y="29"/>
      <point x="342" y="-15"/>
      <point x="307" y="-15" type="qcurve"/>
      <point x="272" y="-15"/>
      <point x="239" y="30"/>
      <point x="239" y="75" type="qcurve"/>
      <point x="239" y="117"/>
      <point x="275" y="162"/>
      <point x="309" y="162" type="qcurve"/>
      <point x="343" y="162"/>
      <point x="375" y="120"/>
    </contour>
    <contour>
      <point x="580" y="75" type="qcurve"/>
      <point x="580" y="29"/>
      <point x="547" y="-15"/>
      <point x="512" y="-15" type="qcurve"/>
      <point x="477" y="-15"/>
      <point x="444" y="30"/>
      <point x="444" y="75" type="qcurve"/>
      <point x="444" y="117"/>
      <point x="480" y="162"/>
      <point x="514" y="162" type="qcurve"/>
      <point x="548" y="162"/>
      <point x="580" y="120"/>
    </contour>
    <contour>
      <point x="170" y="75" type="qcurve"/>
      <point x="170" y="29"/>
      <point x="137" y="-15"/>
      <point x="102" y="-15" type="qcurve"/>
      <point x="67" y="-15"/>
      <point x="34" y="30"/>
      <point x="34" y="75" type="qcurve"/>
      <point x="34" y="117"/>
      <point x="70" y="162"/>
      <point x="104" y="162" type="qcurve"/>
      <point x="138" y="162"/>
      <point x="170" y="120"/>
    </contour>
  </outline>
</glyph>
<glyph name="guilsinglright" format="2">
  <advance width="614"/>
  <unicode hex="203A"/>
  <outline>
    <contour>
      <point x="154" y="353" type="line"/>
      <point x="154" y="492" type="line"/>
      <point x="478" y="296" type="line"/>
      <point x="478" y="180" type="line"/>
      <point x="154" y="-15" type="line"/>
      <point x="154" y="122" type="line"/>
      <point x="296" y="236" type="line"/>
    </contour>
  </outline>
</glyph>
<glyph name="won" format="2">
  <advance width="614"/>
  <unicode hex="20A9"/>
  <outline>
    <contour>
      <point x="312" y="374" type="line"/>
      <point x="301" y="374" type="line"/>
      <point x="240" y="0" type="line"/>
      <point x="101" y="0" type="line"/>
      <point x="88" y="314" type="line"/>
      <point x="14" y="314" type="line"/>
      <point x="14" y="390" type="line"/>
      <point x="84" y="390" type="line"/>
      <point x="73" y="655" type="line"/>
      <point x="156" y="655" type="line"/>
      <point x="163" y="384" type="line"/>
      <point x="242" y="384" type="line"/>
      <point x="265" y="524" type="line"/>
      <point x="349" y="524" type="line"/>
      <point x="372" y="384" type="line"/>
      <point x="451" y="384" type="line"/>
      <point x="459" y="655" type="line"/>
      <point x="541" y="655" type="line"/>
      <point x="529" y="390" type="line"/>
      <point x="600" y="390" type="line"/>
      <point x="600" y="314" type="line"/>
      <point x="526" y="314" type="line"/>
      <point x="512" y="0" type="line"/>
      <point x="374" y="0" type="line"/>
    </contour>
    <contour>
      <point x="411" y="152" type="line"/>
      <point x="445" y="152" type="line"/>
      <point x="450" y="326" type="line"/>
      <point x="382" y="326" type="line"/>
    </contour>
    <contour>
      <point x="165" y="326" type="line"/>
      <point x="169" y="152" type="line"/>
      <point x="203" y="152" type="line"/>
      <point x="232" y="326" type="line"/>
    </contour>
  </outline>
</glyph>
<glyph name="dong" format="2">
  <advance width="614"/>
  <unicode hex="20AB"/>
  <outline>
    <contour>
      <point x="232" y="-11" type="qcurve"/>
      <point x="148" y="-11"/>
      <point x="44" y="102"/>
      <point x="44" y="197" type="qcurve"/>
      <point x="44" y="289"/>
      <point x="171" y="407"/>
      <point x="269" y="407" type="qcurve"/>
      <point x="301" y="407"/>
      <point x="348" y="396"/>
      <point x="370" y="383" type="qcurve"/>
      <point x="370" y="488" type="line"/>
      <point x="242" y="488" type="line"/>
      <point x="242" y="564" type="line"/>
      <point x="370" y="564" type="line"/>
      <point x="370" y="655" type="line"/>
      <point x="515" y="655" type="line"/>
      <point x="515" y="564" type="line"/>
      <point x="592" y="564" type="line"/>
      <point x="592" y="488" type="line"/>
      <point x="515" y="488" type="line"/>
      <point x="515" y="0" type="line"/>
      <point x="389" y="0" type="line"/>
      <point x="380" y="57" type="line"/>
      <point x="348" y="22"/>
      <point x="276" y="-11"/>
    </contour>
    <contour>
      <point x="292" y="306" type="qcurve"/>
      <point x="247" y="306"/>
      <point x="194" y="253"/>
      <point x="194" y="208" type="qcurve"/>
      <point x="194" y="161"/>
      <point x="242" y="108"/>
      <point x="284" y="108" type="qcurve"/>
      <point x="305" y="108"/>
      <point x="346" y="123"/>
      <point x="370" y="139" type="qcurve"/>
      <point x="370" y="283" type="line"/>
      <point x="348" y="295"/>
      <point x="312" y="306"/>
    </contour>
    <contour>
      <point x="509" y="-189" type="line"/>
      <point x="60" y="-189" type="line"/>
      <point x="60" y="-101" type="line"/>
      <point x="509" y="-101" type="line"/>
    </contour>
  </outline>
</glyph>
<glyph name="Euro" format="2">
  <advance width="614"/>
  <unicode hex="20AC"/>
  <outline>
    <contour>
      <point x="129" y="205" type="qcurve"/>
      <point x="40" y="205" type="line"/>
      <point x="40" y="285" type="line"/>
      <point x="127" y="285" type="line"/>
      <point x="127" y="370" type="line"/>
      <point x="40" y="370" type="line"/>
      <point x="40" y="450" type="line"/>
      <point x="129" y="450" type="line"/>
      <point x="141" y="549"/>
      <point x="277" y="667"/>
      <point x="383" y="667" type="qcurve"/>
      <point x="417" y="667"/>
      <point x="487" y="658"/>
      <point x="559" y="643" type="qcurve"/>
      <point x="543" y="521" type="line"/>
      <point x="474" y="537"/>
      <point x="404" y="548"/>
      <point x="379" y="548" type="qcurve"/>
      <point x="329" y="548"/>
      <point x="276" y="497"/>
      <point x="272" y="446" type="qcurve"/>
      <point x="429" y="446" type="line"/>
      <point x="429" y="370" type="line"/>
      <point x="271" y="370" type="line"/>
      <point x="271" y="285" type="line"/>
      <point x="429" y="285" type="line"/>
      <point x="429" y="209" type="line"/>
      <point x="272" y="209" type="line"/>
      <point x="275" y="156"/>
      <point x="329" y="104"/>
      <point x="379" y="104" type="qcurve"/>
      <point x="404" y="104"/>
      <point x="474" y="115"/>
      <point x="543" y="131" type="qcurve"/>
      <point x="559" y="9" type="line"/>
      <point x="487" y="-6"/>
      <point x="417" y="-15"/>
      <point x="383" y="-15" type="qcurve"/>
      <point x="276" y="-15"/>
      <point x="139" y="106"/>
    </contour>
  </outline>
</glyph>
<glyph name="peso" format="2">
  <advance width="614"/>
  <unicode hex="20B1"/>
  <outline>
    <contour>
      <point x="98" y="399" type="line"/>
      <point x="22" y="399" type="line"/>
      <point x="22" y="475" type="line"/>
      <point x="98" y="475" type="line"/>
      <point x="98" y="655" type="line"/>
      <point x="285" y="655" type="line"/>
      <point x="389" y="655"/>
      <point x="517" y="560"/>
      <point x="529" y="475" type="qcurve"/>
      <point x="599" y="475" type="line"/>
      <point x="599" y="399" type="line"/>
      <point x="529" y="399" type="line"/>
      <point x="516" y="313"/>
      <point x="380" y="213"/>
      <point x="274" y="213" type="qcurve"/>
      <point x="243" y="213" type="line"/>
      <point x="243" y="0" type="line"/>
      <point x="98" y="0" type="line"/>
    </contour>
    <contour>
      <point x="385" y="434" type="qcurve"/>
      <point x="385" y="484"/>
      <point x="340" y="535"/>
      <point x="295" y="535" type="qcurve"/>
      <point x="243" y="535" type="line"/>
      <point x="243" y="330" type="line"/>
      <point x="290" y="330" type="line"/>
      <point x="336" y="330"/>
      <point x="385" y="383"/>
    </contour>
  </outline>
</glyph>
<glyph name="servicemark" format="2">
  <advance width="614"/>
  <unicode hex="2120"/>
  <outline>
    <contour>
      <point x="142" y="455" type="qcurve"/>
      <point x="162" y="455"/>
      <point x="184" y="472"/>
      <point x="184" y="487" type="qcurve"/>
      <point x="184" y="500"/>
      <point x="166" y="516"/>
      <point x="141" y="526" type="qcurve"/>
      <point x="107" y="540" type="line"/>
      <point x="74" y="553"/>
      <point x="44" y="596"/>
      <point x="44" y="630" type="qcurve"/>
      <point x="44" y="669"/>
      <point x="98" y="717"/>
      <point x="145" y="717" type="qcurve"/>
      <point x="167" y="717"/>
      <point x="209" y="710"/>
      <point x="239" y="701" type="qcurve"/>
      <point x="229" y="642" type="line"/>
      <point x="204" y="651"/>
      <point x="162" y="659"/>
      <point x="145" y="659" type="qcurve"/>
      <point x="127" y="659"/>
      <point x="107" y="644"/>
      <point x="107" y="631" type="qcurve"/>
      <point x="107" y="618"/>
      <point x="121" y="604"/>
      <point x="142" y="596" type="qcurve"/>
      <point x="177" y="582" type="line"/>
      <point x="219" y="565"/>
      <point x="248" y="525"/>
      <point x="248" y="488" type="qcurve"/>
      <point x="248" y="445"/>
      <point x="192" y="397"/>
      <point x="142" y="397" type="qcurve"/>
      <point x="115" y="397"/>
      <point x="62" y="409"/>
      <point x="32" y="421" type="qcurve"/>
      <point x="45" y="480" type="line"/>
      <point x="73" y="468"/>
      <point x="125" y="455"/>
    </contour>
    <contour>
      <point x="486" y="710" type="line"/>
      <point x="561" y="710" type="line"/>
      <point x="572" y="404" type="line"/>
      <point x="508" y="404" type="line"/>
      <point x="510" y="656" type="line"/>
      <point x="446" y="500" type="line"/>
      <point x="425" y="500" type="line"/>
      <point x="359" y="653" type="line"/>
      <point x="362" y="404" type="line"/>
      <point x="297" y="404" type="line"/>
      <point x="309" y="710" type="line"/>
      <point x="384" y="710" type="line"/>
      <point x="436" y="594" type="line"/>
    </contour>
  </outline>
</glyph>
<glyph name="trademark" format="2">
  <advance width="614"/>
  <unicode hex="2122"/>
  <outline>
    <contour>
      <point x="115" y="641" type="line"/>
      <point x="37" y="641" type="line"/>
      <point x="37" y="710" type="line"/>
      <point x="265" y="710" type="line"/>
      <point x="265" y="641" type="line"/>
      <point x="189" y="641" type="line"/>
      <point x="189" y="404" type="line"/>
      <point x="115" y="404" type="line"/>
    </contour>
    <contour>
      <point x="486" y="710" type="line"/>
      <point x="561" y="710" type="line"/>
      <point x="572" y="404" type="line"/>
      <point x="508" y="404" type="line"/>
      <point x="510" y="656" type="line"/>
      <point x="446" y="500" type="line"/>
      <point x="425" y="500" type="line"/>
      <point x="359" y="653" type="line"/>
      <point x="362" y="404" type="line"/>
      <point x="297" y="404" type="line"/>
      <point x="309" y="710" type="line"/>
      <point x="384" y="710" type="line"/>
      <point x="436" y="594" type="line"/>
    </contour>
  </outline>
</glyph>
<glyph name="approxequal" format="2">
  <advance width="614"/>
  <unicode hex="2248"/>
  <outline>
    <contour>
      <point x="470" y="584" type="qcurve"/>
      <point x="573" y="551" type="line"/>
      <point x="517" y="398"/>
      <point x="458" y="348"/>
      <point x="422" y="348" type="qcurve"/>
      <point x="399" y="348"/>
      <point x="334" y="381"/>
      <point x="285" y="418" type="qcurve"/>
      <point x="227" y="461"/>
      <point x="209" y="472"/>
      <point x="201" y="472" type="qcurve"/>
      <point x="191" y="472"/>
      <point x="174" y="440"/>
      <point x="143" y="359" type="qcurve"/>
      <point x="40" y="392" type="line"/>
      <point x="98" y="544"/>
      <point x="151" y="595"/>
      <point x="191" y="595" type="qcurve"/>
      <point x="214" y="595"/>
      <point x="278" y="563"/>
      <point x="325" y="527" type="qcurve"/>
      <point x="365" y="497"/>
      <point x="402" y="471"/>
      <point x="412" y="471" type="qcurve"/>
      <point x="422" y="471"/>
      <point x="439" y="503"/>
    </contour>
    <contour>
      <point x="470" y="301" type="qcurve"/>
      <point x="573" y="268" type="line"/>
      <point x="517" y="115"/>
      <point x="458" y="65"/>
      <point x="422" y="65" type="qcurve"/>
      <point x="399" y="65"/>
      <point x="334" y="98"/>
      <point x="285" y="135" type="qcurve"/>
      <point x="227" y="178"/>
      <point x="209" y="189"/>
      <point x="201" y="189" type="qcurve"/>
      <point x="191" y="189"/>
      <point x="174" y="157"/>
      <point x="143" y="76" type="qcurve"/>
      <point x="40" y="109" type="line"/>
      <point x="98" y="261"/>
      <point x="151" y="312"/>
      <point x="191" y="312" type="qcurve"/>
      <point x="214" y="312"/>
      <point x="278" y="280"/>
      <point x="325" y="244" type="qcurve"/>
      <point x="365" y="214"/>
      <point x="402" y="188"/>
      <point x="412" y="188" type="qcurve"/>
      <point x="422" y="188"/>
      <point x="439" y="220"/>
    </contour>
  </outline>
</glyph>
<glyph name="lightarcdnrightbxd" format="2">
  <advance width="614"/>
  <unicode hex="256D"/>
  <outline>
    <contour>
      <point x="379" y="-420" type="line"/>
      <point x="235" y="-420" type="line"/>
      <point x="235" y="23" type="line" smooth="yes"/>
      <point x="235" y="220"/>
      <point x="418" y="402"/>
      <point x="614" y="402" type="qcurve" smooth="yes"/>
      <point x="634" y="402" type="line"/>
      <point x="634" y="258" type="line"/>
      <point x="614" y="258" type="line" smooth="yes"/>
      <point x="492" y="258"/>
      <point x="379" y="144"/>
      <point x="379" y="23" type="qcurve" smooth="yes"/>
    </contour>
  </outline>
</glyph>
<glyph name="uni2611" format="2">
  <advance width="614"/>
  <unicode hex="2611"/>
  <outline>
    <contour>
      <point x="456" y="732" type="line"/>
      <point x="538" y="732" type="line"/>
      <point x="486" y="585" type="line"/>
      <point x="564" y="585" type="line"/>
      <point x="564" y="70" type="line"/>
      <point x="50" y="70" type="line"/>
      <point x="50" y="585" type="line"/>
      <point x="408" y="585" type="line"/>
    </contour>
    <contour>
      <point x="461" y="514" type="line"/>
      <point x="350" y="197" type="line"/>
      <point x="278" y="197" type="line"/>
      <point x="175" y="436" type="line"/>
      <point x="255" y="436" type="line"/>
      <point x="313" y="290" type="line"/>
      <point x="386" y="514" type="line"/>
      <point x="131" y="514" type="line"/>
      <point x="131" y="141" type="line"/>
      <point x="483" y="141" type="line"/>
      <point x="483" y="514" type="line"/>
    </contour>
  </outline>
</glyph>
<glyph name="uni2612" format="2">
  <advance width="614"/>
  <unicode hex="2612"/>
  <outline>
    <contour>
      <point x="564" y="70" type="line"/>
      <point x="50" y="70" type="line"/>
      <point x="50" y="585" type="line"/>
      <point x="564" y="585" type="line"/>
    </contour>
    <contour>
      <point x="451" y="514" type="line"/>
      <point x="169" y="514" type="line"/>
      <point x="310" y="361" type="line"/>
    </contour>
    <contour>
      <point x="272" y="327" type="line"/>
      <point x="131" y="476" type="line"/>
      <point x="131" y="179" type="line"/>
    </contour>
    <contour>
      <point x="483" y="474" type="line"/>
      <point x="346" y="327" type="line"/>
      <point x="483" y="180" type="line"/>
    </contour>
    <contour>
      <point x="308" y="292" type="line"/>
      <point x="164" y="141" type="line"/>
      <point x="446" y="141" type="line"/>
    </contour>
  </outline>
</glyph>
<glyph name="uniE0A0" format="2">
  <advance width="614"/>
  <unicode hex="E0A0"/>
  <outline>
    <contour>
      <point x="25" y="217" type="line"/>
      <point x="25" y="1020" type="line"/>
      <point x="150" y="1020" type="line"/>
      <point x="150" y="316" type="line"/>
    </contour>
    <contour>
      <point x="30" y="-360" type="line"/>
      <point x="30" y="-198" type="line" smooth="yes"/>
      <point x="30" y="-99"/>
      <point x="46" y="12"/>
      <point x="65" y="49" type="qcurve" smooth="yes"/>
      <point x="84" y="85"/>
      <point x="156" y="148"/>
      <point x="254" y="208" type="qcurve" smooth="yes"/>
      <point x="316" y="247"/>
      <point x="353.0" y="315.0"/>
      <point x="353" y="396" type="qcurve" smooth="yes"/>
      <point x="353" y="528" type="line"/>
      <point x="207" y="528" type="line"/>
      <point x="207" y="532" type="line"/>
      <point x="414" y="758" type="line"/>
      <point x="418" y="758" type="line"/>
      <point x="624" y="532" type="line"/>
      <point x="624" y="528" type="line"/>
      <point x="478" y="528" type="line"/>
      <point x="478.0" y="370" type="line" smooth="yes"/>
      <point x="478.0" y="260.0"/>
      <point x="413.0" y="167.0"/>
      <point x="285" y="88" type="qcurve" smooth="yes"/>
      <point x="225" y="51"/>
      <point x="178" y="-2"/>
      <point x="168" y="-35" type="qcurve" smooth="yes"/>
      <point x="161" y="-60"/>
      <point x="155.0" y="-132.0"/>
      <point x="155" y="-209" type="qcurve" smooth="yes"/>
      <point x="155" y="-360" type="line"/>
    </contour>
  </outline>
</glyph>
<glyph name="uniE0A1" format="2">
  <advance width="614"/>
  <unicode hex="E0A1"/>
  <outline>
    <contour>
      <point x="147" y="373" type="line"/>
      <point x="147" y="808" type="line"/>
      <point x="258" y="808" type="line"/>
      <point x="258" y="473" type="line"/>
      <point x="467" y="473" type="line"/>
      <point x="467" y="373" type="line"/>
    </contour>
    <contour>
      <point x="223" y="179" type="line"/>
      <point x="235" y="-163" type="line"/>
      <point x="147" y="-163" type="line"/>
      <point x="147" y="272" type="line"/>
      <point x="296" y="272" type="line"/>
      <point x="390" y="-43" type="line"/>
      <point x="379" y="272" type="line"/>
      <point x="467" y="272" type="line"/>
      <point x="467" y="-163" type="line"/>
      <point x="326" y="-163" type="line"/>
    </contour>
  </outline>
</glyph>
<glyph name="ampersand_ampersand.liga" format="2">
  <advance width="614"/>
  <outline>
    <contour>
      <point x="-263" y="669" type="qcurve" smooth="yes"/>
      <point x="-234" y="669"/>
      <point x="-161" y="662"/>
      <point x="-116" y="655" type="qcurve"/>
      <point x="-129" y="548" type="line"/>
      <point x="-173" y="554"/>
      <point x="-229" y="559"/>
      <point x="-251" y="559" type="qcurve" smooth="yes"/>
      <point x="-287" y="559"/>
      <point x="-326" y="531"/>
      <point x="-326" y="505" type="qcurve" smooth="yes"/>
      <point x="-326" y="490"/>
      <point x="-315" y="460"/>
      <point x="-301" y="439" type="qcurve" smooth="yes"/>
      <point x="-205" y="289" type="line"/>
      <point x="-147" y="416" type="line"/>
      <point x="-42" y="373" type="line"/>
      <point x="-133" y="188" type="line"/>
      <point x="-21" y="-1" type="line"/>
      <point x="-170" y="-1" type="line"/>
      <point x="-209" y="75" type="line"/>
      <point x="-246" y="25"/>
      <point x="-320" y="-14"/>
      <point x="-380" y="-14" type="qcurve" smooth="yes"/>
      <point x="-464" y="-14"/>
      <point x="-560" y="84"/>
      <point x="-560" y="171" type="qcurve" smooth="yes"/>
      <point x="-560" y="252"/>
      <point x="-491" y="336"/>
      <point x="-406" y="365" type="qcurve"/>
      <point x="-433" y="408"/>
      <point x="-456" y="472"/>
      <point x="-456" y="506" type="qcurve" smooth="yes"/>
      <point x="-456" y="577"/>
      <point x="-349" y="669"/>
    </contour>
    <contour>
      <point x="331" y="669" type="qcurve" smooth="yes"/>
      <point x="360" y="669"/>
      <point x="433" y="662"/>
      <point x="478" y="655" type="qcurve"/>
      <point x="465" y="548" type="line"/>
      <point x="421" y="554"/>
      <point x="365" y="559"/>
      <point x="343" y="559" type="qcurve" smooth="yes"/>
      <point x="307" y="559"/>
      <point x="268" y="531"/>
      <point x="268" y="505" type="qcurve" smooth="yes"/>
      <point x="268" y="490"/>
      <point x="279" y="460"/>
      <point x="293" y="439" type="qcurve" smooth="yes"/>
      <point x="392" y="285" type="line"/>
      <point x="457" y="416" type="line"/>
      <point x="562" y="373" type="line"/>
      <point x="463" y="186" type="line"/>
      <point x="573" y="-1" type="line"/>
      <point x="424" y="-1" type="line"/>
      <point x="385" y="75" type="line"/>
      <point x="348" y="25"/>
      <point x="274" y="-14"/>
      <point x="214" y="-14" type="qcurve" smooth="yes"/>
      <point x="130" y="-14"/>
      <point x="34" y="84"/>
      <point x="34" y="171" type="qcurve" smooth="yes"/>
      <point x="34" y="252"/>
      <point x="103" y="336"/>
      <point x="188" y="365" type="qcurve"/>
      <point x="161" y="408"/>
      <point x="138" y="472"/>
      <point x="138" y="506" type="qcurve" smooth="yes"/>
      <point x="138" y="577"/>
      <point x="245" y="669"/>
    </contour>
    <contour>
      <point x="-430" y="188" type="qcurve" smooth="yes"/>
      <point x="-430" y="147"/>
      <point x="-393" y="105"/>
      <point x="-356" y="105" type="qcurve" smooth="yes"/>
      <point x="-324" y="105"/>
      <point x="-287" y="129"/>
      <point x="-269" y="159" type="qcurve"/>
      <point x="-351" y="282" type="line"/>
      <point x="-396" y="268"/>
      <point x="-430" y="230"/>
    </contour>
    <contour>
      <point x="164" y="188" type="qcurve" smooth="yes"/>
      <point x="164" y="147"/>
      <point x="201" y="105"/>
      <point x="238" y="105" type="qcurve" smooth="yes"/>
      <point x="270" y="105"/>
      <point x="307" y="129"/>
      <point x="325" y="159" type="qcurve"/>
      <point x="243" y="282" type="line"/>
      <point x="198" y="268"/>
      <point x="164" y="230"/>
    </contour>
  </outline>
</glyph>
<glyph name="asciicircum_equal.liga" format="2">
  <advance width="614"/>
  <outline>
    <contour>
      <point x="-298" y="655" type="line"/>
      <point x="-116" y="655" type="line"/>
      <point x="-32" y="500" type="line"/>
      <point x="433" y="500" type="line"/>
      <point x="433" y="384" type="line"/>
      <point x="-113" y="384" type="line"/>
      <point x="-207" y="573" type="line"/>
      <point x="-341" y="271" type="line"/>
      <point x="-482" y="271" type="line"/>
    </contour>
    <contour>
      <point x="433" y="161" type="line"/>
      <point x="-19" y="161" type="line"/>
      <point x="-19" y="276" type="line"/>
      <point x="433" y="276" type="line"/>
    </contour>
  </outline>
</glyph>
<glyph name="asciitilde_asciitilde.liga" format="2">
  <advance width="614"/>
  <outline>
    <contour>
      <point x="115" y="313" type="qcurve" smooth="yes"/>
      <point x="100" y="313"/>
      <point x="69" y="298"/>
      <point x="31" y="272" type="qcurve" smooth="yes"/>
      <point x="-33" y="229"/>
      <point x="-91" y="202"/>
      <point x="-116" y="202" type="qcurve" smooth="yes"/>
      <point x="-144" y="202"/>
      <point x="-199" y="230"/>
      <point x="-258" y="272" type="qcurve" smooth="yes"/>
      <point x="-293" y="296"/>
      <point x="-322" y="313"/>
      <point x="-332" y="313" type="qcurve" smooth="yes"/>
      <point x="-348" y="313"/>
      <point x="-383" y="261"/>
      <point x="-411" y="202" type="qcurve"/>
      <point x="-515" y="249" type="line"/>
      <point x="-465" y="354"/>
      <point x="-387" y="447"/>
      <point x="-343" y="447" type="qcurve" smooth="yes"/>
      <point x="-322" y="447"/>
      <point x="-276" y="426"/>
      <point x="-211" y="384" type="qcurve" smooth="yes"/>
      <point x="-168" y="356"/>
      <point x="-127" y="336"/>
      <point x="-111" y="336" type="qcurve" smooth="yes"/>
      <point x="-93" y="336"/>
      <point x="-57" y="353"/>
      <point x="-21" y="377" type="qcurve" smooth="yes"/>
      <point x="49" y="424"/>
      <point x="98" y="447"/>
      <point x="120" y="447" type="qcurve" smooth="yes"/>
      <point x="148" y="447"/>
      <point x="203" y="419"/>
      <point x="262" y="377" type="qcurve" smooth="yes"/>
      <point x="297" y="353"/>
      <point x="326" y="336"/>
      <point x="336" y="336" type="qcurve" smooth="yes"/>
      <point x="352" y="336"/>
      <point x="387" y="388"/>
      <point x="415" y="447" type="qcurve"/>
      <point x="519" y="400" type="line"/>
      <point x="469" y="295"/>
      <point x="391" y="202"/>
      <point x="347" y="202" type="qcurve" smooth="yes"/>
      <point x="326" y="202"/>
      <point x="280" y="223"/>
      <point x="215" y="265" type="qcurve" smooth="yes"/>
      <point x="172" y="293"/>
      <point x="131" y="313"/>
    </contour>
  </outline>
</glyph>
<glyph name="asciitilde_asciitilde_greater" format="2">
  <advance width="614"/>
  <outline>
    <contour>
      <point x="57" y="364" type="qcurve"/>
      <point x="78" y="347"/>
      <point x="109" y="332"/>
      <point x="124" y="332" type="qcurve" smooth="yes"/>
      <point x="141" y="332"/>
      <point x="221" y="355"/>
      <point x="303" y="382" type="qcurve"/>
      <point x="84" y="577" type="line"/>
      <point x="169" y="665" type="line"/>
      <point x="541" y="329" type="line"/>
      <point x="541" y="325" type="line"/>
      <point x="169" y="-11" type="line"/>
      <point x="84" y="77" type="line"/>
      <point x="297" y="267" type="line"/>
      <point x="218" y="235"/>
      <point x="127" y="206"/>
      <point x="108" y="206" type="qcurve" smooth="yes"/>
      <point x="87" y="206"/>
      <point x="45" y="226"/>
      <point x="10" y="252" type="qcurve" smooth="yes"/>
      <point x="-24" y="278"/>
      <point x="-63" y="300"/>
      <point x="-76" y="300" type="qcurve" smooth="yes"/>
      <point x="-91" y="300"/>
      <point x="-120" y="285"/>
      <point x="-147" y="265" type="qcurve" smooth="yes"/>
      <point x="-197" y="228"/>
      <point x="-247" y="202"/>
      <point x="-273" y="202" type="qcurve" smooth="yes"/>
      <point x="-295" y="202"/>
      <point x="-347" y="230"/>
      <point x="-392" y="264" type="qcurve" smooth="yes"/>
      <point x="-416" y="283"/>
      <point x="-448" y="300"/>
      <point x="-463" y="300" type="qcurve" smooth="yes"/>
      <point x="-478" y="300"/>
      <point x="-507" y="285"/>
      <point x="-534" y="265" type="qcurve" smooth="yes"/>
      <point x="-584" y="228"/>
      <point x="-634" y="202"/>
      <point x="-660" y="202" type="qcurve" smooth="yes"/>
      <point x="-684" y="202"/>
      <point x="-739" y="233"/>
      <point x="-789" y="272" type="qcurve" smooth="yes"/>
      <point x="-832" y="306"/>
      <point x="-843" y="313"/>
      <point x="-850" y="313" type="qcurve" smooth="yes"/>
      <point x="-864" y="313"/>
      <point x="-895" y="263"/>
      <point x="-924" y="202" type="qcurve"/>
      <point x="-1028" y="249" type="line"/>
      <point x="-976" y="358"/>
      <point x="-907" y="447"/>
      <point x="-869" y="447" type="qcurve" smooth="yes"/>
      <point x="-841" y="447"/>
      <point x="-796" y="425"/>
      <point x="-742" y="384" type="qcurve" smooth="yes"/>
      <point x="-707" y="358"/>
      <point x="-669" y="336"/>
      <point x="-656" y="336" type="qcurve" smooth="yes"/>
      <point x="-641" y="336"/>
      <point x="-612" y="351"/>
      <point x="-585" y="371" type="qcurve" smooth="yes"/>
      <point x="-535" y="408"/>
      <point x="-485" y="434"/>
      <point x="-459" y="434" type="qcurve" smooth="yes"/>
      <point x="-435" y="434"/>
      <point x="-383" y="406"/>
      <point x="-341" y="373" type="qcurve" smooth="yes"/>
      <point x="-316" y="354"/>
      <point x="-284" y="336"/>
      <point x="-269" y="336" type="qcurve" smooth="yes"/>
      <point x="-254" y="336"/>
      <point x="-225" y="351"/>
      <point x="-198" y="371" type="qcurve" smooth="yes"/>
      <point x="-148" y="408"/>
      <point x="-98" y="434"/>
      <point x="-72" y="434" type="qcurve" smooth="yes"/>
      <point x="-51" y="434"/>
      <point x="2" y="404"/>
    </contour>
  </outline>
</glyph>
<glyph name="asciitilde_at.liga" format="2">
  <advance width="614"/>
  <outline>
    <contour>
      <point x="104" y="612" type="qcurve" smooth="yes"/>
      <point x="81" y="588"/>
      <point x="39" y="506"/>
      <point x="14" y="436" type="qcurve"/>
      <point x="-22.0" y="312"/>
      <point x="-100.0" y="205.0"/>
      <point x="-149" y="205" type="qcurve" smooth="yes"/>
      <point x="-177" y="205"/>
      <point x="-236" y="235"/>
      <point x="-285" y="272" type="qcurve" smooth="yes"/>
      <point x="-336" y="311"/>
      <point x="-359" y="326"/>
      <point x="-367" y="326" type="qcurve" smooth="yes"/>
      <point x="-380" y="326"/>
      <point x="-404" y="275"/>
      <point x="-429" y="196" type="qcurve"/>
      <point x="-540" y="226" type="line"/>
      <point x="-504" y="359"/>
      <point x="-438" y="460"/>
      <point x="-380" y="460" type="qcurve" smooth="yes"/>
      <point x="-357" y="460"/>
      <point x="-317" y="441"/>
      <point x="-249" y="390" type="qcurve" smooth="yes"/>
      <point x="-195" y="348"/>
      <point x="-154" y="324"/>
      <point x="-136" y="324" type="qcurve" smooth="yes"/>
      <point x="-114" y="324"/>
      <point x="-83" y="374"/>
      <point x="-44" y="466" type="qcurve" smooth="yes"/>
      <point x="-10" y="548"/>
      <point x="45" y="640"/>
      <point x="74" y="667" type="qcurve" smooth="yes"/>
      <point x="108" y="699"/>
      <point x="204" y="725"/>
      <point x="294" y="725" type="qcurve" smooth="yes"/>
      <point x="375" y="725"/>
      <point x="466" y="668"/>
      <point x="489" y="604" type="qcurve" smooth="yes"/>
      <point x="505" y="562"/>
      <point x="520" y="440"/>
      <point x="520" y="358" type="qcurve" smooth="yes"/>
      <point x="520" y="237"/>
      <point x="435" y="129"/>
      <point x="334" y="129" type="qcurve" smooth="yes"/>
      <point x="246" y="129"/>
      <point x="164" y="223"/>
      <point x="164" y="323" type="qcurve" smooth="yes"/>
      <point x="164" y="422"/>
      <point x="259" y="515"/>
      <point x="361" y="515" type="qcurve" smooth="yes"/>
      <point x="452" y="515" type="line"/>
      <point x="440" y="601"/>
      <point x="373" y="670"/>
      <point x="288" y="670" type="qcurve" smooth="yes"/>
      <point x="216" y="670"/>
      <point x="134" y="644"/>
    </contour>
    <contour>
      <point x="259" y="322" type="qcurve" smooth="yes"/>
      <point x="259" y="267"/>
      <point x="297" y="215"/>
      <point x="338" y="215" type="qcurve" smooth="yes"/>
      <point x="409" y="215"/>
      <point x="460" y="276"/>
      <point x="460" y="356" type="qcurve" smooth="yes"/>
      <point x="460" y="388"/>
      <point x="460" y="417"/>
      <point x="459" y="429" type="qcurve"/>
      <point x="359" y="429" type="line" smooth="yes"/>
      <point x="305" y="429"/>
      <point x="259" y="380"/>
    </contour>
  </outline>
</glyph>
<glyph name="asciitilde_greater.liga" format="2">
  <advance width="614"/>
  <outline>
    <contour>
      <point x="-270" y="384" type="qcurve" smooth="yes"/>
      <point x="-235" y="358"/>
      <point x="-197" y="336"/>
      <point x="-184" y="336" type="qcurve" smooth="yes"/>
      <point x="-169" y="336"/>
      <point x="-140" y="351"/>
      <point x="-113" y="371" type="qcurve" smooth="yes"/>
      <point x="-63" y="408"/>
      <point x="-13" y="434"/>
      <point x="13" y="434" type="qcurve" smooth="yes"/>
      <point x="29" y="434"/>
      <point x="65" y="418"/>
      <point x="116" y="387" type="qcurve" smooth="yes"/>
      <point x="147" y="368"/>
      <point x="178" y="353"/>
      <point x="189" y="353" type="qcurve" smooth="yes"/>
      <point x="206" y="353"/>
      <point x="250" y="362"/>
      <point x="308" y="377" type="qcurve"/>
      <point x="84" y="577" type="line"/>
      <point x="169" y="665" type="line"/>
      <point x="541" y="329" type="line"/>
      <point x="541" y="325" type="line"/>
      <point x="169" y="-11" type="line"/>
      <point x="84" y="77" type="line"/>
      <point x="296" y="266" type="line"/>
      <point x="243" y="246"/>
      <point x="187" y="229"/>
      <point x="172" y="229" type="qcurve" smooth="yes"/>
      <point x="154" y="229"/>
      <point x="116" y="246"/>
      <point x="76" y="271" type="qcurve" smooth="yes"/>
      <point x="51" y="286"/>
      <point x="20" y="300"/>
      <point x="9" y="300" type="qcurve" smooth="yes"/>
      <point x="-6" y="300"/>
      <point x="-35" y="285"/>
      <point x="-62" y="265" type="qcurve" smooth="yes"/>
      <point x="-112" y="228"/>
      <point x="-162" y="202"/>
      <point x="-188" y="202" type="qcurve" smooth="yes"/>
      <point x="-212" y="202"/>
      <point x="-267" y="233"/>
      <point x="-317" y="272" type="qcurve" smooth="yes"/>
      <point x="-361" y="307"/>
      <point x="-372" y="313"/>
      <point x="-378" y="313" type="qcurve" smooth="yes"/>
      <point x="-392" y="313"/>
      <point x="-423" y="263"/>
      <point x="-452" y="202" type="qcurve"/>
      <point x="-556" y="249" type="line"/>
      <point x="-504" y="358"/>
      <point x="-435" y="447"/>
      <point x="-397" y="447" type="qcurve" smooth="yes"/>
      <point x="-369" y="447"/>
      <point x="-324" y="425"/>
    </contour>
  </outline>
</glyph>
<glyph name="asciitilde_hyphen.liga" format="2">
  <advance width="614"/>
  <outline>
    <contour>
      <point x="-64" y="364" type="qcurve" smooth="yes"/>
      <point x="-29" y="378"/>
      <point x="20" y="388"/>
      <point x="46" y="388" type="qcurve" smooth="yes"/>
      <point x="414" y="388" type="line"/>
      <point x="414" y="272" type="line"/>
      <point x="63" y="272" type="line" smooth="yes"/>
      <point x="38" y="272"/>
      <point x="-9" y="262"/>
      <point x="-46" y="246" type="qcurve" smooth="yes"/>
      <point x="-75" y="234"/>
      <point x="-105" y="227"/>
      <point x="-119" y="227" type="qcurve" smooth="yes"/>
      <point x="-145" y="227"/>
      <point x="-198" y="252"/>
      <point x="-237" y="282" type="qcurve" smooth="yes"/>
      <point x="-279" y="314"/>
      <point x="-299" y="326"/>
      <point x="-307" y="326" type="qcurve" smooth="yes"/>
      <point x="-320" y="326"/>
      <point x="-344" y="275"/>
      <point x="-369" y="196" type="qcurve"/>
      <point x="-480" y="226" type="line"/>
      <point x="-444" y="359"/>
      <point x="-378" y="460"/>
      <point x="-320" y="460" type="qcurve" smooth="yes"/>
      <point x="-297" y="460"/>
      <point x="-257" y="441"/>
      <point x="-189" y="390" type="qcurve" smooth="yes"/>
      <point x="-158" y="367"/>
      <point x="-125" y="352"/>
      <point x="-108" y="352" type="qcurve" smooth="yes"/>
      <point x="-101" y="352"/>
      <point x="-83" y="356"/>
    </contour>
  </outline>
</glyph>
<glyph name="bar_bar_bar_greater.liga" format="2">
  <advance width="614"/>
  <outline>
    <contour>
      <point x="-944" y="783" type="line"/>
      <point x="-814" y="783" type="line"/>
      <point x="-814" y="-129" type="line"/>
      <point x="-944" y="-129" type="line"/>
    </contour>
    <contour>
      <point x="-1360" y="783" type="line"/>
      <point x="-1230" y="783" type="line"/>
      <point x="-1230" y="-129" type="line"/>
      <point x="-1360" y="-129" type="line"/>
    </contour>
    <contour>
      <point x="-529" y="-129" type="line"/>
      <point x="-529" y="783" type="line"/>
      <point x="-420" y="783" type="line"/>
      <point x="242" y="387" type="line"/>
      <point x="242" y="256" type="line"/>
      <point x="-420" y="-129" type="line"/>
    </contour>
    <contour>
      <point x="118" y="323" type="line"/>
      <point x="-399" y="621" type="line"/>
      <point x="-399" y="33" type="line"/>
    </contour>
  </outline>
</glyph>
<glyph name="bar_bar_greater.liga" format="2">
  <advance width="614"/>
  <outline>
    <contour>
      <point x="-718" y="783" type="line"/>
      <point x="-718" y="-129" type="line"/>
      <point x="-848" y="-129" type="line"/>
      <point x="-848" y="783" type="line"/>
    </contour>
    <contour>
      <point x="-433" y="783" type="line"/>
      <point x="-324" y="783" type="line"/>
      <point x="338" y="387" type="line"/>
      <point x="338" y="256" type="line"/>
      <point x="-324" y="-129" type="line"/>
      <point x="-433" y="-129" type="line"/>
    </contour>
    <contour>
      <point x="214" y="323" type="line"/>
      <point x="-303" y="621" type="line"/>
      <point x="-303" y="33" type="line"/>
    </contour>
  </outline>
</glyph>
<glyph name="bar_braceright.liga" format="2">
  <advance width="614"/>
  <outline>
    <contour>
      <point x="355" y="-3" type="qcurve" smooth="yes"/>
      <point x="355" y="-53"/>
      <point x="284" y="-106"/>
      <point x="211" y="-110" type="qcurve" smooth="yes"/>
      <point x="-74" y="-128" type="line"/>
      <point x="-78" y="-7" type="line"/>
      <point x="159" y="4" type="line" smooth="yes"/>
      <point x="174" y="5"/>
      <point x="189" y="15"/>
      <point x="189" y="26" type="qcurve" smooth="yes"/>
      <point x="189" y="32"/>
      <point x="177" y="49"/>
      <point x="165" y="61" type="qcurve" smooth="yes"/>
      <point x="117" y="110" type="line" smooth="yes"/>
      <point x="87" y="141"/>
      <point x="63" y="178"/>
      <point x="63" y="197" type="qcurve" smooth="yes"/>
      <point x="63" y="229"/>
      <point x="120" y="268"/>
      <point x="185" y="286" type="qcurve" smooth="yes"/>
      <point x="216" y="294"/>
      <point x="295" y="312"/>
      <point x="345" y="321" type="qcurve"/>
      <point x="345" y="341" type="line"/>
      <point x="295" y="350"/>
      <point x="216" y="367"/>
      <point x="185" y="376" type="qcurve" smooth="yes"/>
      <point x="120" y="394"/>
      <point x="63" y="433"/>
      <point x="63" y="465" type="qcurve" smooth="yes"/>
      <point x="63" y="484"/>
      <point x="87" y="521"/>
      <point x="117" y="552" type="qcurve" smooth="yes"/>
      <point x="165" y="601" type="line" smooth="yes"/>
      <point x="178" y="614"/>
      <point x="189" y="631"/>
      <point x="189" y="636" type="qcurve" smooth="yes"/>
      <point x="189" y="647"/>
      <point x="174" y="657"/>
      <point x="159" y="658" type="qcurve" smooth="yes"/>
      <point x="-78" y="669" type="line"/>
      <point x="-74" y="790" type="line"/>
      <point x="211" y="772" type="line" smooth="yes"/>
      <point x="284" y="768"/>
      <point x="355" y="715"/>
      <point x="355" y="665" type="qcurve" smooth="yes"/>
      <point x="355" y="640"/>
      <point x="330" y="591"/>
      <point x="302" y="563" type="qcurve" smooth="yes"/>
      <point x="254" y="514" type="line" smooth="yes"/>
      <point x="241" y="500"/>
      <point x="230" y="484"/>
      <point x="230" y="477" type="qcurve" smooth="yes"/>
      <point x="230" y="461"/>
      <point x="279" y="439"/>
      <point x="340" y="422" type="qcurve" smooth="yes"/>
      <point x="364" y="416"/>
      <point x="427" y="400"/>
      <point x="466" y="391" type="qcurve"/>
      <point x="466" y="271" type="line"/>
      <point x="427" y="262"/>
      <point x="364" y="246"/>
      <point x="340" y="239" type="qcurve" smooth="yes"/>
      <point x="279" y="223"/>
      <point x="230" y="200"/>
      <point x="230" y="185" type="qcurve" smooth="yes"/>
      <point x="230" y="178"/>
      <point x="241" y="161"/>
      <point x="254" y="148" type="qcurve" smooth="yes"/>
      <point x="302" y="99" type="line" smooth="yes"/>
      <point x="330" y="71"/>
      <point x="355" y="22"/>
    </contour>
    <contour>
      <point x="-242" y="-129" type="line"/>
      <point x="-372" y="-129" type="line"/>
      <point x="-372" y="783" type="line"/>
      <point x="-242" y="783" type="line"/>
    </contour>
  </outline>
</glyph>
<glyph name="bar_greater.liga" format="2">
  <advance width="614"/>
  <outline>
    <contour>
      <point x="-248" y="-129" type="line"/>
      <point x="-357" y="-129" type="line"/>
      <point x="-357" y="783" type="line"/>
      <point x="-248" y="783" type="line"/>
      <point x="414" y="387" type="line"/>
      <point x="414" y="256" type="line"/>
    </contour>
    <contour>
      <point x="290" y="323" type="line"/>
      <point x="-227" y="621" type="line"/>
      <point x="-227" y="33" type="line"/>
    </contour>
  </outline>
</glyph>
<glyph name="braceleft_bar.liga" format="2">
  <advance width="614"/>
  <outline>
    <contour>
      <point x="-353" y="-3" type="qcurve" smooth="yes"/>
      <point x="-353" y="22"/>
      <point x="-328" y="71"/>
      <point x="-300" y="99" type="qcurve" smooth="yes"/>
      <point x="-252" y="148" type="line" smooth="yes"/>
      <point x="-239" y="161"/>
      <point x="-228" y="178"/>
      <point x="-228" y="185" type="qcurve" smooth="yes"/>
      <point x="-228" y="200"/>
      <point x="-277" y="223"/>
      <point x="-338" y="239" type="qcurve" smooth="yes"/>
      <point x="-362" y="246"/>
      <point x="-425" y="262"/>
      <point x="-464" y="271" type="qcurve"/>
      <point x="-464" y="391" type="line"/>
      <point x="-425" y="400"/>
      <point x="-362" y="416"/>
      <point x="-338" y="422" type="qcurve" smooth="yes"/>
      <point x="-277" y="439"/>
      <point x="-228" y="461"/>
      <point x="-228" y="477" type="qcurve" smooth="yes"/>
      <point x="-228" y="484"/>
      <point x="-239" y="500"/>
      <point x="-252" y="514" type="qcurve" smooth="yes"/>
      <point x="-300" y="563" type="line" smooth="yes"/>
      <point x="-328" y="591"/>
      <point x="-353" y="640"/>
      <point x="-353" y="665" type="qcurve" smooth="yes"/>
      <point x="-353" y="715"/>
      <point x="-282" y="768"/>
      <point x="-209" y="772" type="qcurve" smooth="yes"/>
      <point x="76" y="790" type="line"/>
      <point x="80" y="669" type="line"/>
      <point x="-157" y="658" type="line" smooth="yes"/>
      <point x="-172" y="657"/>
      <point x="-187" y="647"/>
      <point x="-187" y="636" type="qcurve" smooth="yes"/>
      <point x="-187" y="631"/>
      <point x="-176" y="614"/>
      <point x="-163" y="601" type="qcurve" smooth="yes"/>
      <point x="-115" y="552" type="line" smooth="yes"/>
      <point x="-85" y="521"/>
      <point x="-61" y="484"/>
      <point x="-61" y="465" type="qcurve" smooth="yes"/>
      <point x="-61" y="433"/>
      <point x="-118" y="394"/>
      <point x="-183" y="376" type="qcurve" smooth="yes"/>
      <point x="-214" y="367"/>
      <point x="-293" y="350"/>
      <point x="-343" y="341" type="qcurve"/>
      <point x="-343" y="321" type="line"/>
      <point x="-293" y="312"/>
      <point x="-214" y="294"/>
      <point x="-183" y="286" type="qcurve" smooth="yes"/>
      <point x="-118" y="268"/>
      <point x="-61" y="229"/>
      <point x="-61" y="197" type="qcurve" smooth="yes"/>
      <point x="-61" y="178"/>
      <point x="-85" y="141"/>
      <point x="-115" y="110" type="qcurve" smooth="yes"/>
      <point x="-163" y="61" type="line" smooth="yes"/>
      <point x="-175" y="49"/>
      <point x="-187" y="32"/>
      <point x="-187" y="26" type="qcurve" smooth="yes"/>
      <point x="-187" y="15"/>
      <point x="-172" y="5"/>
      <point x="-157" y="4" type="qcurve" smooth="yes"/>
      <point x="80" y="-7" type="line"/>
      <point x="76" y="-128" type="line"/>
      <point x="-209" y="-110" type="line" smooth="yes"/>
      <point x="-282" y="-106"/>
      <point x="-353" y="-53"/>
    </contour>
    <contour>
      <point x="242" y="783" type="line"/>
      <point x="372" y="783" type="line"/>
      <point x="372" y="-129" type="line"/>
      <point x="242" y="-129" type="line"/>
    </contour>
  </outline>
</glyph>
<glyph name="brevegrave.cap" format="2">
  <outline>
    <contour>
      <point x="-191" y="1071" type="line"/>
      <point x="62" y="982" type="line"/>
      <point x="36" y="901" type="line"/>
      <point x="-222" y="974" type="line"/>
    </contour>
    <contour>
      <point x="0" y="826" type="qcurve"/>
      <point x="41" y="826"/>
      <point x="99" y="870"/>
      <point x="114" y="913" type="qcurve"/>
      <point x="198" y="883" type="line"/>
      <point x="179" y="810"/>
      <point x="74" y="731"/>
      <point x="0" y="731" type="qcurve"/>
      <point x="-75" y="731"/>
      <point x="-180" y="805"/>
      <point x="-198" y="873" type="qcurve"/>
      <point x="-114" y="903" type="line"/>
      <point x="-101" y="865"/>
      <point x="-44" y="826"/>
    </contour>
  </outline>
</glyph>
<glyph name="brevegrave" format="2">
  <outline>
    <contour>
      <point x="-176" y="929" type="line"/>
      <point x="69" y="823" type="line"/>
      <point x="35" y="746" type="line"/>
      <point x="-215" y="837" type="line"/>
    </contour>
    <contour>
      <point x="0" y="648" type="qcurve"/>
      <point x="40" y="648"/>
      <point x="97" y="697"/>
      <point x="114" y="745" type="qcurve"/>
      <point x="198" y="715" type="line"/>
      <point x="177" y="637"/>
      <point x="74" y="553"/>
      <point x="0" y="553" type="qcurve"/>
      <point x="-74" y="553"/>
      <point x="-177" y="637"/>
      <point x="-198" y="715" type="qcurve"/>
      <point x="-114" y="745" type="line"/>
      <point x="-97" y="696"/>
      <point x="-40" y="648"/>
    </contour>
  </outline>
</glyph>
<glyph name="brevehook" format="2">
  <outline>
    <contour>
      <point x="150" y="861" type="qcurve"/>
      <point x="150" y="819"/>
      <point x="49" y="759"/>
      <point x="-50" y="742" type="qcurve"/>
      <point x="-80" y="799" type="line"/>
      <point x="-80" y="801" type="line"/>
      <point x="-21" y="814"/>
      <point x="26" y="833"/>
      <point x="26" y="845" type="qcurve"/>
      <point x="26" y="858"/>
      <point x="-38" y="875"/>
      <point x="-116" y="885" type="qcurve"/>
      <point x="-116" y="887" type="line"/>
      <point x="-64" y="951" type="line"/>
      <point x="57" y="933"/>
      <point x="150" y="895"/>
    </contour>
    <contour>
      <point x="0" y="648" type="qcurve"/>
      <point x="40" y="648"/>
      <point x="97" y="697"/>
      <point x="114" y="745" type="qcurve"/>
      <point x="198" y="715" type="line"/>
      <point x="177" y="637"/>
      <point x="74" y="553"/>
      <point x="0" y="553" type="qcurve"/>
      <point x="-74" y="553"/>
      <point x="-177" y="637"/>
      <point x="-198" y="715" type="qcurve"/>
      <point x="-114" y="745" type="line"/>
      <point x="-97" y="696"/>
      <point x="-40" y="648"/>
    </contour>
  </outline>
</glyph>
<glyph name="circumflexgrave.cap" format="2">
  <outline>
    <contour>
      <point x="86" y="1058" type="line"/>
      <point x="241" y="976" type="line"/>
      <point x="203" y="897" type="line"/>
      <point x="40" y="964" type="line"/>
    </contour>
    <contour>
      <point x="-158" y="731" type="line"/>
      <point x="-199" y="801" type="line"/>
      <point x="-21" y="910" type="line"/>
      <point x="21" y="910" type="line"/>
      <point x="200" y="801" type="line"/>
      <point x="160" y="731" type="line"/>
      <point x="0" y="806" type="line"/>
    </contour>
  </outline>
</glyph>
<glyph name="circumflexgrave" format="2">
  <outline>
    <contour>
      <point x="78" y="891" type="line"/>
      <point x="240" y="784" type="line"/>
      <point x="196" y="718" type="line"/>
      <point x="27" y="811" type="line"/>
    </contour>
    <contour>
      <point x="-141" y="553" type="line"/>
      <point x="-188" y="609" type="line"/>
      <point x="-31" y="738" type="line"/>
      <point x="31" y="738" type="line"/>
      <point x="188" y="609" type="line"/>
      <point x="141" y="553" type="line"/>
      <point x="0" y="638" type="line"/>
    </contour>
  </outline>
</glyph>
<glyph name="circumflexhook.cap" format="2">
  <outline>
    <contour>
      <point x="304" y="1017" type="qcurve"/>
      <point x="304" y="977"/>
      <point x="208" y="919"/>
      <point x="114" y="903" type="qcurve"/>
      <point x="84" y="960" type="line"/>
      <point x="84" y="962" type="line"/>
      <point x="139" y="974"/>
      <point x="180" y="990"/>
      <point x="180" y="1001" type="qcurve"/>
      <point x="180" y="1011"/>
      <point x="119" y="1025"/>
      <point x="38" y="1036" type="qcurve"/>
      <point x="38" y="1038" type="line"/>
      <point x="90" y="1107" type="line"/>
      <point x="204" y="1094"/>
      <point x="304" y="1053"/>
    </contour>
    <contour>
      <point x="-158" y="731" type="line"/>
      <point x="-199" y="801" type="line"/>
      <point x="-21" y="910" type="line"/>
      <point x="21" y="910" type="line"/>
      <point x="200" y="801" type="line"/>
      <point x="160" y="731" type="line"/>
      <point x="0" y="806" type="line"/>
    </contour>
  </outline>
</glyph>
<glyph name="circumflexhook" format="2">
  <outline>
    <contour>
      <point x="307" y="850" type="qcurve"/>
      <point x="307" y="808"/>
      <point x="206" y="748"/>
      <point x="107" y="731" type="qcurve"/>
      <point x="77" y="788" type="line"/>
      <point x="77" y="790" type="line"/>
      <point x="136" y="803"/>
      <point x="183" y="822"/>
      <point x="183" y="834" type="qcurve"/>
      <point x="183" y="847"/>
      <point x="119" y="864"/>
      <point x="41" y="874" type="qcurve"/>
      <point x="41" y="876" type="line"/>
      <point x="93" y="940" type="line"/>
      <point x="214" y="922"/>
      <point x="307" y="884"/>
    </contour>
    <contour>
      <point x="-141" y="553" type="line"/>
      <point x="-188" y="609" type="line"/>
      <point x="-31" y="738" type="line"/>
      <point x="31" y="738" type="line"/>
      <point x="188" y="609" type="line"/>
      <point x="141" y="553" type="line"/>
      <point x="0" y="638" type="line"/>
    </contour>
  </outline>
</glyph>
<glyph name="circumflextilde" format="2">
  <outline>
    <contour>
      <point x="-67" y="937" type="qcurve"/>
      <point x="-50" y="937"/>
      <point x="-17" y="922"/>
      <point x="21" y="897" type="qcurve"/>
      <point x="65" y="869"/>
      <point x="80" y="861"/>
      <point x="86" y="861" type="qcurve"/>
      <point x="99" y="861"/>
      <point x="122" y="899"/>
      <point x="138" y="940" type="qcurve"/>
      <point x="213" y="917" type="line"/>
      <point x="185" y="836"/>
      <point x="132" y="768"/>
      <point x="98" y="768" type="qcurve"/>
      <point x="81" y="768"/>
      <point x="48" y="783"/>
      <point x="10" y="808" type="qcurve"/>
      <point x="-34" y="836"/>
      <point x="-49" y="844"/>
      <point x="-55" y="844" type="qcurve"/>
      <point x="-68" y="844"/>
      <point x="-91" y="806"/>
      <point x="-107" y="765" type="qcurve"/>
      <point x="-182" y="788" type="line"/>
      <point x="-154" y="869"/>
      <point x="-101" y="937"/>
    </contour>
    <contour>
      <point x="-141" y="553" type="line"/>
      <point x="-188" y="609" type="line"/>
      <point x="-31" y="738" type="line"/>
      <point x="31" y="738" type="line"/>
      <point x="188" y="609" type="line"/>
      <point x="141" y="553" type="line"/>
      <point x="0" y="638" type="line"/>
    </contour>
  </outline>
</glyph>
<glyph name="colon_colon_equal.liga" format="2">
  <advance width="614"/>
  <outline>
    <contour>
      <point x="-738" y="483" type="qcurve" smooth="yes"/>
      <point x="-738" y="434"/>
      <point x="-801" y="383"/>
      <point x="-862" y="383" type="qcurve" smooth="yes"/>
      <point x="-923" y="383"/>
      <point x="-984" y="433"/>
      <point x="-984" y="482" type="qcurve" smooth="yes"/>
      <point x="-984" y="530"/>
      <point x="-920" y="582"/>
      <point x="-861" y="582" type="qcurve" smooth="yes"/>
      <point x="-798" y="582"/>
      <point x="-738" y="534"/>
    </contour>
    <contour>
      <point x="-284" y="483" type="qcurve" smooth="yes"/>
      <point x="-284" y="434"/>
      <point x="-347" y="383"/>
      <point x="-408" y="383" type="qcurve" smooth="yes"/>
      <point x="-469" y="383"/>
      <point x="-530" y="433"/>
      <point x="-530" y="482" type="qcurve" smooth="yes"/>
      <point x="-530" y="530"/>
      <point x="-466" y="582"/>
      <point x="-407" y="582" type="qcurve" smooth="yes"/>
      <point x="-344" y="582"/>
      <point x="-284" y="534"/>
    </contour>
    <contour>
      <point x="403" y="384" type="line"/>
      <point x="-49" y="384" type="line"/>
      <point x="-49" y="500" type="line"/>
      <point x="403" y="500" type="line"/>
    </contour>
    <contour>
      <point x="403" y="161" type="line"/>
      <point x="-49" y="161" type="line"/>
      <point x="-49" y="276" type="line"/>
      <point x="403" y="276" type="line"/>
    </contour>
    <contour>
      <point x="-738" y="176" type="qcurve" smooth="yes"/>
      <point x="-738" y="127"/>
      <point x="-802" y="76"/>
      <point x="-862" y="76" type="qcurve" smooth="yes"/>
      <point x="-922" y="76"/>
      <point x="-984" y="127"/>
      <point x="-984" y="176" type="qcurve" smooth="yes"/>
      <point x="-984" y="223"/>
      <point x="-920" y="276"/>
      <point x="-861" y="276" type="qcurve" smooth="yes"/>
      <point x="-798" y="276"/>
      <point x="-738" y="227"/>
    </contour>
    <contour>
      <point x="-284" y="176" type="qcurve" smooth="yes"/>
      <point x="-284" y="127"/>
      <point x="-348" y="76"/>
      <point x="-408" y="76" type="qcurve" smooth="yes"/>
      <point x="-468" y="76"/>
      <point x="-530" y="127"/>
      <point x="-530" y="176" type="qcurve" smooth="yes"/>
      <point x="-530" y="223"/>
      <point x="-466" y="276"/>
      <point x="-407" y="276" type="qcurve" smooth="yes"/>
      <point x="-344" y="276"/>
      <point x="-284" y="227"/>
    </contour>
  </outline>
</glyph>
<glyph name="colon_equal.liga" format="2">
  <advance width="614"/>
  <outline>
    <contour>
      <point x="-222" y="483" type="qcurve" smooth="yes"/>
      <point x="-222" y="434"/>
      <point x="-285" y="383"/>
      <point x="-346" y="383" type="qcurve" smooth="yes"/>
      <point x="-407" y="383"/>
      <point x="-468" y="433"/>
      <point x="-468" y="482" type="qcurve" smooth="yes"/>
      <point x="-468" y="530"/>
      <point x="-404" y="582"/>
      <point x="-345" y="582" type="qcurve" smooth="yes"/>
      <point x="-282" y="582"/>
      <point x="-222" y="534"/>
    </contour>
    <contour>
      <point x="485" y="384" type="line"/>
      <point x="-17" y="384" type="line"/>
      <point x="-17" y="500" type="line"/>
      <point x="485" y="500" type="line"/>
    </contour>
    <contour>
      <point x="485" y="161" type="line"/>
      <point x="-17" y="161" type="line"/>
      <point x="-17" y="276" type="line"/>
      <point x="485" y="276" type="line"/>
    </contour>
    <contour>
      <point x="-222" y="176" type="qcurve" smooth="yes"/>
      <point x="-222" y="127"/>
      <point x="-286" y="76"/>
      <point x="-346" y="76" type="qcurve" smooth="yes"/>
      <point x="-406" y="76"/>
      <point x="-468" y="127"/>
      <point x="-468" y="176" type="qcurve" smooth="yes"/>
      <point x="-468" y="223"/>
      <point x="-404" y="276"/>
      <point x="-345" y="276" type="qcurve" smooth="yes"/>
      <point x="-282" y="276"/>
      <point x="-222" y="227"/>
    </contour>
  </outline>
</glyph>
<glyph name="colon_greater.liga" format="2">
  <advance width="614"/>
  <outline>
    <contour>
      <point x="-176" y="483" type="qcurve" smooth="yes"/>
      <point x="-176" y="434"/>
      <point x="-239" y="383"/>
      <point x="-300" y="383" type="qcurve" smooth="yes"/>
      <point x="-361" y="383"/>
      <point x="-422" y="433"/>
      <point x="-422" y="482" type="qcurve" smooth="yes"/>
      <point x="-422" y="530"/>
      <point x="-358" y="582"/>
      <point x="-299" y="582" type="qcurve" smooth="yes"/>
      <point x="-236" y="582"/>
      <point x="-176" y="534"/>
    </contour>
    <contour>
      <point x="486" y="387" type="line"/>
      <point x="486" y="256" type="line"/>
      <point x="0" y="52" type="line"/>
      <point x="0" y="187" type="line"/>
      <point x="343" y="321" type="line"/>
      <point x="0" y="454" type="line"/>
      <point x="0" y="589" type="line"/>
    </contour>
    <contour>
      <point x="-176" y="176" type="qcurve" smooth="yes"/>
      <point x="-176" y="127"/>
      <point x="-240" y="76"/>
      <point x="-300" y="76" type="qcurve" smooth="yes"/>
      <point x="-360" y="76"/>
      <point x="-422" y="127"/>
      <point x="-422" y="176" type="qcurve" smooth="yes"/>
      <point x="-422" y="223"/>
      <point x="-358" y="276"/>
      <point x="-299" y="276" type="qcurve" smooth="yes"/>
      <point x="-236" y="276"/>
      <point x="-176" y="227"/>
    </contour>
  </outline>
</glyph>
<glyph name="colon_less.liga" format="2">
  <advance width="614"/>
  <outline>
    <contour>
      <point x="-174" y="483" type="qcurve" smooth="yes"/>
      <point x="-174" y="434"/>
      <point x="-237" y="383"/>
      <point x="-298" y="383" type="qcurve" smooth="yes"/>
      <point x="-359" y="383"/>
      <point x="-420" y="433"/>
      <point x="-420" y="482" type="qcurve" smooth="yes"/>
      <point x="-420" y="530"/>
      <point x="-356" y="582"/>
      <point x="-297" y="582" type="qcurve" smooth="yes"/>
      <point x="-234" y="582"/>
      <point x="-174" y="534"/>
    </contour>
    <contour>
      <point x="447" y="187" type="line"/>
      <point x="447" y="52" type="line"/>
      <point x="-39" y="256" type="line"/>
      <point x="-39" y="387" type="line"/>
      <point x="447" y="589" type="line"/>
      <point x="447" y="454" type="line"/>
      <point x="104" y="321" type="line"/>
    </contour>
    <contour>
      <point x="-174" y="176" type="qcurve" smooth="yes"/>
      <point x="-174" y="127"/>
      <point x="-238" y="76"/>
      <point x="-298" y="76" type="qcurve" smooth="yes"/>
      <point x="-358" y="76"/>
      <point x="-420" y="127"/>
      <point x="-420" y="176" type="qcurve" smooth="yes"/>
      <point x="-420" y="223"/>
      <point x="-356" y="276"/>
      <point x="-297" y="276" type="qcurve" smooth="yes"/>
      <point x="-234" y="276"/>
      <point x="-174" y="227"/>
    </contour>
  </outline>
</glyph>
<glyph name="dieresiscaron" format="2">
  <outline>
    <contour>
      <point x="141" y="911" type="line"/>
      <point x="188" y="855" type="line"/>
      <point x="21" y="726" type="line"/>
      <point x="-21" y="726" type="line"/>
      <point x="-188" y="855" type="line"/>
      <point x="-141" y="911" type="line"/>
      <point x="0" y="826" type="line"/>
    </contour>
    <contour>
      <point x="-41" y="634" type="qcurve"/>
      <point x="-41" y="605"/>
      <point x="-80" y="573"/>
      <point x="-116" y="573" type="qcurve"/>
      <point x="-151" y="573"/>
      <point x="-189" y="605"/>
      <point x="-189" y="634" type="qcurve"/>
      <point x="-189" y="662"/>
      <point x="-149" y="696"/>
      <point x="-115" y="696" type="qcurve"/>
      <point x="-79" y="696"/>
      <point x="-41" y="664"/>
    </contour>
    <contour>
      <point x="189" y="634" type="qcurve"/>
      <point x="189" y="605"/>
      <point x="150" y="573"/>
      <point x="114" y="573" type="qcurve"/>
      <point x="79" y="573"/>
      <point x="41" y="605"/>
      <point x="41" y="634" type="qcurve"/>
      <point x="41" y="662"/>
      <point x="81" y="696"/>
      <point x="115" y="696" type="qcurve"/>
      <point x="151" y="696"/>
      <point x="189" y="664"/>
    </contour>
  </outline>
</glyph>
<glyph name="dieresismacron.cap" format="2">
  <outline>
    <contour>
      <point x="169" y="953" type="line"/>
      <point x="-169" y="953" type="line"/>
      <point x="-169" y="1055" type="line"/>
      <point x="169" y="1055" type="line"/>
    </contour>
    <contour>
      <point x="-51" y="817" type="qcurve"/>
      <point x="-51" y="786"/>
      <point x="-91" y="751"/>
      <point x="-126" y="751" type="qcurve"/>
      <point x="-161" y="751"/>
      <point x="-199" y="785"/>
      <point x="-199" y="817" type="qcurve"/>
      <point x="-199" y="847"/>
      <point x="-159" y="884"/>
      <point x="-125" y="884" type="qcurve"/>
      <point x="-89" y="884"/>
      <point x="-51" y="850"/>
    </contour>
    <contour>
      <point x="199" y="817" type="qcurve"/>
      <point x="199" y="786"/>
      <point x="159" y="751"/>
      <point x="124" y="751" type="qcurve"/>
      <point x="89" y="751"/>
      <point x="51" y="785"/>
      <point x="51" y="817" type="qcurve"/>
      <point x="51" y="847"/>
      <point x="91" y="884"/>
      <point x="125" y="884" type="qcurve"/>
      <point x="161" y="884"/>
      <point x="199" y="850"/>
    </contour>
  </outline>
</glyph>
<glyph name="dieresismacron" format="2">
  <outline>
    <contour>
      <point x="171" y="761" type="line"/>
      <point x="-171" y="761" type="line"/>
      <point x="-171" y="859" type="line"/>
      <point x="171" y="859" type="line"/>
    </contour>
    <contour>
      <point x="-41" y="634" type="qcurve"/>
      <point x="-41" y="605"/>
      <point x="-80" y="573"/>
      <point x="-116" y="573" type="qcurve"/>
      <point x="-151" y="573"/>
      <point x="-189" y="605"/>
      <point x="-189" y="634" type="qcurve"/>
      <point x="-189" y="662"/>
      <point x="-149" y="696"/>
      <point x="-115" y="696" type="qcurve"/>
      <point x="-79" y="696"/>
      <point x="-41" y="664"/>
    </contour>
    <contour>
      <point x="189" y="634" type="qcurve"/>
      <point x="189" y="605"/>
      <point x="150" y="573"/>
      <point x="114" y="573" type="qcurve"/>
      <point x="79" y="573"/>
      <point x="41" y="605"/>
      <point x="41" y="634" type="qcurve"/>
      <point x="41" y="662"/>
      <point x="81" y="696"/>
      <point x="115" y="696" type="qcurve"/>
      <point x="151" y="696"/>
      <point x="189" y="664"/>
    </contour>
  </outline>
</glyph>
<glyph name="dollar_greater.liga" format="2">
  <advance width="614"/>
  <outline>
    <contour>
      <point x="-257" y="4" type="qcurve"/>
      <point x="-257" y="-142" type="line"/>
      <point x="-348" y="-142" type="line"/>
      <point x="-348" y="1" type="line"/>
      <point x="-394" y="3"/>
      <point x="-497" y="22"/>
      <point x="-560" y="41" type="qcurve"/>
      <point x="-534" y="162" type="line"/>
      <point x="-458" y="139"/>
      <point x="-354" y="119"/>
      <point x="-316" y="119" type="qcurve" smooth="yes"/>
      <point x="-263" y="119"/>
      <point x="-212" y="150"/>
      <point x="-212" y="183" type="qcurve" smooth="yes"/>
      <point x="-212" y="213"/>
      <point x="-252" y="243"/>
      <point x="-316" y="263" type="qcurve" smooth="yes"/>
      <point x="-378" y="283" type="line" smooth="yes"/>
      <point x="-463" y="309"/>
      <point x="-539" y="398"/>
      <point x="-539" y="470" type="qcurve" smooth="yes"/>
      <point x="-539" y="541"/>
      <point x="-436" y="640"/>
      <point x="-348" y="652" type="qcurve"/>
      <point x="-348" y="796" type="line"/>
      <point x="-257" y="796" type="line"/>
      <point x="-257" y="654" type="line"/>
      <point x="-197" y="651"/>
      <point x="-84" y="626"/>
      <point x="-16" y="601" type="qcurve" smooth="yes"/>
      <point x="556" y="387" type="line"/>
      <point x="556" y="256" type="line"/>
      <point x="70" y="52" type="line"/>
      <point x="70" y="187" type="line"/>
      <point x="409" y="320" type="line"/>
      <point x="-61" y="491" type="line" smooth="yes"/>
      <point x="-121" y="513"/>
      <point x="-244" y="536"/>
      <point x="-299" y="536" type="qcurve" smooth="yes"/>
      <point x="-348" y="536"/>
      <point x="-395" y="509"/>
      <point x="-395" y="482" type="qcurve" smooth="yes"/>
      <point x="-395" y="450"/>
      <point x="-351" y="415"/>
      <point x="-295" y="399" type="qcurve" smooth="yes"/>
      <point x="-229" y="380" type="line" smooth="yes"/>
      <point x="-140" y="354"/>
      <point x="-67" y="270"/>
      <point x="-67" y="193" type="qcurve" smooth="yes"/>
      <point x="-67" y="117"/>
      <point x="-167" y="17"/>
    </contour>
  </outline>
</glyph>
<glyph name="eight.den" format="2">
  <advance width="614"/>
  <outline>
    <contour>
      <point x="465" y="97" type="qcurve"/>
      <point x="465" y="47"/>
      <point x="377" y="-15"/>
      <point x="306" y="-15" type="qcurve"/>
      <point x="236" y="-15"/>
      <point x="149" y="46"/>
      <point x="149" y="96" type="qcurve"/>
      <point x="149" y="129"/>
      <point x="196" y="182"/>
      <point x="237" y="195" type="qcurve"/>
      <point x="237" y="197" type="line"/>
      <point x="201" y="208"/>
      <point x="160" y="255"/>
      <point x="160" y="286" type="qcurve"/>
      <point x="160" y="335"/>
      <point x="242" y="395"/>
      <point x="308" y="395" type="qcurve"/>
      <point x="374" y="395"/>
      <point x="454" y="336"/>
      <point x="454" y="287" type="qcurve"/>
      <point x="454" y="256"/>
      <point x="414" y="209"/>
      <point x="377" y="197" type="qcurve"/>
      <point x="377" y="195" type="line"/>
      <point x="418" y="182"/>
      <point x="465" y="130"/>
    </contour>
    <contour>
      <point x="248" y="274" type="qcurve"/>
      <point x="248" y="252"/>
      <point x="281" y="226"/>
      <point x="307" y="226" type="qcurve"/>
      <point x="334" y="226"/>
      <point x="366" y="253"/>
      <point x="366" y="276" type="qcurve"/>
      <point x="366" y="299"/>
      <point x="335" y="325"/>
      <point x="308" y="325" type="qcurve"/>
      <point x="281" y="325"/>
      <point x="248" y="297"/>
    </contour>
    <contour>
      <point x="239" y="109" type="qcurve"/>
      <point x="239" y="84"/>
      <point x="276" y="54"/>
      <point x="307" y="54" type="qcurve"/>
      <point x="337" y="54"/>
      <point x="375" y="85"/>
      <point x="375" y="110" type="qcurve"/>
      <point x="375" y="134"/>
      <point x="338" y="163"/>
      <point x="307" y="163" type="qcurve"/>
      <point x="276" y="163"/>
      <point x="239" y="134"/>
    </contour>
  </outline>
</glyph>
<glyph name="equal_asciitilde.liga" format="2">
  <advance width="614"/>
  <outline>
    <contour>
      <point x="117" y="471" type="qcurve" smooth="yes"/>
      <point x="135" y="471"/>
      <point x="166" y="513"/>
      <point x="208" y="589" type="qcurve"/>
      <point x="312" y="541" type="line"/>
      <point x="250.0" y="415"/>
      <point x="174.0" y="348.0"/>
      <point x="130" y="348" type="qcurve" smooth="yes"/>
      <point x="109" y="348"/>
      <point x="44" y="379"/>
      <point x="-10" y="414" type="qcurve" smooth="yes"/>
      <point x="-62" y="448"/>
      <point x="-106" y="472"/>
      <point x="-118" y="472" type="qcurve" smooth="yes"/>
      <point x="-133" y="472"/>
      <point x="-159" y="437"/>
      <point x="-199" y="364" type="qcurve"/>
      <point x="-303" y="412" type="line"/>
      <point x="-254.0" y="520"/>
      <point x="-180.0" y="595.0"/>
      <point x="-131" y="595" type="qcurve" smooth="yes"/>
      <point x="-110" y="595"/>
      <point x="-45" y="564"/>
      <point x="9" y="529" type="qcurve" smooth="yes"/>
      <point x="61" y="495"/>
      <point x="105" y="471"/>
    </contour>
    <contour>
      <point x="117" y="188" type="qcurve" smooth="yes"/>
      <point x="132" y="188"/>
      <point x="158" y="223"/>
      <point x="198" y="296" type="qcurve"/>
      <point x="302" y="248" type="line"/>
      <point x="260" y="149"/>
      <point x="183.0" y="65.0"/>
      <point x="130" y="65" type="qcurve" smooth="yes"/>
      <point x="109" y="65"/>
      <point x="44" y="96"/>
      <point x="-10" y="131" type="qcurve" smooth="yes"/>
      <point x="-62" y="165"/>
      <point x="-106" y="189"/>
      <point x="-118" y="189" type="qcurve" smooth="yes"/>
      <point x="-136" y="189"/>
      <point x="-167" y="147"/>
      <point x="-209" y="71" type="qcurve"/>
      <point x="-313" y="119" type="line"/>
      <point x="-246.0" y="256.0"/>
      <point x="-173.0" y="312"/>
      <point x="-131" y="312" type="qcurve" smooth="yes"/>
      <point x="-110" y="312"/>
      <point x="-45" y="281"/>
      <point x="9" y="246" type="qcurve" smooth="yes"/>
      <point x="61" y="212"/>
      <point x="105" y="188"/>
    </contour>
  </outline>
</glyph>
<glyph name="equal_colon_equal.middle" format="2">
  <advance width="614"/>
  <outline>
    <contour>
      <point x="430" y="483" type="qcurve" smooth="yes"/>
      <point x="430" y="434"/>
      <point x="367" y="383"/>
      <point x="306" y="383" type="qcurve" smooth="yes"/>
      <point x="245" y="383"/>
      <point x="184" y="433"/>
      <point x="184" y="482" type="qcurve" smooth="yes"/>
      <point x="184" y="530"/>
      <point x="248" y="582"/>
      <point x="307" y="582" type="qcurve" smooth="yes"/>
      <point x="370" y="582"/>
      <point x="430" y="534"/>
    </contour>
    <contour>
      <point x="5" y="384" type="line"/>
      <point x="0" y="384" type="line"/>
      <point x="0" y="500" type="line"/>
      <point x="5" y="500" type="line"/>
    </contour>
    <contour>
      <point x="614" y="384" type="line"/>
      <point x="609" y="384" type="line"/>
      <point x="609" y="500" type="line"/>
      <point x="614" y="500" type="line"/>
    </contour>
    <contour>
      <point x="5" y="161" type="line"/>
      <point x="0" y="161" type="line"/>
      <point x="0" y="276" type="line"/>
      <point x="5" y="276" type="line"/>
    </contour>
    <contour>
      <point x="614" y="161" type="line"/>
      <point x="609" y="161" type="line"/>
      <point x="609" y="276" type="line"/>
      <point x="614" y="276" type="line"/>
    </contour>
    <contour>
      <point x="430" y="176" type="qcurve" smooth="yes"/>
      <point x="430" y="127"/>
      <point x="366" y="76"/>
      <point x="306" y="76" type="qcurve" smooth="yes"/>
      <point x="246" y="76"/>
      <point x="184" y="127"/>
      <point x="184" y="176" type="qcurve" smooth="yes"/>
      <point x="184" y="223"/>
      <point x="248" y="276"/>
      <point x="307" y="276" type="qcurve" smooth="yes"/>
      <point x="370" y="276"/>
      <point x="430" y="227"/>
    </contour>
  </outline>
</glyph>
<glyph name="equal_exclam_equal.middle" format="2">
  <advance width="614"/>
  <outline>
    <contour>
      <point x="356" y="277" type="line"/>
      <point x="258" y="277" type="line"/>
      <point x="175" y="710" type="line"/>
      <point x="440" y="710" type="line"/>
    </contour>
    <contour>
      <point x="15" y="384" type="line"/>
      <point x="0" y="384" type="line"/>
      <point x="0" y="500" type="line"/>
      <point x="15" y="500" type="line"/>
    </contour>
    <contour>
      <point x="614" y="384" type="line"/>
      <point x="599" y="384" type="line"/>
      <point x="599" y="500" type="line"/>
      <point x="614" y="500" type="line"/>
    </contour>
    <contour>
      <point x="15" y="161" type="line"/>
      <point x="0" y="161" type="line"/>
      <point x="0" y="276" type="line"/>
      <point x="15" y="276" type="line"/>
    </contour>
    <contour>
      <point x="614" y="161" type="line"/>
      <point x="599" y="161" type="line"/>
      <point x="599" y="276" type="line"/>
      <point x="614" y="276" type="line"/>
    </contour>
    <contour>
      <point x="421" y="73" type="qcurve" smooth="yes"/>
      <point x="421" y="27"/>
      <point x="363" y="-15"/>
      <point x="299" y="-15" type="qcurve" smooth="yes"/>
      <point x="235" y="-15"/>
      <point x="179" y="26"/>
      <point x="179" y="73" type="qcurve" smooth="yes"/>
      <point x="179" y="119"/>
      <point x="238" y="161"/>
      <point x="301" y="161" type="qcurve" smooth="yes"/>
      <point x="365" y="161"/>
      <point x="421" y="121"/>
    </contour>
  </outline>
</glyph>
<glyph name="equal_greater_greater.end" format="2">
  <advance width="614"/>
  <outline>
    <contour>
      <point x="198" y="329" type="line"/>
      <point x="198" y="325" type="line"/>
      <point x="-174" y="-11" type="line"/>
      <point x="-259" y="77" type="line"/>
      <point x="-165" y="161" type="line"/>
      <point x="-1238" y="161" type="line"/>
      <point x="-1238" y="276" type="line"/>
      <point x="-36" y="276" type="line"/>
      <point x="22" y="327" type="line"/>
      <point x="-42" y="384" type="line"/>
      <point x="-1238" y="384" type="line"/>
      <point x="-1238" y="500" type="line"/>
      <point x="-173" y="500" type="line"/>
      <point x="-259" y="577" type="line"/>
      <point x="-174" y="665" type="line"/>
    </contour>
    <contour>
      <point x="542" y="325" type="line"/>
      <point x="180" y="-11" type="line"/>
      <point x="95" y="77" type="line"/>
      <point x="368" y="327" type="line"/>
      <point x="95" y="577" type="line"/>
      <point x="180" y="665" type="line"/>
      <point x="542" y="329" type="line"/>
    </contour>
  </outline>
</glyph>
<glyph name="equal_less.liga" format="2">
  <advance width="614"/>
  <outline>
    <contour>
      <point x="529" y="578" type="line"/>
      <point x="317" y="384" type="line"/>
      <point x="-533" y="384" type="line"/>
      <point x="-533" y="500" type="line"/>
      <point x="265" y="500" type="line"/>
      <point x="444" y="666" type="line"/>
    </contour>
    <contour>
      <point x="259" y="161" type="line"/>
      <point x="-533" y="161" type="line"/>
      <point x="-533" y="276" type="line"/>
      <point x="313" y="276" type="line"/>
      <point x="529" y="78" type="line"/>
      <point x="444" y="-10" type="line"/>
    </contour>
  </outline>
</glyph>
<glyph name="equal_less_less.liga" format="2">
  <advance width="614"/>
  <outline>
    <contour>
      <point x="176" y="578" type="line"/>
      <point x="-36" y="384" type="line"/>
      <point x="-1147" y="384" type="line"/>
      <point x="-1147" y="500" type="line"/>
      <point x="-88" y="500" type="line"/>
      <point x="91" y="666" type="line"/>
    </contour>
    <contour>
      <point x="444" y="-11" type="line"/>
      <point x="72" y="325" type="line"/>
      <point x="72" y="329" type="line"/>
      <point x="444" y="665" type="line"/>
      <point x="529" y="577" type="line"/>
      <point x="248" y="327" type="line"/>
      <point x="529" y="77" type="line"/>
    </contour>
    <contour>
      <point x="-94" y="161" type="line"/>
      <point x="-1147" y="161" type="line"/>
      <point x="-1147" y="276" type="line"/>
      <point x="-40" y="276" type="line"/>
      <point x="176" y="78" type="line"/>
      <point x="91" y="-10" type="line"/>
    </contour>
  </outline>
</glyph>
<glyph name="equal_slash_slash_equal.middle" format="2">
  <advance width="614"/>
  <outline>
    <contour>
      <point x="-44" y="755" type="line"/>
      <point x="91" y="755" type="line"/>
      <point x="-307" y="-100" type="line"/>
      <point x="-443" y="-100" type="line"/>
      <point x="-321" y="161" type="line"/>
      <point x="-624" y="161" type="line"/>
      <point x="-624" y="276" type="line"/>
      <point x="-268" y="276" type="line"/>
      <point x="-217" y="384" type="line"/>
      <point x="-624" y="384" type="line"/>
      <point x="-624" y="500" type="line"/>
      <point x="-163" y="500" type="line"/>
    </contour>
    <contour>
      <point x="308" y="755" type="line"/>
      <point x="443" y="755" type="line"/>
      <point x="324" y="500" type="line"/>
      <point x="624" y="500" type="line"/>
      <point x="624" y="384" type="line"/>
      <point x="270" y="384" type="line"/>
      <point x="220" y="276" type="line"/>
      <point x="624" y="276" type="line"/>
      <point x="624" y="161" type="line"/>
      <point x="166" y="161" type="line"/>
      <point x="45" y="-100" type="line"/>
      <point x="-91" y="-100" type="line"/>
    </contour>
  </outline>
</glyph>
<glyph name="exclam_asciitilde.liga" format="2">
  <advance width="614"/>
  <outline>
    <contour>
      <point x="117" y="188" type="qcurve" smooth="yes"/>
      <point x="132" y="188"/>
      <point x="158" y="223"/>
      <point x="198" y="296" type="qcurve"/>
      <point x="302" y="248" type="line"/>
      <point x="250" y="145"/>
      <point x="183" y="65"/>
      <point x="140" y="65" type="qcurve" smooth="yes"/>
      <point x="116" y="65"/>
      <point x="56" y="93"/>
      <point x="-9" y="135" type="qcurve"/>
      <point x="-63" y="-100" type="line"/>
      <point x="-170" y="-100" type="line"/>
      <point x="-82" y="179" type="line"/>
      <point x="-98" y="187"/>
      <point x="-120" y="194"/>
      <point x="-129" y="194" type="qcurve" smooth="yes"/>
      <point x="-150" y="194"/>
      <point x="-188" y="145"/>
      <point x="-229" y="71" type="qcurve"/>
      <point x="-333" y="119" type="line"/>
      <point x="-263.0" y="257.0"/>
      <point x="-192" y="312.0"/>
      <point x="-155" y="312.0" type="qcurve" smooth="yes"/>
      <point x="-127" y="312"/>
      <point x="-80" y="297"/>
      <point x="-49" y="281" type="qcurve"/>
      <point x="-31" y="339" type="line"/>
      <point x="-13" y="415" type="line"/>
      <point x="-63" y="447"/>
      <point x="-106" y="471"/>
      <point x="-118" y="471" type="qcurve" smooth="yes"/>
      <point x="-133" y="471"/>
      <point x="-159" y="436"/>
      <point x="-199" y="363" type="qcurve"/>
      <point x="-303" y="411" type="line"/>
      <point x="-251" y="514"/>
      <point x="-184" y="594"/>
      <point x="-141" y="594" type="qcurve" smooth="yes"/>
      <point x="-115" y="594"/>
      <point x="-48" y="561"/>
      <point x="11" y="522" type="qcurve"/>
      <point x="65" y="755" type="line"/>
      <point x="170" y="755" type="line"/>
      <point x="84" y="479" type="line"/>
      <point x="99" y="471"/>
      <point x="118" y="465"/>
      <point x="128" y="465" type="qcurve" smooth="yes"/>
      <point x="149" y="465"/>
      <point x="187" y="514"/>
      <point x="228" y="588" type="qcurve"/>
      <point x="332" y="540" type="line"/>
      <point x="278.0" y="424.0"/>
      <point x="193.0" y="347.0"/>
      <point x="146" y="347" type="qcurve" smooth="yes"/>
      <point x="126" y="347"/>
      <point x="81" y="362"/>
      <point x="52" y="377" type="qcurve"/>
      <point x="33" y="317" type="line"/>
      <point x="16" y="242" type="line"/>
      <point x="66" y="210"/>
      <point x="106" y="188"/>
    </contour>
  </outline>
</glyph>
<glyph name="exclam_equal_equal.liga" format="2">
  <advance width="614"/>
  <outline>
    <contour>
      <point x="-175" y="755" type="line"/>
      <point x="-40" y="755" type="line"/>
      <point x="-121" y="586" type="line"/>
      <point x="486" y="586" type="line"/>
      <point x="486" y="470" type="line"/>
      <point x="-176" y="470" type="line"/>
      <point x="-215" y="388" type="line"/>
      <point x="486" y="388" type="line"/>
      <point x="486" y="272" type="line"/>
      <point x="-269" y="272" type="line"/>
      <point x="-306" y="190" type="line"/>
      <point x="486" y="190" type="line"/>
      <point x="486" y="75" type="line"/>
      <point x="-358" y="75" type="line"/>
      <point x="-438" y="-100" type="line"/>
      <point x="-574" y="-100" type="line"/>
      <point x="-490" y="75" type="line"/>
      <point x="-1100" y="75" type="line"/>
      <point x="-1100" y="190" type="line"/>
      <point x="-435" y="190" type="line"/>
      <point x="-396" y="272" type="line"/>
      <point x="-1100" y="272" type="line"/>
      <point x="-1100" y="388" type="line"/>
      <point x="-342" y="388" type="line"/>
      <point x="-305" y="470" type="line"/>
      <point x="-1100" y="470" type="line"/>
      <point x="-1100" y="586" type="line"/>
      <point x="-252" y="586" type="line"/>
    </contour>
  </outline>
</glyph>
<glyph name="five.den" format="2">
  <advance width="614"/>
  <outline>
    <contour>
      <point x="164" y="167" type="line"/>
      <point x="176" y="380" type="line"/>
      <point x="429" y="380" type="line"/>
      <point x="429" y="305" type="line"/>
      <point x="250" y="305" type="line"/>
      <point x="244" y="224" type="line"/>
      <point x="261" y="235"/>
      <point x="304" y="246"/>
      <point x="334" y="246" type="qcurve"/>
      <point x="388" y="246"/>
      <point x="455" y="184"/>
      <point x="455" y="133" type="qcurve"/>
      <point x="455" y="71"/>
      <point x="347" y="6"/>
      <point x="231" y="-4" type="qcurve"/>
      <point x="160" y="-10" type="line"/>
      <point x="151" y="69" type="line"/>
      <point x="226" y="75" type="line"/>
      <point x="300" y="81"/>
      <point x="365" y="107"/>
      <point x="365" y="132" type="qcurve"/>
      <point x="365" y="153"/>
      <point x="338" y="173"/>
      <point x="311" y="173" type="qcurve"/>
      <point x="294" y="173"/>
      <point x="255" y="164"/>
      <point x="230" y="154" type="qcurve"/>
      <point x="166" y="165" type="line"/>
    </contour>
  </outline>
</glyph>
<glyph name="greater_colon.liga" format="2">
  <advance width="614"/>
  <outline>
    <contour>
      <point x="423" y="483" type="qcurve" smooth="yes"/>
      <point x="423" y="434"/>
      <point x="360" y="383"/>
      <point x="299" y="383" type="qcurve" smooth="yes"/>
      <point x="238" y="383"/>
      <point x="177" y="433"/>
      <point x="177" y="482" type="qcurve" smooth="yes"/>
      <point x="177" y="530"/>
      <point x="241" y="582"/>
      <point x="300" y="582" type="qcurve" smooth="yes"/>
      <point x="363" y="582"/>
      <point x="423" y="534"/>
    </contour>
    <contour>
      <point x="39" y="387" type="line"/>
      <point x="39" y="256" type="line"/>
      <point x="-447" y="52" type="line"/>
      <point x="-447" y="187" type="line"/>
      <point x="-104" y="321" type="line"/>
      <point x="-447" y="454" type="line"/>
      <point x="-447" y="589" type="line"/>
    </contour>
    <contour>
      <point x="423" y="176" type="qcurve" smooth="yes"/>
      <point x="423" y="127"/>
      <point x="359" y="76"/>
      <point x="299" y="76" type="qcurve" smooth="yes"/>
      <point x="239" y="76"/>
      <point x="177" y="127"/>
      <point x="177" y="176" type="qcurve" smooth="yes"/>
      <point x="177" y="223"/>
      <point x="241" y="276"/>
      <point x="300" y="276" type="qcurve" smooth="yes"/>
      <point x="363" y="276"/>
      <point x="423" y="227"/>
    </contour>
  </outline>
</glyph>
<glyph name="greater_greater_hyphen.start" format="2">
  <advance width="614"/>
  <outline>
    <contour>
      <point x="-407" y="388" type="line"/>
      <point x="624" y="388" type="line"/>
      <point x="624" y="272" type="line"/>
      <point x="-400" y="272" type="line"/>
      <point x="-705" y="-11" type="line"/>
      <point x="-790" y="77" type="line"/>
      <point x="-517" y="327" type="line"/>
      <point x="-790" y="577" type="line"/>
      <point x="-705" y="665" type="line"/>
    </contour>
    <contour>
      <point x="-687" y="329" type="line"/>
      <point x="-687" y="325" type="line"/>
      <point x="-1059" y="-11" type="line"/>
      <point x="-1144" y="77" type="line"/>
      <point x="-863" y="327" type="line"/>
      <point x="-1144" y="577" type="line"/>
      <point x="-1059" y="665" type="line"/>
    </contour>
  </outline>
</glyph>
<glyph name="hookcmb.cap" format="2">
  <outline>
    <contour>
      <point x="130" y="855" type="qcurve"/>
      <point x="130" y="812"/>
      <point x="19" y="749"/>
      <point x="-90" y="731" type="qcurve"/>
      <point x="-120" y="788" type="line"/>
      <point x="-120" y="790" type="line"/>
      <point x="-46" y="807"/>
      <point x="6" y="827"/>
      <point x="6" y="839" type="qcurve"/>
      <point x="6" y="854"/>
      <point x="-61" y="874"/>
      <point x="-136" y="884" type="qcurve"/>
      <point x="-136" y="886" type="line"/>
      <point x="-84" y="955" type="line"/>
      <point x="29" y="943"/>
      <point x="130" y="896"/>
    </contour>
  </outline>
</glyph>
<glyph name="hyphen_asciitilde.liga" format="2">
  <advance width="614"/>
  <outline>
    <contour>
      <point x="64" y="296" type="qcurve" smooth="yes"/>
      <point x="29" y="282"/>
      <point x="-20" y="272"/>
      <point x="-46" y="272" type="qcurve" smooth="yes"/>
      <point x="-414" y="272" type="line"/>
      <point x="-414" y="388" type="line"/>
      <point x="-63" y="388" type="line" smooth="yes"/>
      <point x="-38" y="388"/>
      <point x="9" y="398"/>
      <point x="46" y="414" type="qcurve" smooth="yes"/>
      <point x="75" y="426"/>
      <point x="105" y="433"/>
      <point x="119" y="433" type="qcurve" smooth="yes"/>
      <point x="145" y="433"/>
      <point x="198" y="408"/>
      <point x="237" y="378" type="qcurve" smooth="yes"/>
      <point x="279" y="346"/>
      <point x="299" y="334"/>
      <point x="307" y="334" type="qcurve" smooth="yes"/>
      <point x="320" y="334"/>
      <point x="344" y="385"/>
      <point x="369" y="464" type="qcurve"/>
      <point x="480" y="434" type="line"/>
      <point x="444" y="301"/>
      <point x="378" y="200"/>
      <point x="320" y="200" type="qcurve" smooth="yes"/>
      <point x="297" y="200"/>
      <point x="257" y="219"/>
      <point x="189" y="270" type="qcurve" smooth="yes"/>
      <point x="158" y="293"/>
      <point x="125" y="308"/>
      <point x="108" y="308" type="qcurve" smooth="yes"/>
      <point x="101" y="308"/>
      <point x="83" y="304"/>
    </contour>
  </outline>
</glyph>
<glyph name="hyphen_greater_hyphen.middle" format="2">
  <advance width="614"/>
  <outline>
    <contour>
      <point x="303" y="272" type="line"/>
      <point x="-10" y="272" type="line"/>
      <point x="-10" y="388" type="line"/>
      <point x="296" y="388" type="line"/>
      <point x="84" y="577" type="line"/>
      <point x="169" y="665" type="line"/>
      <point x="476" y="388" type="line"/>
      <point x="624" y="388" type="line"/>
      <point x="624" y="272" type="line"/>
      <point x="482" y="272" type="line"/>
      <point x="169" y="-11" type="line"/>
      <point x="84" y="77" type="line"/>
    </contour>
  </outline>
</glyph>
<glyph name="hyphen_less.end" format="2">
  <advance width="614"/>
  <outline>
    <contour>
      <point x="248" y="327" type="line"/>
      <point x="529" y="77" type="line"/>
      <point x="444" y="-11" type="line"/>
      <point x="131" y="272" type="line"/>
      <point x="-624" y="272" type="line"/>
      <point x="-624" y="388" type="line"/>
      <point x="137" y="388" type="line"/>
      <point x="444" y="665" type="line"/>
      <point x="529" y="577" type="line"/>
    </contour>
  </outline>
</glyph>
<glyph name="hyphen_less_hyphen.middle" format="2">
  <advance width="614"/>
  <outline>
    <contour>
      <point x="131" y="272" type="line"/>
      <point x="-10" y="272" type="line"/>
      <point x="-10" y="388" type="line"/>
      <point x="137" y="388" type="line"/>
      <point x="444" y="665" type="line"/>
      <point x="529" y="577" type="line"/>
      <point x="317" y="388" type="line"/>
      <point x="624" y="388" type="line"/>
      <point x="624" y="272" type="line"/>
      <point x="310" y="272" type="line"/>
      <point x="529" y="77" type="line"/>
      <point x="444" y="-11" type="line"/>
    </contour>
  </outline>
</glyph>
<glyph name="hyphen_less_less.liga" format="2">
  <advance width="614"/>
  <outline>
    <contour>
      <point x="176" y="78" type="line"/>
      <point x="91" y="-10" type="line"/>
      <point x="-213" y="272" type="line"/>
      <point x="-1166" y="272" type="line"/>
      <point x="-1166" y="388" type="line"/>
      <point x="-209" y="388" type="line"/>
      <point x="91" y="666" type="line"/>
      <point x="176" y="578" type="line"/>
      <point x="-97" y="328" type="line"/>
    </contour>
    <contour>
      <point x="445" y="-10" type="line"/>
      <point x="73" y="326" type="line"/>
      <point x="73" y="330" type="line"/>
      <point x="445" y="666" type="line"/>
      <point x="530" y="578" type="line"/>
      <point x="249" y="328" type="line"/>
      <point x="530" y="78" type="line"/>
    </contour>
  </outline>
</glyph>
<glyph name="less_asciitilde.liga" format="2">
  <advance width="614"/>
  <outline>
    <contour>
      <point x="275" y="265" type="qcurve" smooth="yes"/>
      <point x="240" y="291"/>
      <point x="202" y="313"/>
      <point x="189" y="313" type="qcurve" smooth="yes"/>
      <point x="174" y="313"/>
      <point x="145" y="298"/>
      <point x="118" y="278" type="qcurve" smooth="yes"/>
      <point x="68" y="241"/>
      <point x="18" y="215"/>
      <point x="-8" y="215" type="qcurve" smooth="yes"/>
      <point x="-24" y="215"/>
      <point x="-60" y="231"/>
      <point x="-111" y="262" type="qcurve" smooth="yes"/>
      <point x="-142" y="281"/>
      <point x="-173" y="296"/>
      <point x="-184" y="296" type="qcurve" smooth="yes"/>
      <point x="-201" y="296"/>
      <point x="-245" y="287"/>
      <point x="-304" y="272" type="qcurve"/>
      <point x="-85" y="77" type="line"/>
      <point x="-170" y="-11" type="line"/>
      <point x="-542" y="325" type="line"/>
      <point x="-542" y="329" type="line"/>
      <point x="-170" y="665" type="line"/>
      <point x="-85" y="577" type="line"/>
      <point x="-311" y="375" type="line"/>
      <point x="-250" y="399"/>
      <point x="-184" y="420"/>
      <point x="-167" y="420" type="qcurve" smooth="yes"/>
      <point x="-149" y="420"/>
      <point x="-111" y="403"/>
      <point x="-71" y="378" type="qcurve" smooth="yes"/>
      <point x="-46" y="363"/>
      <point x="-15" y="349"/>
      <point x="-4" y="349" type="qcurve" smooth="yes"/>
      <point x="11" y="349"/>
      <point x="40" y="364"/>
      <point x="67" y="384" type="qcurve" smooth="yes"/>
      <point x="117" y="421"/>
      <point x="167" y="447"/>
      <point x="193" y="447" type="qcurve" smooth="yes"/>
      <point x="217" y="447"/>
      <point x="273" y="416"/>
      <point x="322" y="377" type="qcurve" smooth="yes"/>
      <point x="365.0" y="343.0"/>
      <point x="378" y="336"/>
      <point x="383" y="336" type="qcurve" smooth="yes"/>
      <point x="397" y="336"/>
      <point x="428" y="386"/>
      <point x="457" y="447" type="qcurve"/>
      <point x="561" y="400" type="line"/>
      <point x="509" y="291"/>
      <point x="440" y="202"/>
      <point x="402" y="202" type="qcurve" smooth="yes"/>
      <point x="374" y="202"/>
      <point x="329" y="224"/>
    </contour>
  </outline>
</glyph>
<glyph name="less_asciitilde_asciitilde.liga" format="2">
  <advance width="614"/>
  <outline>
    <contour>
      <point x="-671" y="285" type="qcurve"/>
      <point x="-692" y="302"/>
      <point x="-723" y="317"/>
      <point x="-738" y="317" type="qcurve" smooth="yes"/>
      <point x="-755" y="317"/>
      <point x="-834" y="295"/>
      <point x="-914" y="268" type="qcurve"/>
      <point x="-699" y="77" type="line"/>
      <point x="-784" y="-11" type="line"/>
      <point x="-1156" y="325" type="line"/>
      <point x="-1156" y="329" type="line"/>
      <point x="-784" y="665" type="line"/>
      <point x="-699" y="577" type="line"/>
      <point x="-923" y="377" type="line"/>
      <point x="-837" y="411"/>
      <point x="-741" y="443"/>
      <point x="-722" y="443" type="qcurve" smooth="yes"/>
      <point x="-701" y="443"/>
      <point x="-659" y="423"/>
      <point x="-624" y="397" type="qcurve" smooth="yes"/>
      <point x="-590" y="371"/>
      <point x="-551" y="349"/>
      <point x="-538" y="349" type="qcurve" smooth="yes"/>
      <point x="-523" y="349"/>
      <point x="-494" y="364"/>
      <point x="-467" y="384" type="qcurve" smooth="yes"/>
      <point x="-417" y="421"/>
      <point x="-367" y="447"/>
      <point x="-341" y="447" type="qcurve" smooth="yes"/>
      <point x="-319" y="447"/>
      <point x="-267" y="419"/>
      <point x="-222" y="385" type="qcurve" smooth="yes"/>
      <point x="-198" y="366"/>
      <point x="-166" y="349"/>
      <point x="-151" y="349" type="qcurve" smooth="yes"/>
      <point x="-136" y="349"/>
      <point x="-107" y="364"/>
      <point x="-80" y="384" type="qcurve" smooth="yes"/>
      <point x="-30" y="421"/>
      <point x="20" y="447"/>
      <point x="46" y="447" type="qcurve" smooth="yes"/>
      <point x="70" y="447"/>
      <point x="127" y="416"/>
      <point x="175" y="377" type="qcurve" smooth="yes"/>
      <point x="216.0" y="344.0"/>
      <point x="230" y="336"/>
      <point x="236" y="336" type="qcurve" smooth="yes"/>
      <point x="250" y="336"/>
      <point x="281" y="386"/>
      <point x="310" y="447" type="qcurve"/>
      <point x="414" y="400" type="line"/>
      <point x="362" y="291"/>
      <point x="293" y="202"/>
      <point x="255" y="202" type="qcurve" smooth="yes"/>
      <point x="227" y="202"/>
      <point x="182" y="224"/>
      <point x="128" y="265" type="qcurve" smooth="yes"/>
      <point x="93" y="291"/>
      <point x="55" y="313"/>
      <point x="42" y="313" type="qcurve" smooth="yes"/>
      <point x="27" y="313"/>
      <point x="-2" y="298"/>
      <point x="-29" y="278" type="qcurve" smooth="yes"/>
      <point x="-79" y="241"/>
      <point x="-129" y="215"/>
      <point x="-155" y="215" type="qcurve" smooth="yes"/>
      <point x="-179" y="215"/>
      <point x="-231" y="243"/>
      <point x="-273" y="276" type="qcurve" smooth="yes"/>
      <point x="-298" y="295"/>
      <point x="-330" y="313"/>
      <point x="-345" y="313" type="qcurve" smooth="yes"/>
      <point x="-360" y="313"/>
      <point x="-389" y="298"/>
      <point x="-416" y="278" type="qcurve" smooth="yes"/>
      <point x="-466" y="241"/>
      <point x="-516" y="215"/>
      <point x="-542" y="215" type="qcurve" smooth="yes"/>
      <point x="-563" y="215"/>
      <point x="-616" y="245"/>
    </contour>
  </outline>
</glyph>
<glyph name="less_asciitilde_greater.liga" format="2">
  <advance width="614"/>
  <outline>
    <contour>
      <point x="-784" y="-11" type="line"/>
      <point x="-1156" y="325" type="line"/>
      <point x="-1156" y="329" type="line"/>
      <point x="-784" y="665" type="line"/>
      <point x="-699" y="577" type="line"/>
      <point x="-980" y="327" type="line"/>
      <point x="-699" y="77" type="line"/>
    </contour>
    <contour>
      <point x="541" y="329" type="line"/>
      <point x="541" y="325" type="line"/>
      <point x="169" y="-11" type="line"/>
      <point x="84" y="77" type="line"/>
      <point x="365" y="327" type="line"/>
      <point x="84" y="577" type="line"/>
      <point x="169" y="665" type="line"/>
    </contour>
    <contour>
      <point x="-139" y="265" type="qcurve" smooth="yes"/>
      <point x="-174" y="291"/>
      <point x="-212" y="313"/>
      <point x="-225" y="313" type="qcurve" smooth="yes"/>
      <point x="-240" y="313"/>
      <point x="-269" y="298"/>
      <point x="-296" y="278" type="qcurve" smooth="yes"/>
      <point x="-346" y="241"/>
      <point x="-396" y="215"/>
      <point x="-422" y="215" type="qcurve" smooth="yes"/>
      <point x="-446" y="215"/>
      <point x="-502" y="247"/>
      <point x="-551" y="285" type="qcurve" smooth="yes"/>
      <point x="-598.0" y="321.0"/>
      <point x="-607" y="326"/>
      <point x="-612" y="326" type="qcurve" smooth="yes"/>
      <point x="-626" y="326"/>
      <point x="-657" y="276"/>
      <point x="-686" y="215" type="qcurve"/>
      <point x="-790" y="262" type="line"/>
      <point x="-738" y="371"/>
      <point x="-669" y="460"/>
      <point x="-631" y="460" type="qcurve" smooth="yes"/>
      <point x="-603" y="460"/>
      <point x="-558" y="438"/>
      <point x="-504" y="397" type="qcurve" smooth="yes"/>
      <point x="-469" y="371"/>
      <point x="-431" y="349"/>
      <point x="-418" y="349" type="qcurve" smooth="yes"/>
      <point x="-403" y="349"/>
      <point x="-374" y="364"/>
      <point x="-347" y="384" type="qcurve" smooth="yes"/>
      <point x="-297" y="421"/>
      <point x="-247" y="447"/>
      <point x="-221" y="447" type="qcurve" smooth="yes"/>
      <point x="-197" y="447"/>
      <point x="-141" y="415"/>
      <point x="-92" y="377" type="qcurve" smooth="yes"/>
      <point x="-48.0" y="343.0"/>
      <point x="-36" y="336"/>
      <point x="-31" y="336" type="qcurve" smooth="yes"/>
      <point x="-17" y="336"/>
      <point x="14" y="386"/>
      <point x="43" y="447" type="qcurve"/>
      <point x="147" y="400" type="line"/>
      <point x="95" y="291"/>
      <point x="26" y="202"/>
      <point x="-12" y="202" type="qcurve" smooth="yes"/>
      <point x="-40" y="202"/>
      <point x="-85" y="224"/>
    </contour>
  </outline>
</glyph>
<glyph name="less_bar_bar.liga" format="2">
  <advance width="614"/>
  <outline>
    <contour>
      <point x="234" y="-129" type="line"/>
      <point x="104" y="-129" type="line"/>
      <point x="104" y="783" type="line"/>
      <point x="234" y="783" type="line"/>
    </contour>
    <contour>
      <point x="-290" y="-129" type="line"/>
      <point x="-952" y="256" type="line"/>
      <point x="-952" y="387" type="line"/>
      <point x="-290" y="783" type="line"/>
      <point x="-181" y="783" type="line"/>
      <point x="-181" y="-129" type="line"/>
    </contour>
    <contour>
      <point x="-311" y="621" type="line"/>
      <point x="-828" y="323" type="line"/>
      <point x="-311" y="33" type="line"/>
    </contour>
  </outline>
</glyph>
